<?xml version="1.0" encoding="utf-8"?>
<!-- Generator: Adobe Illustrator 18.0.0, SVG Export Plug-In . SVG Version: 6.00 Build 0)  -->
<!DOCTYPE svg PUBLIC "-//W3C//DTD SVG 1.1//EN" "http://www.w3.org/Graphics/SVG/1.1/DTD/svg11.dtd">
<svg version="1.1" xmlns="http://www.w3.org/2000/svg" xmlns:xlink="http://www.w3.org/1999/xlink" x="0px" y="0px"
	 viewBox="0 0 175.5 533.5" enable-background="new 0 0 175.5 533.5" xml:space="preserve">
<g id="_x31_">
	<g>
		<path fill="#F9DA8D" d="M142.7,104.7L142.7,104.7C142.7,104.7,142.7,104.7,142.7,104.7c-0.4-0.1-0.8-0.1-1.2-0.1c0,0-0.1,0-0.1,0
			c-0.4,0-0.7,0-1.1,0c-0.1,0-0.1,0-0.2,0c-0.3,0-0.7,0-1,0.1c-0.1,0-0.2,0-0.2,0c-0.3,0-0.7,0.1-1,0.2c-0.1,0-0.2,0-0.2,0.1
			c-0.3,0.1-0.6,0.2-1,0.3c-0.1,0-0.1,0-0.2,0.1c-0.3,0.1-0.7,0.3-1,0.4c0,0-0.1,0-0.1,0.1c-0.7,0.4-1.5,0.8-2.1,1.3
			c-0.1,0-0.1,0.1-0.1,0.1c-0.3,0.2-0.5,0.4-0.8,0.7c-0.1,0.1-0.2,0.2-0.3,0.3c-0.2,0.2-0.4,0.4-0.6,0.6c-0.1,0.1-0.2,0.3-0.3,0.4
			c-0.2,0.2-0.3,0.4-0.5,0.7c-0.1,0.2-0.2,0.3-0.3,0.5c-0.1,0.2-0.3,0.5-0.4,0.7c-0.1,0.2-0.2,0.3-0.2,0.5c-0.1,0.3-0.2,0.5-0.3,0.8
			c-0.1,0.2-0.1,0.4-0.2,0.6c-0.1,0.3-0.2,0.6-0.2,0.9c0,0.2-0.1,0.4-0.1,0.6c-0.1,0.3-0.1,0.7-0.2,1.1c0,0.2-0.1,0.4-0.1,0.5
			c-0.1,0.6-0.1,1.1-0.1,1.7c0,17.9,0,41,0,41h-5.1c0,0,1.7-87.1,0-106.7c-1.2-13.6-11.4-14.9-17.6-10.4c0,0-0.1,0.1-0.1,0.1
			c-0.2,0.2-0.5,0.4-0.7,0.6c-0.1,0.1-0.1,0.1-0.2,0.2c-0.2,0.2-0.4,0.4-0.6,0.6c-0.1,0.1-0.2,0.2-0.2,0.3c-0.2,0.2-0.3,0.4-0.5,0.5
			c-0.1,0.1-0.2,0.2-0.2,0.3c-0.1,0.2-0.3,0.4-0.4,0.6c-0.1,0.1-0.2,0.2-0.2,0.4c-0.1,0.2-0.2,0.4-0.3,0.6c-0.1,0.1-0.1,0.3-0.2,0.4
			c-0.1,0.2-0.2,0.4-0.3,0.6c-0.1,0.1-0.1,0.3-0.2,0.4c-0.1,0.2-0.1,0.4-0.2,0.6c0,0.1-0.1,0.3-0.1,0.4c-0.1,0.2-0.1,0.5-0.1,0.7
			c0,0.1,0,0.2-0.1,0.4c0,0.4-0.1,0.8-0.1,1.2c0,12,0,70,0,70h-5.1c0,0,0-66.6,0-85.4c0-7-3.1-10.3-6.9-11.2l0,0c0,0,0,0,0,0
			c-0.4-0.1-0.8-0.1-1.2-0.2c0,0-0.1,0-0.1,0c-0.4,0-0.7,0-1.1,0c-0.1,0-0.2,0-0.3,0c-0.3,0-0.7,0-1,0.1c-0.1,0-0.2,0-0.2,0
			c-0.8,0.1-1.7,0.3-2.5,0.6c-0.1,0-0.1,0-0.2,0.1c-0.3,0.1-0.7,0.3-1,0.4c-0.1,0-0.2,0.1-0.3,0.1c-0.3,0.1-0.6,0.3-0.9,0.5
			c-0.1,0.1-0.2,0.1-0.3,0.1c-0.4,0.2-0.7,0.4-1.1,0.7c0,0,0,0,0,0c-0.4,0.2-0.7,0.5-1,0.8c-0.1,0.1-0.2,0.1-0.2,0.2
			c-0.2,0.2-0.5,0.4-0.7,0.6c-0.1,0.1-0.2,0.2-0.3,0.3c-0.2,0.2-0.4,0.4-0.6,0.7c-0.1,0.1-0.2,0.2-0.2,0.3c-0.2,0.3-0.5,0.6-0.7,0.9
			c0,0,0,0,0,0.1c-0.2,0.3-0.4,0.7-0.6,1c-0.1,0.1-0.1,0.2-0.1,0.3c-0.1,0.3-0.2,0.5-0.3,0.8c0,0.1-0.1,0.3-0.1,0.4
			c-0.1,0.3-0.1,0.5-0.2,0.8c0,0.1,0,0.2-0.1,0.4c-0.1,0.4-0.1,0.8-0.1,1.2c0,11.1,0,84.5,0,84.5h-7.7c0,0,0-56.3,0-70.9
			c0-7.8-5.9-10.6-11.5-9.8l0,0c0,0,0,0,0,0c-0.9,0.1-1.8,0.4-2.6,0.7c0,0,0,0,0,0c-0.2,0.1-0.4,0.2-0.6,0.3c-0.1,0-0.2,0.1-0.2,0.1
			c-0.2,0.1-0.4,0.2-0.5,0.3c-0.1,0.1-0.2,0.1-0.3,0.2c-0.2,0.1-0.3,0.2-0.5,0.3c-0.1,0.1-0.2,0.1-0.3,0.2c-0.1,0.1-0.3,0.2-0.4,0.3
			c-0.1,0.1-0.2,0.2-0.3,0.3c-0.1,0.1-0.2,0.2-0.4,0.3c-0.1,0.1-0.2,0.2-0.3,0.3c-0.1,0.1-0.2,0.2-0.3,0.3c-0.1,0.1-0.2,0.2-0.3,0.4
			c-0.1,0.1-0.2,0.2-0.3,0.4c-0.1,0.1-0.2,0.3-0.3,0.4c-0.1,0.1-0.2,0.2-0.2,0.4c-0.1,0.1-0.2,0.3-0.2,0.4c-0.1,0.1-0.1,0.3-0.2,0.4
			c-0.1,0.2-0.1,0.3-0.2,0.5c-0.1,0.1-0.1,0.3-0.2,0.4c-0.1,0.2-0.1,0.4-0.2,0.6c0,0.1-0.1,0.3-0.1,0.4c0,0.2-0.1,0.4-0.1,0.7
			c0,0.1,0,0.2-0.1,0.3c0,0.3-0.1,0.7-0.1,1.1c0,12,0,70,0,70H38c0,0,0-38.4,0-54.6c0-8.6-6-11.9-11.9-11.1v0c0,0,0,0,0,0
			c-0.2,0-0.4,0.1-0.7,0.1c-0.1,0-0.2,0-0.4,0.1c-0.2,0-0.4,0.1-0.6,0.2c-0.1,0-0.3,0.1-0.4,0.1c-0.2,0.1-0.4,0.1-0.6,0.2
			c-0.1,0.1-0.3,0.1-0.4,0.2c-0.2,0.1-0.3,0.1-0.5,0.2c-0.1,0.1-0.3,0.1-0.4,0.2c-0.2,0.1-0.3,0.2-0.5,0.3c-0.1,0.1-0.3,0.2-0.4,0.2
			c-0.2,0.1-0.3,0.2-0.5,0.3c-0.1,0.1-0.3,0.2-0.4,0.3c-0.1,0.1-0.3,0.2-0.4,0.3c-0.1,0.1-0.3,0.2-0.4,0.3c-0.1,0.1-0.3,0.2-0.4,0.3
			c-0.1,0.1-0.3,0.2-0.4,0.4c-0.1,0.1-0.2,0.2-0.4,0.4c-0.1,0.1-0.3,0.3-0.4,0.4c-0.1,0.1-0.2,0.3-0.3,0.4c-0.1,0.2-0.2,0.3-0.4,0.5
			c-0.1,0.1-0.2,0.3-0.3,0.4c-0.1,0.2-0.2,0.3-0.3,0.5c-0.1,0.1-0.2,0.3-0.3,0.4c-0.1,0.2-0.2,0.4-0.3,0.6c-0.1,0.1-0.1,0.3-0.2,0.4
			c-0.1,0.2-0.2,0.4-0.2,0.6c-0.1,0.1-0.1,0.3-0.2,0.4c-0.1,0.2-0.1,0.5-0.2,0.8c0,0.1-0.1,0.3-0.1,0.4C15.1,63.2,15,63.6,15,64
			c-1.7,13.7-3.4,115.3,0,122.1c2.3,4.7,11.2,24.7,30.4,37.8v35.5c-1.7,0.2-3,1.6-3,3.4v9.8c0,1.7,1.3,3.2,3,3.4v157.5
			c-7.4,0.4-13.3,6.5-13.3,14c0,5.5,3.2,10.2,7.8,12.5c-3.9,27.4-2.1,73.6-2.1,73.6h84.8c0.7-13.4-3.4-54.9-5.5-74.9
			c3.4-2.6,5.5-6.6,5.5-11.1c0-6.8-4.8-12.4-11.2-13.7V276h0.6c1.9,0,3.4-1.5,3.4-3.4v-9.8c0-1.9-1.5-3.4-3.4-3.4h-0.6v-28
			c28.3-10.7,41.2-37.1,41.8-46.1c0.9-12,0.9-52.1,0-68.3C152.9,109.7,148,105.5,142.7,104.7z"/>
	</g>
	<g>
		<path fill="#EDB886" d="M77.1,24.3c0.8-0.3,1.6-0.5,2.5-0.6C78.8,23.8,77.9,24,77.1,24.3z"/>
		<path fill="#EDB886" d="M125.7,108.8c0.2-0.2,0.4-0.4,0.6-0.6C126.1,108.4,125.9,108.6,125.7,108.8z"/>
		<path fill="#EDB886" d="M12.7,56.8c0.1-0.1,0.2-0.2,0.4-0.4C12.9,56.6,12.8,56.7,12.7,56.8z"/>
		<path fill="#EDB886" d="M96.3,46.6c0.1-0.2,0.2-0.4,0.3-0.6C96.4,46.2,96.4,46.4,96.3,46.6z"/>
		<path fill="#EDB886" d="M13.5,56.1c0.1-0.1,0.3-0.2,0.4-0.3C13.7,55.9,13.6,56,13.5,56.1z"/>
		<path fill="#EDB886" d="M95.9,47.6c0.1-0.2,0.1-0.4,0.2-0.6C96,47.2,96,47.4,95.9,47.6z"/>
		<path fill="#EDB886" d="M82.3,23.6c0.4,0,0.8,0.1,1.2,0.2C83.1,23.7,82.7,23.6,82.3,23.6z"/>
		<path fill="#EDB886" d="M134.5,104.5c0.4,0,0.7,0,1.1,0C135.3,104.5,134.9,104.5,134.5,104.5z"/>
		<path fill="#EDB886" d="M79.8,23.7c0.3,0,0.7-0.1,1-0.1C80.5,23.6,80.2,23.6,79.8,23.7z"/>
		<path fill="#EDB886" d="M95.6,50.3c0-0.4,0-0.8,0.1-1.2C95.6,49.5,95.6,49.9,95.6,50.3z"/>
		<path fill="#EDB886" d="M95.7,48.8c0-0.2,0.1-0.5,0.1-0.7C95.8,48.3,95.7,48.5,95.7,48.8z"/>
		<path fill="#EDB886" d="M75.9,24.8c0.3-0.1,0.7-0.3,1-0.4C76.6,24.5,76.3,24.6,75.9,24.8z"/>
		<path fill="#EDB886" d="M81.1,23.6c0.4,0,0.7,0,1.1,0C81.8,23.6,81.5,23.6,81.1,23.6z"/>
		<path fill="#EDB886" d="M132.1,104.8c0.3-0.1,0.6-0.1,1-0.2C132.8,104.7,132.4,104.8,132.1,104.8z"/>
		<path fill="#EDB886" d="M45.8,39.8c0.2-0.1,0.4-0.2,0.6-0.3C46.2,39.6,46,39.7,45.8,39.8z"/>
		<path fill="#EDB886" d="M96.7,45.6c0.1-0.2,0.2-0.4,0.3-0.6C96.9,45.2,96.8,45.4,96.7,45.6z"/>
		<path fill="#EDB886" d="M11.3,58.5c0.1-0.1,0.2-0.3,0.3-0.4C11.5,58.3,11.4,58.4,11.3,58.5z"/>
		<path fill="#EDB886" d="M133.3,104.6c0.3,0,0.7-0.1,1-0.1C134,104.6,133.7,104.6,133.3,104.6z"/>
		<path fill="#EDB886" d="M130.9,105.2c0.3-0.1,0.6-0.2,1-0.3C131.5,105,131.2,105.1,130.9,105.2z"/>
		<path fill="#EDB886" d="M124.9,109.9c0.1-0.2,0.3-0.5,0.5-0.7C125.2,109.4,125.1,109.7,124.9,109.9z"/>
		<path fill="#EDB886" d="M9.5,62.8c0-0.1,0.1-0.3,0.1-0.4C9.6,62.5,9.6,62.6,9.5,62.8z"/>
		<path fill="#EDB886" d="M9.9,61.6c0-0.2,0.1-0.3,0.2-0.4C10,61.3,9.9,61.5,9.9,61.6z"/>
		<path fill="#EDB886" d="M10.3,60.5c0.1-0.2,0.1-0.3,0.2-0.4C10.4,60.2,10.3,60.4,10.3,60.5z"/>
		<path fill="#EDB886" d="M129.7,105.7c0.3-0.2,0.7-0.3,1-0.4C130.3,105.4,130,105.5,129.7,105.7z"/>
		<path fill="#EDB886" d="M10.8,59.5c0.1-0.1,0.2-0.3,0.3-0.4C10.9,59.2,10.8,59.4,10.8,59.5z"/>
		<path fill="#EDB886" d="M99.4,42.2c0.2-0.2,0.5-0.4,0.7-0.6C99.8,41.9,99.6,42,99.4,42.2z"/>
		<path fill="#EDB886" d="M98.6,43c0.2-0.2,0.4-0.4,0.6-0.6C99,42.6,98.8,42.8,98.6,43z"/>
		<path fill="#EDB886" d="M122.9,117.8c0-0.6,0-1.2,0.1-1.7C122.9,116.6,122.9,117.2,122.9,117.8z"/>
		<path fill="#EDB886" d="M97.3,44.6c0.1-0.2,0.3-0.4,0.4-0.6C97.5,44.3,97.4,44.5,97.3,44.6z"/>
		<path fill="#EDB886" d="M97.9,43.8c0.1-0.2,0.3-0.4,0.5-0.5C98.2,43.4,98,43.6,97.9,43.8z"/>
		<path fill="#EDB886" d="M123.3,113.9c0.1-0.3,0.1-0.6,0.2-0.9C123.5,113.2,123.4,113.5,123.3,113.9z"/>
		<path fill="#EDB886" d="M123.7,112.4c0.1-0.3,0.2-0.5,0.3-0.8C123.9,111.9,123.8,112.1,123.7,112.4z"/>
		<path fill="#EDB886" d="M124.3,111.1c0.1-0.2,0.2-0.5,0.4-0.7C124.5,110.6,124.4,110.8,124.3,111.1z"/>
		<path fill="#EDB886" d="M12,57.7c0.1-0.1,0.2-0.3,0.3-0.4C12.2,57.4,12.1,57.5,12,57.7z"/>
		<path fill="#EDB886" d="M123,115.5c0-0.4,0.1-0.7,0.2-1.1C123.1,114.8,123.1,115.1,123,115.5z"/>
		<path fill="#EDB886" d="M45,40.1c0.2-0.1,0.3-0.2,0.5-0.3C45.4,40,45.2,40,45,40.1z"/>
		<path fill="#EDB886" d="M68.4,33.4c0.1-0.3,0.1-0.5,0.2-0.8C68.5,32.9,68.4,33.1,68.4,33.4z"/>
		<path fill="#EDB886" d="M42.2,42.4c0.1-0.1,0.2-0.2,0.3-0.3C42.4,42.1,42.3,42.3,42.2,42.4z"/>
		<path fill="#EDB886" d="M71.5,27.8c0.2-0.2,0.5-0.4,0.7-0.6C71.9,27.4,71.7,27.6,71.5,27.8z"/>
		<path fill="#EDB886" d="M41.6,43.1c0.1-0.1,0.2-0.2,0.3-0.4C41.8,42.8,41.7,43,41.6,43.1z"/>
		<path fill="#EDB886" d="M41.1,43.9c0.1-0.1,0.2-0.3,0.2-0.4C41.2,43.6,41.1,43.7,41.1,43.9z"/>
		<path fill="#EDB886" d="M87.8,278.5H68c-4.1,36.5-6.2,87.5-5.7,110.8c0.2,10.5,0.5,26.5,0.7,44.2h40c1,0,1.9,0.1,2.8,0.3V276h-18
			V278.5z"/>
		<path fill="#EDB886" d="M68.2,34.9c0-0.4,0-0.8,0.1-1.2C68.3,34.2,68.2,34.5,68.2,34.9z"/>
		<path fill="#EDB886" d="M44.3,40.6c0.2-0.1,0.3-0.2,0.5-0.3C44.6,40.4,44.4,40.5,44.3,40.6z"/>
		<path fill="#EDB886" d="M42.8,41.7c0.1-0.1,0.2-0.2,0.4-0.3C43.1,41.5,42.9,41.6,42.8,41.7z"/>
		<path fill="#EDB886" d="M69.1,31.1c0.2-0.4,0.4-0.7,0.6-1C69.5,30.4,69.3,30.8,69.1,31.1z"/>
		<path fill="#EDB886" d="M69.7,30c0.2-0.3,0.4-0.6,0.7-0.9C70.2,29.4,69.9,29.7,69.7,30z"/>
		<path fill="#EDB886" d="M43.5,41.1c0.1-0.1,0.3-0.2,0.4-0.3C43.8,40.9,43.7,41,43.5,41.1z"/>
		<path fill="#EDB886" d="M68.7,32.2c0.1-0.3,0.2-0.5,0.3-0.8C68.9,31.7,68.8,31.9,68.7,32.2z"/>
		<path fill="#EDB886" d="M70.6,28.8c0.2-0.2,0.4-0.4,0.6-0.7C71,28.3,70.8,28.6,70.6,28.8z"/>
		<path fill="#EDB886" d="M126.5,107.9c0.2-0.2,0.5-0.5,0.8-0.7C127,107.4,126.8,107.6,126.5,107.9z"/>
		<path fill="#EDB886" d="M40.6,44.7c0.1-0.1,0.1-0.3,0.2-0.4C40.7,44.4,40.7,44.6,40.6,44.7z"/>
		<path fill="#EDB886" d="M135.8,104.6c0.4,0,0.8,0.1,1.2,0.1C136.6,104.6,136.2,104.6,135.8,104.6z"/>
		<path fill="#EDB886" d="M127.4,107.1c0.7-0.5,1.4-1,2.1-1.3C128.8,106.1,128.1,106.5,127.4,107.1z"/>
		<path fill="#EDB886" d="M46.5,39.5c0.8-0.3,1.7-0.6,2.6-0.7C48.2,38.9,47.3,39.2,46.5,39.5z"/>
		<path fill="#EDB886" d="M16.1,54.3c0.2-0.1,0.3-0.2,0.5-0.3C16.4,54.1,16.2,54.2,16.1,54.3z"/>
		<path fill="#EDB886" d="M74.8,25.4c0.3-0.2,0.6-0.3,0.9-0.5C75.3,25.1,75.1,25.2,74.8,25.4z"/>
		<path fill="#EDB886" d="M17,53.9c0.2-0.1,0.3-0.2,0.5-0.2C17.3,53.7,17.2,53.8,17,53.9z"/>
		<path fill="#EDB886" d="M40.3,45.6c0-0.1,0.1-0.3,0.2-0.4C40.4,45.3,40.3,45.5,40.3,45.6z"/>
		<path fill="#EDB886" d="M14.3,55.4c0.1-0.1,0.3-0.2,0.4-0.3C14.6,55.2,14.4,55.3,14.3,55.4z"/>
		<path fill="#EDB886" d="M15.1,54.8c0.2-0.1,0.3-0.2,0.5-0.3C15.5,54.6,15.3,54.7,15.1,54.8z"/>
		<path fill="#EDB886" d="M40,46.5c0-0.1,0.1-0.3,0.1-0.4C40.1,46.3,40,46.4,40,46.5z"/>
		<path fill="#EDB886" d="M137,104.7c-5,9.6-12,27.4-14.1,54h-5.1c0,0,1.7-87.1,0-106.7c-1.2-13.6-11.4-14.9-17.6-10.4
			c2.1-1.5,4.7-2.4,7.2-2.3c-4,10-9.7,32.4-11.8,81h-5.1c0,0,0-66.6,0-85.4c0-7-3.1-10.3-6.9-11.2c-4.1,11.1-13.9,42.7-15.3,95.7
			h-7.7c0,0,0-56.3,0-70.9c0-7.8-5.9-10.6-11.5-9.8c-2.1,14.4-8.8,62.7-9.3,79.8h-7.4c0,0,0-38.4,0-54.6c0-8.6-6-11.9-11.9-11.1
			c0,0-11.9,86.2,0,120.4C32.4,207.4,57.2,227,86.2,227c12.8,0,2.1,6-8.3,10.2c-2.6,1-4.8,8.4-6.8,19.6h16.9v2.5h18v-28
			c28.3-10.7,41.2-37.1,41.8-46.1c0.9-12,0.9-52.1,0-68.3C147.3,109.7,142.3,105.5,137,104.7z M23.6,153.2
			c-3.4-6.6,23.5,3.3,40.2,0.8c16.7-2.5,29.4-9.8,33.2-4.7C100.9,154.4,29.6,164.7,23.6,153.2z M92.8,181.3
			c-12.1,5.2-35.6,42.6-32.3,23.8c3.3-18.8,45.5-52.8,46.1-47.6C107.5,165.5,104.9,176.1,92.8,181.3z"/>
		<path fill="#EDB886" d="M72.4,27c0.3-0.3,0.7-0.5,1-0.8C73.1,26.5,72.7,26.7,72.4,27z"/>
		<path fill="#EDB886" d="M17.9,53.5c0.2-0.1,0.4-0.1,0.6-0.2C18.3,53.4,18.1,53.4,17.9,53.5z"/>
		<path fill="#EDB886" d="M39.8,47.5c0-0.1,0-0.2,0.1-0.3C39.9,47.3,39.8,47.4,39.8,47.5z"/>
		<path fill="#EDB886" d="M73.4,26.2c0.3-0.2,0.7-0.5,1.1-0.7C74.1,25.7,73.8,26,73.4,26.2z"/>
		<path fill="#EDB886" d="M18.9,53.2c0.2-0.1,0.4-0.1,0.6-0.2C19.3,53.1,19.1,53.1,18.9,53.2z"/>
		<path fill="#EDB886" d="M19.9,53c0.2,0,0.4-0.1,0.7-0.1C20.3,52.9,20.1,52.9,19.9,53z"/>
		<path fill="#E6A06B" d="M63,433.4c-0.2-17.7-0.5-33.7-0.7-44.2C61.7,366,63.8,315,68,278.5h-8.5V276H40.2c-0.1,0-0.3,0-0.4,0
			v157.5c0.2,0,0.4,0,0.7,0H63z"/>
		<path fill="#E6A06B" d="M59.4,259.3v-2.5H71c2-11.1,4.3-18.5,6.8-19.6C88.2,233,99,227,86.2,227c-29,0-53.8-19.6-65.7-53.8
			c-11.9-34.1,0-120.4,0-120.4v0c0,0,0,0,0,0c-0.2,0-0.4,0.1-0.7,0.1c-0.1,0-0.2,0-0.4,0.1c-0.2,0-0.4,0.1-0.6,0.2
			c-0.1,0-0.3,0.1-0.4,0.1c-0.2,0.1-0.4,0.1-0.6,0.2c-0.1,0.1-0.3,0.1-0.4,0.2c-0.2,0.1-0.3,0.1-0.5,0.2c-0.1,0.1-0.3,0.1-0.4,0.2
			c-0.2,0.1-0.3,0.2-0.5,0.3c-0.1,0.1-0.3,0.2-0.4,0.2c-0.2,0.1-0.3,0.2-0.5,0.3c-0.1,0.1-0.3,0.2-0.4,0.3c-0.1,0.1-0.3,0.2-0.4,0.3
			c-0.1,0.1-0.3,0.2-0.4,0.3c-0.1,0.1-0.3,0.2-0.4,0.3c-0.1,0.1-0.3,0.2-0.4,0.4c-0.1,0.1-0.2,0.2-0.4,0.4c-0.1,0.1-0.3,0.3-0.4,0.4
			c-0.1,0.1-0.2,0.3-0.3,0.4c-0.1,0.2-0.2,0.3-0.4,0.5c-0.1,0.1-0.2,0.3-0.3,0.4c-0.1,0.2-0.2,0.3-0.3,0.5c-0.1,0.1-0.2,0.3-0.3,0.4
			c-0.1,0.2-0.2,0.4-0.3,0.6c-0.1,0.1-0.1,0.3-0.2,0.4c-0.1,0.2-0.2,0.4-0.2,0.6c-0.1,0.1-0.1,0.3-0.2,0.4c-0.1,0.2-0.1,0.5-0.2,0.8
			c0,0.1-0.1,0.3-0.1,0.4c-0.1,0.4-0.2,0.8-0.2,1.2c-1.7,13.7-3.4,115.3,0,122.1c2.3,4.7,11.2,24.7,30.4,37.8v35.5
			c0.1,0,0.3,0,0.4,0H59.4z"/>
		<path fill="#E6A06B" d="M60.5,205.1c-3.3,18.8,20.2-18.6,32.3-23.8c12.1-5.2,14.6-15.9,13.8-23.8
			C106.1,152.3,63.8,186.3,60.5,205.1z"/>
		<path fill="#E6A06B" d="M49.1,38.8C49.1,38.8,49.1,38.8,49.1,38.8c-0.9,0.1-1.8,0.4-2.6,0.7c0,0,0,0,0,0c-0.2,0.1-0.4,0.2-0.6,0.3
			c-0.1,0-0.2,0.1-0.2,0.1C45.4,40,45.2,40,45,40.1c-0.1,0.1-0.2,0.1-0.3,0.2c-0.2,0.1-0.3,0.2-0.5,0.3c-0.1,0.1-0.2,0.1-0.3,0.2
			c-0.1,0.1-0.3,0.2-0.4,0.3c-0.1,0.1-0.2,0.2-0.3,0.3c-0.1,0.1-0.2,0.2-0.4,0.3c-0.1,0.1-0.2,0.2-0.3,0.3c-0.1,0.1-0.2,0.2-0.3,0.3
			c-0.1,0.1-0.2,0.2-0.3,0.4c-0.1,0.1-0.2,0.2-0.3,0.4c-0.1,0.1-0.2,0.3-0.3,0.4c-0.1,0.1-0.2,0.2-0.2,0.4c-0.1,0.1-0.2,0.3-0.2,0.4
			c-0.1,0.1-0.1,0.3-0.2,0.4c-0.1,0.2-0.1,0.3-0.2,0.5c-0.1,0.1-0.1,0.3-0.2,0.4c-0.1,0.2-0.1,0.4-0.2,0.6c0,0.1-0.1,0.3-0.1,0.4
			c0,0.2-0.1,0.4-0.1,0.7c0,0.1,0,0.2-0.1,0.3c0,0.3-0.1,0.7-0.1,1.1c0,12,0,70,0,70C40.3,101.5,47,53.2,49.1,38.8L49.1,38.8z"/>
		<path fill="#E6A06B" d="M83.5,23.8C83.5,23.8,83.5,23.8,83.5,23.8c-0.4-0.1-0.8-0.1-1.2-0.2c0,0-0.1,0-0.1,0c-0.4,0-0.7,0-1.1,0
			c-0.1,0-0.2,0-0.3,0c-0.3,0-0.7,0-1,0.1c-0.1,0-0.2,0-0.2,0c-0.8,0.1-1.7,0.3-2.5,0.6c-0.1,0-0.1,0-0.2,0.1
			c-0.3,0.1-0.7,0.3-1,0.4c-0.1,0-0.2,0.1-0.3,0.1c-0.3,0.1-0.6,0.3-0.9,0.5c-0.1,0.1-0.2,0.1-0.3,0.1c-0.4,0.2-0.7,0.4-1.1,0.7
			c0,0,0,0,0,0c-0.4,0.2-0.7,0.5-1,0.8c-0.1,0.1-0.2,0.1-0.2,0.2c-0.2,0.2-0.5,0.4-0.7,0.6c-0.1,0.1-0.2,0.2-0.3,0.3
			c-0.2,0.2-0.4,0.4-0.6,0.7c-0.1,0.1-0.2,0.2-0.2,0.3c-0.2,0.3-0.5,0.6-0.7,0.9c0,0,0,0,0,0.1c-0.2,0.3-0.4,0.7-0.6,1
			c-0.1,0.1-0.1,0.2-0.1,0.3c-0.1,0.3-0.2,0.5-0.3,0.8c0,0.1-0.1,0.3-0.1,0.4c-0.1,0.3-0.1,0.5-0.2,0.8c0,0.1,0,0.2-0.1,0.4
			c-0.1,0.4-0.1,0.8-0.1,1.2c0,11.1,0,84.5,0,84.5C69.6,66.5,79.4,34.9,83.5,23.8L83.5,23.8z"/>
		<path fill="#E6A06B" d="M100.2,41.6c0,0-0.1,0.1-0.1,0.1c-0.2,0.2-0.5,0.4-0.7,0.6c-0.1,0.1-0.1,0.1-0.2,0.2
			c-0.2,0.2-0.4,0.4-0.6,0.6c-0.1,0.1-0.2,0.2-0.2,0.3c-0.2,0.2-0.3,0.4-0.5,0.5c-0.1,0.1-0.2,0.2-0.2,0.3c-0.1,0.2-0.3,0.4-0.4,0.6
			c-0.1,0.1-0.2,0.2-0.2,0.4c-0.1,0.2-0.2,0.4-0.3,0.6c-0.1,0.1-0.1,0.3-0.2,0.4c-0.1,0.2-0.2,0.4-0.3,0.6c-0.1,0.1-0.1,0.3-0.2,0.4
			c-0.1,0.2-0.1,0.4-0.2,0.6c0,0.1-0.1,0.3-0.1,0.4c-0.1,0.2-0.1,0.5-0.1,0.7c0,0.1,0,0.2-0.1,0.4c0,0.4-0.1,0.8-0.1,1.2
			c0,12,0,70,0,70c2.1-48.6,7.8-71.1,11.8-81C104.8,39.2,102.3,40.1,100.2,41.6z"/>
		<path fill="#E6A06B" d="M137,104.7C137,104.7,137,104.7,137,104.7c-0.4-0.1-0.8-0.1-1.2-0.1c0,0-0.1,0-0.1,0c-0.4,0-0.7,0-1.1,0
			c-0.1,0-0.1,0-0.2,0c-0.3,0-0.7,0-1,0.1c-0.1,0-0.2,0-0.2,0c-0.3,0-0.7,0.1-1,0.2c-0.1,0-0.2,0-0.2,0.1c-0.3,0.1-0.6,0.2-1,0.3
			c-0.1,0-0.1,0-0.2,0.1c-0.3,0.1-0.7,0.3-1,0.4c0,0-0.1,0-0.1,0.1c-0.7,0.4-1.5,0.8-2.1,1.3c-0.1,0-0.1,0.1-0.1,0.1
			c-0.3,0.2-0.5,0.4-0.8,0.7c-0.1,0.1-0.2,0.2-0.3,0.3c-0.2,0.2-0.4,0.4-0.6,0.6c-0.1,0.1-0.2,0.3-0.3,0.4c-0.2,0.2-0.3,0.4-0.5,0.7
			c-0.1,0.2-0.2,0.3-0.3,0.5c-0.1,0.2-0.3,0.5-0.4,0.7c-0.1,0.2-0.2,0.3-0.2,0.5c-0.1,0.3-0.2,0.5-0.3,0.8c-0.1,0.2-0.1,0.4-0.2,0.6
			c-0.1,0.3-0.2,0.6-0.2,0.9c0,0.2-0.1,0.4-0.1,0.6c-0.1,0.3-0.1,0.7-0.2,1.1c0,0.2-0.1,0.4-0.1,0.5c-0.1,0.6-0.1,1.1-0.1,1.7
			c0,17.9,0,41,0,41C125,132.1,132,114.3,137,104.7L137,104.7z"/>
		<path fill="#E6A06B" d="M97,149.3c-3.8-5.1-16.4,2.2-33.2,4.7c-16.7,2.5-43.6-7.4-40.2-0.8C29.6,164.7,100.9,154.4,97,149.3z"/>
		<path fill="#8E8179" d="M87.8,276h18h0.6c1.9,0,3.4-1.5,3.4-3.4v-9.8c0-1.9-1.5-3.4-3.4-3.4h-0.6h-18V276z"/>
		<path fill="#8E8179" d="M59.4,276v-16.7H40.2c-0.1,0-0.3,0-0.4,0c-1.7,0.2-3,1.6-3,3.4v9.8c0,1.7,1.3,3.2,3,3.4c0.1,0,0.3,0,0.4,0
			H59.4z"/>
		<polygon fill="#645E57" points="59.4,259.3 59.4,276 59.4,278.5 68,278.5 87.8,278.5 87.8,276 87.8,259.3 87.8,256.8 71,256.8 
			59.4,256.8 		"/>
		<path fill="#68A99B" d="M103,461.4H40.5c-2.2,0-4.3-0.5-6.2-1.5c-3.9,27.4-2.1,73.6-2.1,73.6h84.8c0.7-13.4-3.4-54.9-5.5-74.9
			C109.1,460.3,106.2,461.4,103,461.4z"/>
		<path fill="#EEB744" d="M63,433.4H40.5c-0.2,0-0.5,0-0.7,0c-7.4,0.4-13.3,6.5-13.3,14c0,5.5,3.2,10.2,7.8,12.5
			c1.9,0.9,4,1.5,6.2,1.5H103c3.2,0,6.1-1.1,8.5-2.9c3.4-2.6,5.5-6.6,5.5-11.1c0-6.8-4.8-12.4-11.2-13.7c-0.9-0.2-1.8-0.3-2.8-0.3
			H63z"/>
	</g>
</g>
<g id="Designed_by_Vecteezy">
</g>
</svg>
