<?xml version="1.0" encoding="utf-8"?>
<!-- Generator: Adobe Illustrator 18.0.0, SVG Export Plug-In . SVG Version: 6.00 Build 0)  -->
<!DOCTYPE svg PUBLIC "-//W3C//DTD SVG 1.1//EN" "http://www.w3.org/Graphics/SVG/1.1/DTD/svg11.dtd">
<svg version="1.1" xmlns="http://www.w3.org/2000/svg" xmlns:xlink="http://www.w3.org/1999/xlink" x="0px" y="0px"
	 viewBox="0 0 249 707.9" enable-background="new 0 0 249 707.9" xml:space="preserve">
<g id="_x31_">
	<g>
		<path fill="#F9DA8D" d="M197.1,125c-0.4-7.2-5.3-11.4-10.6-12.2l0,0c0,0,0,0,0,0c-0.4-0.1-0.8-0.1-1.2-0.1c0,0-0.1,0-0.1,0
			c-0.4,0-0.7,0-1.1,0c-0.1,0-0.1,0-0.2,0c-0.3,0-0.7,0-1,0.1c-0.1,0-0.2,0-0.2,0c-0.3,0-0.7,0.1-1,0.2c-0.1,0-0.2,0-0.2,0.1
			c-0.3,0.1-0.6,0.2-1,0.3c-0.1,0-0.1,0-0.2,0.1c-0.3,0.1-0.7,0.3-1,0.4c0,0-0.1,0-0.1,0.1c-0.7,0.4-1.5,0.8-2.1,1.3
			c-0.1,0-0.1,0.1-0.1,0.1c-0.3,0.2-0.5,0.4-0.8,0.7c-0.1,0.1-0.2,0.2-0.3,0.3c-0.2,0.2-0.4,0.4-0.6,0.6c-0.1,0.1-0.2,0.3-0.3,0.4
			c-0.2,0.2-0.3,0.4-0.5,0.7c-0.1,0.2-0.2,0.3-0.3,0.5c-0.1,0.2-0.3,0.5-0.4,0.7c-0.1,0.2-0.2,0.3-0.2,0.5c-0.1,0.3-0.2,0.5-0.3,0.8
			c-0.1,0.2-0.1,0.4-0.2,0.6c-0.1,0.3-0.2,0.6-0.2,0.9c0,0.2-0.1,0.4-0.1,0.6c-0.1,0.3-0.1,0.7-0.2,1.1c0,0.2-0.1,0.4-0.1,0.5
			c-0.1,0.6-0.1,1.1-0.1,1.7c0,17.9,0,41,0,41h-5.1c0,0,1.7-87.1,0-106.7c-0.8-9-5.5-12.6-10.4-12.7v0h0c-2.5-0.1-5.1,0.8-7.2,2.3
			c0,0-0.1,0.1-0.1,0.1c-0.2,0.2-0.5,0.4-0.7,0.6c-0.1,0.1-0.1,0.1-0.2,0.2c-0.2,0.2-0.4,0.4-0.6,0.6c-0.1,0.1-0.2,0.2-0.2,0.3
			c-0.2,0.2-0.3,0.4-0.5,0.5c-0.1,0.1-0.2,0.2-0.2,0.3c-0.1,0.2-0.3,0.4-0.4,0.6c-0.1,0.1-0.2,0.2-0.2,0.4c-0.1,0.2-0.2,0.4-0.3,0.6
			c-0.1,0.1-0.1,0.3-0.2,0.4c-0.1,0.2-0.2,0.4-0.3,0.6c-0.1,0.1-0.1,0.3-0.2,0.4c-0.1,0.2-0.1,0.4-0.2,0.6c0,0.1-0.1,0.3-0.1,0.4
			c-0.1,0.2-0.1,0.5-0.1,0.7c0,0.1,0,0.2-0.1,0.4c0,0.4-0.1,0.8-0.1,1.2c0,12,0,70,0,70h-5.1c0,0,0-66.6,0-85.4
			c0-7-3.1-10.3-6.9-11.2l0,0c0,0,0,0,0,0c-0.4-0.1-0.8-0.1-1.2-0.2c0,0-0.1,0-0.1,0c-0.4,0-0.7,0-1.1,0c-0.1,0-0.2,0-0.3,0
			c-0.3,0-0.7,0-1,0.1c-0.1,0-0.2,0-0.2,0c-0.8,0.1-1.7,0.3-2.5,0.6c-0.1,0-0.1,0-0.2,0.1c-0.3,0.1-0.7,0.3-1,0.4
			c-0.1,0-0.2,0.1-0.3,0.1c-0.3,0.1-0.6,0.3-0.9,0.5c-0.1,0.1-0.2,0.1-0.3,0.1c-0.4,0.2-0.7,0.4-1.1,0.7c0,0,0,0,0,0
			c-0.4,0.2-0.7,0.5-1,0.8c-0.1,0.1-0.2,0.1-0.2,0.2c-0.2,0.2-0.5,0.4-0.7,0.6c-0.1,0.1-0.2,0.2-0.3,0.3c-0.2,0.2-0.4,0.4-0.6,0.7
			c-0.1,0.1-0.2,0.2-0.2,0.3c-0.2,0.3-0.5,0.6-0.7,0.9c0,0,0,0,0,0.1c-0.2,0.3-0.4,0.7-0.6,1c-0.1,0.1-0.1,0.2-0.1,0.3
			c-0.1,0.3-0.2,0.5-0.3,0.8c0,0.1-0.1,0.3-0.1,0.4c-0.1,0.3-0.1,0.5-0.2,0.8c0,0.1,0,0.2-0.1,0.4c-0.1,0.4-0.1,0.8-0.1,1.2
			c0,11.1,0,84.5,0,84.5h-7.7c0,0,0-56.3,0-70.9c0-7.8-5.9-10.6-11.5-9.8c0,0,0,0,0,0c0,0,0,0,0,0c-0.9,0.1-1.8,0.4-2.6,0.7
			c0,0,0,0,0,0c-0.2,0.1-0.4,0.2-0.6,0.3c-0.1,0-0.2,0.1-0.2,0.1c-0.2,0.1-0.4,0.2-0.5,0.3c-0.1,0.1-0.2,0.1-0.3,0.2
			c-0.2,0.1-0.3,0.2-0.5,0.3c-0.1,0.1-0.2,0.1-0.3,0.2c-0.1,0.1-0.3,0.2-0.4,0.3c-0.1,0.1-0.2,0.2-0.3,0.3c-0.1,0.1-0.2,0.2-0.4,0.3
			c-0.1,0.1-0.2,0.2-0.3,0.3c-0.1,0.1-0.2,0.2-0.3,0.3c-0.1,0.1-0.2,0.2-0.3,0.4c-0.1,0.1-0.2,0.2-0.3,0.4c-0.1,0.1-0.2,0.3-0.3,0.4
			c-0.1,0.1-0.2,0.2-0.2,0.4c-0.1,0.1-0.2,0.3-0.2,0.5c-0.1,0.1-0.1,0.3-0.2,0.4c-0.1,0.2-0.1,0.3-0.2,0.5c-0.1,0.1-0.1,0.3-0.2,0.4
			c-0.1,0.2-0.1,0.4-0.2,0.6c0,0.1-0.1,0.3-0.1,0.4c0,0.2-0.1,0.4-0.1,0.7c0,0.1,0,0.2-0.1,0.3c0,0.3-0.1,0.7-0.1,1.1
			c0,12,0,70,0,70h-7.4c0,0,0-38.4,0-54.6c0-8.6-6-11.9-11.9-11.1v0c0,0,0,0,0,0c-0.2,0-0.4,0.1-0.7,0.1c-0.1,0-0.2,0-0.4,0.1
			c-0.2,0-0.4,0.1-0.6,0.2c-0.1,0-0.3,0.1-0.4,0.1c-0.2,0.1-0.4,0.1-0.6,0.2c-0.1,0-0.3,0.1-0.4,0.2c-0.2,0.1-0.4,0.1-0.5,0.2
			c-0.1,0.1-0.3,0.1-0.4,0.2c-0.2,0.1-0.3,0.2-0.5,0.3c-0.1,0.1-0.3,0.2-0.4,0.2c-0.2,0.1-0.3,0.2-0.5,0.3c-0.1,0.1-0.3,0.2-0.4,0.3
			c-0.1,0.1-0.3,0.2-0.4,0.3c-0.1,0.1-0.3,0.2-0.4,0.3c-0.1,0.1-0.3,0.2-0.4,0.3c-0.1,0.1-0.3,0.2-0.4,0.4c-0.1,0.1-0.2,0.2-0.4,0.4
			c-0.1,0.1-0.3,0.3-0.4,0.4c-0.1,0.1-0.2,0.3-0.3,0.4c-0.1,0.2-0.2,0.3-0.4,0.5c-0.1,0.1-0.2,0.3-0.3,0.4c-0.1,0.2-0.2,0.3-0.3,0.5
			c-0.1,0.1-0.2,0.3-0.3,0.4c-0.1,0.2-0.2,0.4-0.3,0.6c-0.1,0.1-0.1,0.3-0.2,0.4c-0.1,0.2-0.2,0.4-0.2,0.6c-0.1,0.1-0.1,0.3-0.2,0.4
			c-0.1,0.2-0.1,0.5-0.2,0.8c0,0.1-0.1,0.3-0.1,0.4c-0.1,0.4-0.2,0.8-0.2,1.2c-1.7,13.7-3.4,115.3,0,122.1
			c2.3,4.7,11.2,24.7,30.4,37.8v25.3l-0.6-0.1c-1.7-0.1-3.3,1.2-3.4,2.9l-0.1,1c-0.1,1.7,1.2,3.3,2.9,3.4l1.2,0.1v12.7l-1.1,0
			c-1.8,0-3.1,1.5-3.1,3.2l0,1c0,1.8,1.5,3.1,3.2,3.1l1,0v5.2l-0.8,0c-1.7-0.1-3.2,1.2-3.4,3l-0.1,1c-0.1,1.7,1.2,3.2,3,3.4l1.2,0.1
			v199.5H83v211.8h78V496.8h-5.7V301.2l0.1,0c1.7,0.1,3.2-1.2,3.4-3l0.1-1c0.1-1.7-1.2-3.3-3-3.4l-0.6,0v-10.2l0.5,0
			c1.8,0,3.1-1.5,3.1-3.2l0-1c0-1.8-1.5-3.1-3.2-3.1l-0.4,0v-6.5l0,0c1.7,0.1,3.3-1.2,3.4-2.9l0.1-1c0.1-1.7-1.2-3.3-2.9-3.4l-0.6,0
			v-23c28.3-10.7,41.2-37.1,41.8-46.1C198,181.4,198,141.2,197.1,125z"/>
	</g>
	<g>
		<path fill="#EDB886" d="M113,276.9l36.7-0.6v-6.5l-35.2-2.7C114,270.1,113.5,273.4,113,276.9z"/>
		<path fill="#EDB886" d="M55.2,66.7c0.1-0.1,0.2-0.3,0.3-0.4C55.4,66.4,55.3,66.5,55.2,66.7z"/>
		<path fill="#EDB886" d="M59.9,62.4c0.2-0.1,0.3-0.2,0.5-0.3C60.2,62.3,60.1,62.3,59.9,62.4z"/>
		<path fill="#EDB886" d="M88.1,48.7c0.2-0.1,0.3-0.2,0.5-0.3C88.4,48.5,88.3,48.6,88.1,48.7z"/>
		<path fill="#EDB886" d="M59,63c0.2-0.1,0.3-0.2,0.5-0.3C59.3,62.8,59.2,62.9,59,63z"/>
		<path fill="#EDB886" d="M112.2,41.5c0.1-0.3,0.1-0.5,0.2-0.8C112.4,41,112.3,41.3,112.2,41.5z"/>
		<path fill="#EDB886" d="M112.5,40.3c0.1-0.3,0.2-0.5,0.3-0.8C112.7,39.8,112.6,40.1,112.5,40.3z"/>
		<path fill="#EDB886" d="M113.6,38.1c0.2-0.3,0.4-0.6,0.7-0.9C114,37.5,113.8,37.8,113.6,38.1z"/>
		<path fill="#EDB886" d="M111.3,291.6l38.4,2.3v-10.2l-37.6,0.6C111.8,286.7,111.5,289.1,111.3,291.6z"/>
		<path fill="#EDB886" d="M58.1,63.6c0.1-0.1,0.3-0.2,0.4-0.3C58.4,63.3,58.3,63.4,58.1,63.6z"/>
		<path fill="#EDB886" d="M90.3,47.6c0.8-0.3,1.7-0.5,2.6-0.7C92,47.1,91.2,47.3,90.3,47.6z"/>
		<path fill="#EDB886" d="M55.8,65.8c0.1-0.1,0.2-0.3,0.3-0.4C56,65.5,55.9,65.7,55.8,65.8z"/>
		<path fill="#EDB886" d="M57.3,64.2c0.1-0.1,0.3-0.2,0.4-0.3C57.6,64,57.4,64.1,57.3,64.2z"/>
		<path fill="#EDB886" d="M56.5,65c0.1-0.1,0.2-0.2,0.4-0.4C56.8,64.7,56.7,64.8,56.5,65z"/>
		<path fill="#EDB886" d="M61.8,61.6c0.2-0.1,0.4-0.1,0.6-0.2C62.2,61.5,62,61.5,61.8,61.6z"/>
		<path fill="#EDB886" d="M63.7,61.1c0.2,0,0.4-0.1,0.7-0.1C64.1,61,63.9,61.1,63.7,61.1z"/>
		<path fill="#EDB886" d="M83.8,54.7c0-0.1,0.1-0.3,0.1-0.4C83.9,54.4,83.9,54.5,83.8,54.7z"/>
		<path fill="#EDB886" d="M83.7,55.7c0-0.1,0-0.2,0.1-0.3C83.7,55.4,83.7,55.6,83.7,55.7z"/>
		<path fill="#EDB886" d="M88.9,48.3c0.2-0.1,0.3-0.2,0.5-0.3C89.2,48.1,89.1,48.2,88.9,48.3z"/>
		<path fill="#EDB886" d="M54.1,68.6c0.1-0.2,0.1-0.3,0.2-0.4C54.2,68.3,54.2,68.5,54.1,68.6z"/>
		<path fill="#EDB886" d="M54.6,67.6c0.1-0.1,0.2-0.3,0.3-0.4C54.8,67.3,54.7,67.5,54.6,67.6z"/>
		<path fill="#EDB886" d="M60.8,62c0.2-0.1,0.3-0.2,0.5-0.2C61.2,61.8,61,61.9,60.8,62z"/>
		<path fill="#EDB886" d="M62.8,61.3c0.2-0.1,0.4-0.1,0.6-0.2C63.1,61.2,63,61.3,62.8,61.3z"/>
		<path fill="#EDB886" d="M84.1,53.7c0-0.1,0.1-0.3,0.2-0.4C84.2,53.5,84.2,53.6,84.1,53.7z"/>
		<path fill="#EDB886" d="M53.4,70.9c0-0.1,0.1-0.3,0.1-0.4C53.5,70.6,53.4,70.7,53.4,70.9z"/>
		<path fill="#EDB886" d="M112.1,43.1c0-0.4,0-0.8,0.1-1.2C112.1,42.3,112.1,42.7,112.1,43.1z"/>
		<path fill="#EDB886" d="M89.7,47.9c0.2-0.1,0.4-0.2,0.6-0.3C90.1,47.7,89.9,47.8,89.7,47.9z"/>
		<path fill="#EDB886" d="M53.7,69.7c0-0.2,0.1-0.3,0.2-0.4C53.8,69.4,53.7,69.6,53.7,69.7z"/>
		<path fill="#EDB886" d="M191.5,125c-0.4-7.2-5.3-11.4-10.6-12.2c-5,9.6-12,27.4-14.1,54h-5.1c0,0,1.7-87.1,0-106.7
			c-0.8-9-5.5-12.6-10.4-12.7c-4,10-9.7,32.4-11.8,81h-5.1c0,0,0-66.6,0-85.4c0-7-3.1-10.3-6.9-11.2c-4.1,11.1-13.9,42.7-15.3,95.7
			h-7.7c0,0,0-56.3,0-70.9c0-7.8-5.9-10.6-11.5-9.8c-2.1,14.4-8.8,62.7-9.3,79.8h-7.4c0,0,0-38.4,0-54.6c0-8.6-6-11.9-11.9-11.1
			c0,0-11.9,86.2,0,120.4c11.9,34.1,36.7,53.8,65.7,53.8c12.8,0,2.1,6-8.3,10.2c-2.1,0.9-4.1,6.2-5.8,14.4l33.8,2.6v-23
			c28.3-10.7,41.2-37.1,41.8-46.1C192.3,181.4,192.3,141.2,191.5,125z M67.5,161.3c-3.4-6.6,23.5,3.3,40.2,0.8
			c16.7-2.5,29.4-9.8,33.2-4.7C144.7,162.6,73.4,172.9,67.5,161.3z M136.7,189.4c-12.1,5.2-35.6,42.6-32.3,23.8
			c3.3-18.8,45.5-52.8,46.1-47.6C151.3,173.6,148.8,184.2,136.7,189.4z"/>
		<path fill="#EDB886" d="M113,39.2c0.2-0.4,0.4-0.7,0.6-1C113.3,38.5,113.2,38.9,113,39.2z"/>
		<path fill="#EDB886" d="M86,50.5c0.1-0.1,0.2-0.2,0.3-0.3C86.2,50.3,86.1,50.4,86,50.5z"/>
		<path fill="#EDB886" d="M140.6,53.7c0.1-0.2,0.2-0.4,0.3-0.6C140.8,53.3,140.7,53.5,140.6,53.7z"/>
		<path fill="#EDB886" d="M141.1,52.8c0.1-0.2,0.3-0.4,0.4-0.6C141.4,52.4,141.2,52.6,141.1,52.8z"/>
		<path fill="#EDB886" d="M139.8,55.8c0.1-0.2,0.1-0.4,0.2-0.6C139.9,55.3,139.8,55.5,139.8,55.8z"/>
		<path fill="#EDB886" d="M140.1,54.7c0.1-0.2,0.2-0.4,0.3-0.6C140.3,54.3,140.2,54.5,140.1,54.7z"/>
		<path fill="#EDB886" d="M141.7,51.9c0.2-0.2,0.3-0.4,0.5-0.5C142,51.5,141.9,51.7,141.7,51.9z"/>
		<path fill="#EDB886" d="M139.5,56.9c0-0.2,0.1-0.5,0.1-0.7C139.6,56.4,139.6,56.7,139.5,56.9z"/>
		<path fill="#EDB886" d="M166.9,123.6c0-0.4,0.1-0.7,0.2-1.1C167,122.9,166.9,123.3,166.9,123.6z"/>
		<path fill="#EDB886" d="M85.4,51.2c0.1-0.1,0.2-0.2,0.3-0.4C85.6,51,85.5,51.1,85.4,51.2z"/>
		<path fill="#EDB886" d="M166.7,125.9c0-0.6,0-1.2,0.1-1.7C166.8,124.7,166.7,125.3,166.7,125.9z"/>
		<path fill="#EDB886" d="M144,49.7c2.1-1.5,4.7-2.4,7.2-2.3C148.7,47.3,146.1,48.2,144,49.7z"/>
		<path fill="#EDB886" d="M142.4,51.1c0.2-0.2,0.4-0.4,0.6-0.6C142.8,50.7,142.6,50.9,142.4,51.1z"/>
		<path fill="#EDB886" d="M143.2,50.4c0.2-0.2,0.5-0.4,0.7-0.6C143.7,50,143.4,50.2,143.2,50.4z"/>
		<path fill="#EDB886" d="M106.1,397.4c0.5,21.2,1,65.1,1.3,99.5h42.2V301.2l-39.1-2.3C107.2,333.8,105.6,376.6,106.1,397.4z"/>
		<path fill="#EDB886" d="M114.5,36.9c0.2-0.2,0.4-0.4,0.6-0.7C114.9,36.5,114.7,36.7,114.5,36.9z"/>
		<path fill="#EDB886" d="M118.6,33.5c0.3-0.2,0.6-0.3,0.9-0.5C119.2,33.2,118.9,33.3,118.6,33.5z"/>
		<path fill="#EDB886" d="M119.8,32.9c0.3-0.1,0.7-0.3,1-0.4C120.5,32.6,120.1,32.8,119.8,32.9z"/>
		<path fill="#EDB886" d="M139.4,58.4c0-0.4,0-0.8,0.1-1.2C139.4,57.7,139.4,58,139.4,58.4z"/>
		<path fill="#EDB886" d="M86.7,49.8c0.1-0.1,0.2-0.2,0.4-0.3C86.9,49.6,86.8,49.7,86.7,49.8z"/>
		<path fill="#EDB886" d="M117.3,34.3c0.3-0.2,0.7-0.5,1.1-0.7C118,33.9,117.6,34.1,117.3,34.3z"/>
		<path fill="#EDB886" d="M116.3,35.1c0.3-0.3,0.7-0.5,1-0.8C116.9,34.6,116.6,34.8,116.3,35.1z"/>
		<path fill="#EDB886" d="M124.9,31.7c0.4,0,0.7,0,1.1,0C125.7,31.7,125.3,31.7,124.9,31.7z"/>
		<path fill="#EDB886" d="M126.1,31.7c0.4,0,0.8,0.1,1.2,0.2C126.9,31.8,126.5,31.8,126.1,31.7z"/>
		<path fill="#EDB886" d="M167.2,122c0.1-0.3,0.1-0.6,0.2-0.9C167.3,121.4,167.2,121.7,167.2,122z"/>
		<path fill="#EDB886" d="M123.7,31.8c0.3,0,0.7-0.1,1-0.1C124.3,31.7,124,31.8,123.7,31.8z"/>
		<path fill="#EDB886" d="M121,32.4c0.8-0.3,1.6-0.5,2.5-0.6C122.6,32,121.8,32.2,121,32.4z"/>
		<path fill="#EDB886" d="M170.4,116c0.2-0.2,0.5-0.5,0.8-0.7C170.9,115.5,170.6,115.8,170.4,116z"/>
		<path fill="#EDB886" d="M84.9,52c0.1-0.1,0.2-0.3,0.2-0.4C85.1,51.7,85,51.9,84.9,52z"/>
		<path fill="#EDB886" d="M115.3,36c0.2-0.2,0.5-0.4,0.7-0.6C115.8,35.5,115.6,35.7,115.3,36z"/>
		<path fill="#EDB886" d="M174.7,113.3c0.3-0.1,0.6-0.2,1-0.3C175.4,113.1,175.1,113.2,174.7,113.3z"/>
		<path fill="#EDB886" d="M176,113c0.3-0.1,0.6-0.1,1-0.2C176.6,112.8,176.3,112.9,176,113z"/>
		<path fill="#EDB886" d="M171.3,115.2c0.7-0.5,1.4-1,2.1-1.3C172.7,114.2,171.9,114.7,171.3,115.2z"/>
		<path fill="#EDB886" d="M173.5,113.8c0.3-0.2,0.7-0.3,1-0.4C174.2,113.5,173.9,113.7,173.5,113.8z"/>
		<path fill="#EDB886" d="M84.5,52.8c0.1-0.1,0.1-0.3,0.2-0.4C84.6,52.6,84.5,52.7,84.5,52.8z"/>
		<path fill="#EDB886" d="M177.2,112.8c0.3,0,0.7-0.1,1-0.1C177.8,112.7,177.5,112.7,177.2,112.8z"/>
		<path fill="#EDB886" d="M179.6,112.7c0.4,0,0.8,0.1,1.2,0.1C180.4,112.8,180,112.7,179.6,112.7z"/>
		<path fill="#EDB886" d="M178.4,112.7c0.4,0,0.7,0,1.1,0C179.1,112.7,178.8,112.7,178.4,112.7z"/>
		<path fill="#EDB886" d="M167.6,120.5c0.1-0.3,0.2-0.5,0.3-0.8C167.8,120,167.7,120.2,167.6,120.5z"/>
		<path fill="#EDB886" d="M168.1,119.2c0.1-0.2,0.2-0.5,0.4-0.7C168.4,118.7,168.2,119,168.1,119.2z"/>
		<path fill="#EDB886" d="M169.5,117c0.2-0.2,0.4-0.4,0.6-0.6C169.9,116.5,169.7,116.7,169.5,117z"/>
		<path fill="#EDB886" d="M87.4,49.2c0.1-0.1,0.3-0.2,0.4-0.3C87.6,49,87.5,49.1,87.4,49.2z"/>
		<path fill="#EDB886" d="M168.8,118c0.1-0.2,0.3-0.5,0.5-0.7C169.1,117.6,168.9,117.8,168.8,118z"/>
		<path fill="#E6A06B" d="M106.1,397.4c-0.5-20.7,1.1-63.5,4.4-98.5l-26.9-1.6v199.5h23.8C107.1,462.5,106.6,418.5,106.1,397.4z"/>
		<path fill="#E6A06B" d="M112.1,284.3l-28.4,0.5v5.2l27.6,1.6C111.5,289.1,111.8,286.7,112.1,284.3z"/>
		<path fill="#E6A06B" d="M121.7,245.4c10.4-4.3,21.2-10.2,8.3-10.2c-29,0-53.8-19.6-65.7-53.8c-11.9-34.1,0-120.4,0-120.4v0
			c0,0,0,0,0,0c-0.2,0-0.4,0.1-0.7,0.1c-0.1,0-0.2,0-0.4,0.1c-0.2,0-0.4,0.1-0.6,0.2c-0.1,0-0.3,0.1-0.4,0.1
			c-0.2,0.1-0.4,0.1-0.6,0.2c-0.1,0-0.3,0.1-0.4,0.2c-0.2,0.1-0.4,0.1-0.5,0.2c-0.1,0.1-0.3,0.1-0.4,0.2c-0.2,0.1-0.3,0.2-0.5,0.3
			c-0.1,0.1-0.3,0.2-0.4,0.2c-0.2,0.1-0.3,0.2-0.5,0.3c-0.1,0.1-0.3,0.2-0.4,0.3c-0.1,0.1-0.3,0.2-0.4,0.3c-0.1,0.1-0.3,0.2-0.4,0.3
			c-0.1,0.1-0.3,0.2-0.4,0.3c-0.1,0.1-0.3,0.2-0.4,0.4c-0.1,0.1-0.2,0.2-0.4,0.4c-0.1,0.1-0.3,0.3-0.4,0.4c-0.1,0.1-0.2,0.3-0.3,0.4
			c-0.1,0.2-0.2,0.3-0.4,0.5c-0.1,0.1-0.2,0.3-0.3,0.4c-0.1,0.2-0.2,0.3-0.3,0.5c-0.1,0.1-0.2,0.3-0.3,0.4c-0.1,0.2-0.2,0.4-0.3,0.6
			c-0.1,0.1-0.1,0.3-0.2,0.4c-0.1,0.2-0.2,0.4-0.2,0.6c-0.1,0.1-0.1,0.3-0.2,0.4c-0.1,0.2-0.1,0.5-0.2,0.8c0,0.1-0.1,0.3-0.1,0.4
			c-0.1,0.4-0.2,0.8-0.2,1.2c-1.7,13.7-3.4,115.3,0,122.1c2.3,4.7,11.2,24.7,30.4,37.8v25.3l32.2,2.5
			C117.6,251.6,119.5,246.3,121.7,245.4z"/>
		<path fill="#E6A06B" d="M114.5,267.1l-30.8-2.4v12.7l29.4-0.5C113.5,273.4,114,270.1,114.5,267.1z"/>
		<path fill="#E6A06B" d="M104.4,213.2c-3.3,18.8,20.2-18.6,32.3-23.8c12.1-5.2,14.6-15.9,13.8-23.8
			C149.9,160.5,107.7,194.4,104.4,213.2z"/>
		<path fill="#E6A06B" d="M92.9,46.9C92.9,46.9,92.9,46.9,92.9,46.9c-0.9,0.1-1.8,0.4-2.6,0.7c0,0,0,0,0,0c-0.2,0.1-0.4,0.2-0.6,0.3
			c-0.1,0-0.2,0.1-0.2,0.1c-0.2,0.1-0.4,0.2-0.5,0.3c-0.1,0.1-0.2,0.1-0.3,0.2c-0.2,0.1-0.3,0.2-0.5,0.3c-0.1,0.1-0.2,0.1-0.3,0.2
			c-0.1,0.1-0.3,0.2-0.4,0.3c-0.1,0.1-0.2,0.2-0.3,0.3c-0.1,0.1-0.2,0.2-0.4,0.3c-0.1,0.1-0.2,0.2-0.3,0.3c-0.1,0.1-0.2,0.2-0.3,0.3
			c-0.1,0.1-0.2,0.2-0.3,0.4c-0.1,0.1-0.2,0.2-0.3,0.4c-0.1,0.1-0.2,0.3-0.3,0.4c-0.1,0.1-0.2,0.2-0.2,0.4c-0.1,0.1-0.2,0.3-0.2,0.5
			c-0.1,0.1-0.1,0.3-0.2,0.4c-0.1,0.2-0.1,0.3-0.2,0.5c-0.1,0.1-0.1,0.3-0.2,0.4C84,53.9,84,54.1,84,54.3c0,0.1-0.1,0.3-0.1,0.4
			c0,0.2-0.1,0.4-0.1,0.7c0,0.1,0,0.2-0.1,0.3c0,0.3-0.1,0.7-0.1,1.1c0,12,0,70,0,70C84.1,109.6,90.9,61.4,92.9,46.9
			C92.9,46.9,92.9,46.9,92.9,46.9z"/>
		<path fill="#E6A06B" d="M127.3,31.9C127.3,31.9,127.3,31.9,127.3,31.9c-0.4-0.1-0.8-0.1-1.2-0.2c0,0-0.1,0-0.1,0
			c-0.4,0-0.7,0-1.1,0c-0.1,0-0.2,0-0.3,0c-0.3,0-0.7,0-1,0.1c-0.1,0-0.2,0-0.2,0c-0.8,0.1-1.7,0.3-2.5,0.6c-0.1,0-0.1,0-0.2,0.1
			c-0.3,0.1-0.7,0.3-1,0.4c-0.1,0-0.2,0.1-0.3,0.1c-0.3,0.1-0.6,0.3-0.9,0.5c-0.1,0.1-0.2,0.1-0.3,0.1c-0.4,0.2-0.7,0.4-1.1,0.7
			c0,0,0,0,0,0c-0.4,0.2-0.7,0.5-1,0.8c-0.1,0.1-0.2,0.1-0.2,0.2c-0.2,0.2-0.5,0.4-0.7,0.6c-0.1,0.1-0.2,0.2-0.3,0.3
			c-0.2,0.2-0.4,0.4-0.6,0.7c-0.1,0.1-0.2,0.2-0.2,0.3c-0.2,0.3-0.5,0.6-0.7,0.9c0,0,0,0,0,0.1c-0.2,0.3-0.4,0.7-0.6,1
			c-0.1,0.1-0.1,0.2-0.1,0.3c-0.1,0.3-0.2,0.5-0.3,0.8c0,0.1-0.1,0.3-0.1,0.4c-0.1,0.3-0.1,0.5-0.2,0.8c0,0.1,0,0.2-0.1,0.4
			c-0.1,0.4-0.1,0.8-0.1,1.2c0,11.1,0,84.5,0,84.5C113.5,74.6,123.2,43,127.3,31.9L127.3,31.9z"/>
		<path fill="#E6A06B" d="M151.2,47.4L151.2,47.4c-2.5-0.1-5.1,0.8-7.2,2.3c0,0-0.1,0.1-0.1,0.1c-0.2,0.2-0.5,0.4-0.7,0.6
			c-0.1,0.1-0.1,0.1-0.2,0.2c-0.2,0.2-0.4,0.4-0.6,0.6c-0.1,0.1-0.2,0.2-0.2,0.3c-0.2,0.2-0.3,0.4-0.5,0.5c-0.1,0.1-0.2,0.2-0.2,0.3
			c-0.1,0.2-0.3,0.4-0.4,0.6c-0.1,0.1-0.2,0.2-0.2,0.4c-0.1,0.2-0.2,0.4-0.3,0.6c-0.1,0.1-0.1,0.3-0.2,0.4c-0.1,0.2-0.2,0.4-0.3,0.6
			c-0.1,0.1-0.1,0.3-0.2,0.4c-0.1,0.2-0.1,0.4-0.2,0.6c0,0.1-0.1,0.3-0.1,0.4c-0.1,0.2-0.1,0.5-0.1,0.7c0,0.1,0,0.2-0.1,0.4
			c0,0.4-0.1,0.8-0.1,1.2c0,12,0,70,0,70C141.5,79.8,147.2,57.4,151.2,47.4L151.2,47.4z"/>
		<path fill="#E6A06B" d="M180.8,112.8C180.8,112.8,180.8,112.8,180.8,112.8c-0.4-0.1-0.8-0.1-1.2-0.1c0,0-0.1,0-0.1,0
			c-0.4,0-0.7,0-1.1,0c-0.1,0-0.1,0-0.2,0c-0.3,0-0.7,0-1,0.1c-0.1,0-0.2,0-0.2,0c-0.3,0-0.7,0.1-1,0.2c-0.1,0-0.2,0-0.2,0.1
			c-0.3,0.1-0.6,0.2-1,0.3c-0.1,0-0.1,0-0.2,0.1c-0.3,0.1-0.7,0.3-1,0.4c0,0-0.1,0-0.1,0.1c-0.7,0.4-1.5,0.8-2.1,1.3
			c0,0-0.1,0.1-0.1,0.1c-0.3,0.2-0.5,0.4-0.8,0.7c-0.1,0.1-0.2,0.2-0.3,0.3c-0.2,0.2-0.4,0.4-0.6,0.6c-0.1,0.1-0.2,0.3-0.3,0.4
			c-0.2,0.2-0.3,0.4-0.5,0.7c-0.1,0.2-0.2,0.3-0.3,0.5c-0.1,0.2-0.3,0.5-0.4,0.7c-0.1,0.2-0.2,0.3-0.2,0.5c-0.1,0.3-0.2,0.5-0.3,0.8
			c-0.1,0.2-0.1,0.4-0.2,0.6c-0.1,0.3-0.2,0.6-0.2,0.9c0,0.2-0.1,0.4-0.1,0.6c-0.1,0.3-0.1,0.7-0.2,1.1c0,0.2-0.1,0.4-0.1,0.5
			c-0.1,0.6-0.1,1.1-0.1,1.7c0,17.9,0,41,0,41C168.9,140.2,175.9,122.4,180.8,112.8L180.8,112.8z"/>
		<path fill="#E6A06B" d="M140.8,157.4c-3.8-5.1-16.4,2.2-33.2,4.7c-16.7,2.5-43.6-7.4-40.2-0.8C73.4,172.9,144.7,162.6,140.8,157.4
			z"/>
		<polygon fill="#4A4340" points="83.6,496.8 77.3,496.8 77.3,708.6 155.3,708.6 155.3,496.8 149.6,496.8 107.4,496.8 		"/>
		<path fill="#4A4340" d="M83.6,257.3l-0.6-0.1c-1.7-0.1-3.3,1.2-3.4,2.9l-0.1,1c-0.1,1.7,1.2,3.3,2.9,3.4l1.2,0.1l30.8,2.4
			l35.2,2.7l0,0c1.7,0.1,3.3-1.2,3.4-2.9l0.1-1c0.1-1.7-1.2-3.3-2.9-3.4l-0.6,0l-33.8-2.6L83.6,257.3z"/>
		<path fill="#4A4340" d="M83.6,277.4l-1.1,0c-1.8,0-3.1,1.5-3.1,3.2l0,1c0,1.8,1.5,3.1,3.2,3.1l1,0l28.4-0.5l37.6-0.6l0.5,0
			c1.8,0,3.1-1.5,3.1-3.2l0-1c0-1.8-1.5-3.1-3.2-3.1l-0.4,0l-36.7,0.6L83.6,277.4z"/>
		<path fill="#4A4340" d="M83.6,290l-0.8,0c-1.7-0.1-3.3,1.2-3.4,3l-0.1,1c-0.1,1.7,1.2,3.2,3,3.4l1.2,0.1l26.9,1.6l39.1,2.3l0.1,0
			c1.7,0.1,3.2-1.2,3.4-3l0.1-1c0.1-1.7-1.2-3.3-3-3.4l-0.6,0l-38.4-2.3L83.6,290z"/>
	</g>
</g>
<g id="Designed_by_Vecteezy">
</g>
</svg>
