<?xml version="1.0" encoding="utf-8"?>
<!-- Generator: Adobe Illustrator 18.0.0, SVG Export Plug-In . SVG Version: 6.00 Build 0)  -->
<!DOCTYPE svg PUBLIC "-//W3C//DTD SVG 1.1//EN" "http://www.w3.org/Graphics/SVG/1.1/DTD/svg11.dtd">
<svg version="1.1" xmlns="http://www.w3.org/2000/svg" xmlns:xlink="http://www.w3.org/1999/xlink" x="0px" y="0px"
	 viewBox="0 0 215.1 622.5" enable-background="new 0 0 215.1 622.5" xml:space="preserve">
<g id="_x31_">
	<g>
		<path fill="#F9DA8D" d="M190.2,131L190.2,131C190.2,131,190.2,131,190.2,131c-0.4-0.1-0.8-0.1-1.2-0.1c0,0-0.1,0-0.1,0
			c-0.4,0-0.7,0-1.1,0c-0.1,0-0.1,0-0.2,0c-0.3,0-0.7,0-1,0.1c-0.1,0-0.2,0-0.2,0c-0.3,0-0.7,0.1-1,0.2c-0.1,0-0.2,0-0.2,0.1
			c-0.3,0.1-0.6,0.2-1,0.3c-0.1,0-0.1,0-0.2,0.1c-0.3,0.1-0.7,0.3-1,0.4c0,0-0.1,0-0.1,0.1c-0.7,0.4-1.5,0.8-2.1,1.3
			c-0.1,0-0.1,0.1-0.1,0.1c-0.3,0.2-0.5,0.4-0.8,0.7c-0.1,0.1-0.2,0.2-0.3,0.3c-0.2,0.2-0.4,0.4-0.6,0.6c-0.1,0.1-0.2,0.3-0.3,0.4
			c-0.2,0.2-0.3,0.4-0.5,0.7c-0.1,0.2-0.2,0.3-0.3,0.5c-0.1,0.2-0.3,0.5-0.4,0.7c-0.1,0.2-0.2,0.3-0.2,0.5c-0.1,0.3-0.2,0.5-0.3,0.8
			c-0.1,0.2-0.1,0.4-0.2,0.6c-0.1,0.3-0.2,0.6-0.2,0.9c0,0.2-0.1,0.4-0.1,0.6c-0.1,0.3-0.1,0.7-0.2,1.1c0,0.2-0.1,0.4-0.1,0.5
			c-0.1,0.6-0.1,1.1-0.1,1.7c0,17.9,0,41,0,41H171c0,0,1.7-87.1,0-106.7c-0.8-9-5.5-12.6-10.4-12.7v0c0,0,0,0,0,0
			c-2.5-0.1-5.1,0.8-7.2,2.3c0,0-0.1,0.1-0.1,0.1c-0.2,0.2-0.5,0.4-0.7,0.6c-0.1,0.1-0.1,0.1-0.2,0.2c-0.2,0.2-0.4,0.4-0.6,0.6
			c-0.1,0.1-0.2,0.2-0.2,0.3c-0.2,0.2-0.3,0.4-0.5,0.5c-0.1,0.1-0.2,0.2-0.2,0.3c-0.1,0.2-0.3,0.4-0.4,0.6c-0.1,0.1-0.2,0.2-0.2,0.4
			c-0.1,0.2-0.2,0.4-0.3,0.6c-0.1,0.1-0.1,0.3-0.2,0.4c-0.1,0.2-0.2,0.4-0.3,0.6c-0.1,0.1-0.1,0.3-0.2,0.4c-0.1,0.2-0.1,0.4-0.2,0.6
			c0,0.1-0.1,0.3-0.1,0.4c-0.1,0.2-0.1,0.5-0.1,0.7c0,0.1,0,0.2-0.1,0.4c0,0.4-0.1,0.8-0.1,1.2c0,12,0,70,0,70h-5.1
			c0,0,0-66.6,0-85.4c0-7-3.1-10.3-6.9-11.2l0,0c0,0,0,0,0,0c-0.4-0.1-0.8-0.1-1.2-0.2c0,0-0.1,0-0.1,0c-0.4,0-0.7,0-1.1,0
			c-0.1,0-0.2,0-0.3,0c-0.3,0-0.7,0-1,0.1c-0.1,0-0.2,0-0.2,0c-0.8,0.1-1.7,0.3-2.5,0.6c-0.1,0-0.1,0-0.2,0.1
			c-0.3,0.1-0.7,0.3-1,0.4c-0.1,0-0.2,0.1-0.3,0.1c-0.3,0.1-0.6,0.3-0.9,0.5c-0.1,0.1-0.2,0.1-0.3,0.2c-0.4,0.2-0.7,0.4-1.1,0.7
			c0,0,0,0,0,0c-0.4,0.2-0.7,0.5-1,0.8c-0.1,0.1-0.2,0.1-0.2,0.2c-0.2,0.2-0.5,0.4-0.7,0.6c-0.1,0.1-0.2,0.2-0.3,0.3
			c-0.2,0.2-0.4,0.4-0.6,0.7c-0.1,0.1-0.2,0.2-0.2,0.3c-0.2,0.3-0.5,0.6-0.7,0.9c0,0,0,0,0,0.1c-0.2,0.3-0.4,0.7-0.6,1
			c-0.1,0.1-0.1,0.2-0.1,0.3c-0.1,0.3-0.2,0.5-0.3,0.8c0,0.1-0.1,0.3-0.1,0.4c-0.1,0.3-0.1,0.5-0.2,0.8c0,0.1,0,0.2-0.1,0.4
			c-0.1,0.4-0.1,0.8-0.1,1.2c0,11.1,0,84.5,0,84.5h-7.7c0,0,0-56.3,0-70.9c0-7.8-5.9-10.6-11.5-9.8v0c0,0,0,0,0,0
			c-0.9,0.1-1.8,0.4-2.6,0.7c0,0,0,0,0,0c-0.2,0.1-0.4,0.2-0.6,0.3c-0.1,0-0.2,0.1-0.2,0.1c-0.2,0.1-0.4,0.2-0.5,0.3
			c-0.1,0.1-0.2,0.1-0.3,0.2c-0.2,0.1-0.3,0.2-0.5,0.3c-0.1,0.1-0.2,0.1-0.3,0.2c-0.1,0.1-0.3,0.2-0.4,0.3c-0.1,0.1-0.2,0.2-0.3,0.3
			c-0.1,0.1-0.2,0.2-0.4,0.3c-0.1,0.1-0.2,0.2-0.3,0.3c-0.1,0.1-0.2,0.2-0.3,0.3c-0.1,0.1-0.2,0.2-0.3,0.4c-0.1,0.1-0.2,0.2-0.3,0.4
			c-0.1,0.1-0.2,0.3-0.3,0.4c-0.1,0.1-0.2,0.2-0.2,0.4c-0.1,0.1-0.2,0.3-0.2,0.4c-0.1,0.1-0.1,0.3-0.2,0.4c-0.1,0.2-0.1,0.3-0.2,0.5
			c-0.1,0.1-0.1,0.3-0.2,0.4c-0.1,0.2-0.1,0.4-0.2,0.6c0,0.1-0.1,0.3-0.1,0.4c0,0.2-0.1,0.4-0.1,0.7c0,0.1,0,0.2-0.1,0.3
			c0,0.3-0.1,0.7-0.1,1.1c0,12,0,70,0,70h-7.4c0,0,0-38.4,0-54.6c0-8.6-6-11.9-11.9-11.1v0c0,0,0,0,0,0c-0.2,0-0.4,0.1-0.7,0.1
			c-0.1,0-0.2,0-0.3,0.1c-0.2,0-0.4,0.1-0.6,0.2c-0.1,0-0.3,0.1-0.4,0.1c-0.2,0.1-0.4,0.1-0.6,0.2c-0.1,0-0.3,0.1-0.4,0.2
			c-0.2,0.1-0.4,0.1-0.5,0.2c-0.1,0.1-0.3,0.1-0.4,0.2c-0.2,0.1-0.3,0.2-0.5,0.3c-0.1,0.1-0.3,0.2-0.4,0.2c-0.2,0.1-0.3,0.2-0.5,0.3
			c-0.1,0.1-0.3,0.2-0.4,0.3c-0.1,0.1-0.3,0.2-0.4,0.3c-0.1,0.1-0.3,0.2-0.4,0.3c-0.1,0.1-0.3,0.2-0.4,0.3c-0.1,0.1-0.3,0.2-0.4,0.4
			c-0.1,0.1-0.2,0.2-0.4,0.4c-0.1,0.1-0.3,0.3-0.4,0.4c-0.1,0.1-0.2,0.3-0.3,0.4c-0.1,0.2-0.2,0.3-0.4,0.5c-0.1,0.1-0.2,0.3-0.3,0.4
			c-0.1,0.2-0.2,0.3-0.3,0.5c-0.1,0.1-0.2,0.3-0.3,0.4c-0.1,0.2-0.2,0.4-0.3,0.6c-0.1,0.1-0.1,0.3-0.2,0.4c-0.1,0.2-0.2,0.4-0.2,0.6
			c-0.1,0.1-0.1,0.3-0.2,0.4c-0.1,0.2-0.1,0.5-0.2,0.8c0,0.1-0.1,0.3-0.1,0.4c-0.1,0.4-0.2,0.8-0.2,1.2c-1.7,13.7-3.4,115.3,0,122.1
			C64.9,217,73.8,237,93,250.1v25.5H82.1v7.4h-7v32.7h6.2l-6.2,306.8h101.5l-5.5-306.8h6.2V283h-11v-7.4H159v-18.1
			c28.3-10.7,41.2-37.1,41.8-46.1c0.9-12,0.9-52.1,0-68.3C200.5,136,195.6,131.8,190.2,131z"/>
	</g>
	<g>
		<path fill="#EDB886" d="M57.1,89c0-0.1,0.1-0.3,0.1-0.4C57.2,88.8,57.1,88.9,57.1,89z"/>
		<path fill="#EDB886" d="M67.4,79.2c0.2,0,0.4-0.1,0.7-0.1C67.8,79.2,67.6,79.2,67.4,79.2z"/>
		<path fill="#EDB886" d="M170.9,140.1c0.1-0.3,0.1-0.6,0.2-0.9C171,139.5,170.9,139.8,170.9,140.1z"/>
		<path fill="#EDB886" d="M115.9,59.7c0.1-0.3,0.1-0.5,0.2-0.8C116.1,59.1,116,59.4,115.9,59.7z"/>
		<path fill="#EDB886" d="M116.3,58.5c0.1-0.3,0.2-0.5,0.3-0.8C116.4,58,116.3,58.2,116.3,58.5z"/>
		<path fill="#EDB886" d="M115.8,61.2c0-0.4,0-0.8,0.1-1.2C115.8,60.4,115.8,60.8,115.8,61.2z"/>
		<path fill="#EDB886" d="M143.8,72.8c0.1-0.2,0.2-0.4,0.3-0.6C144,72.4,143.9,72.6,143.8,72.8z"/>
		<path fill="#EDB886" d="M117.3,56.3c0.2-0.3,0.4-0.6,0.7-0.9C117.7,55.6,117.5,55.9,117.3,56.3z"/>
		<path fill="#EDB886" d="M118.2,55c0.2-0.2,0.4-0.4,0.6-0.7C118.6,54.6,118.4,54.8,118.2,55z"/>
		<path fill="#EDB886" d="M170.6,141.8c0-0.4,0.1-0.7,0.2-1.1C170.7,141,170.6,141.4,170.6,141.8z"/>
		<path fill="#EDB886" d="M116.7,57.4c0.2-0.4,0.4-0.7,0.6-1C117,56.7,116.9,57,116.7,57.4z"/>
		<path fill="#EDB886" d="M92.6,66.4c0.2-0.1,0.3-0.2,0.5-0.3C92.9,66.2,92.8,66.3,92.6,66.4z"/>
		<path fill="#EDB886" d="M90.4,68c0.1-0.1,0.2-0.2,0.4-0.3C90.6,67.8,90.5,67.9,90.4,68z"/>
		<path fill="#EDB886" d="M94,65.7c0.8-0.3,1.7-0.6,2.6-0.7C95.7,65.2,94.9,65.4,94,65.7z"/>
		<path fill="#EDB886" d="M89.7,68.6c0.1-0.1,0.2-0.2,0.3-0.3C89.9,68.4,89.8,68.5,89.7,68.6z"/>
		<path fill="#EDB886" d="M91.1,67.4c0.1-0.1,0.3-0.2,0.4-0.3C91.3,67.2,91.2,67.3,91.1,67.4z"/>
		<path fill="#EDB886" d="M171.8,137.3c0.1-0.2,0.2-0.5,0.4-0.7C172.1,136.9,172,137.1,171.8,137.3z"/>
		<path fill="#EDB886" d="M91.8,66.9c0.2-0.1,0.3-0.2,0.5-0.3C92.1,66.7,92,66.8,91.8,66.9z"/>
		<path fill="#EDB886" d="M93.4,66c0.2-0.1,0.4-0.2,0.6-0.3C93.8,65.8,93.6,65.9,93.4,66z"/>
		<path fill="#EDB886" d="M170.4,144c0-0.6,0-1.2,0.1-1.7C170.5,142.8,170.4,143.4,170.4,144z"/>
		<path fill="#EDB886" d="M129.8,49.9c0.4,0,0.8,0.1,1.2,0.2C130.7,50,130.2,49.9,129.8,49.9z"/>
		<path fill="#EDB886" d="M146.1,69.2c0.2-0.2,0.4-0.4,0.6-0.6C146.5,68.9,146.3,69.1,146.1,69.2z"/>
		<path fill="#EDB886" d="M145.4,70c0.2-0.2,0.3-0.4,0.5-0.5C145.8,69.7,145.6,69.9,145.4,70z"/>
		<path fill="#EDB886" d="M128.6,49.8c0.4,0,0.7,0,1.1,0C129.4,49.8,129,49.8,128.6,49.8z"/>
		<path fill="#EDB886" d="M143.1,76.6c0-0.4,0-0.8,0.1-1.2C143.1,75.8,143.1,76.2,143.1,76.6z"/>
		<path fill="#EDB886" d="M89.1,69.3c0.1-0.1,0.2-0.2,0.3-0.4C89.3,69.1,89.2,69.2,89.1,69.3z"/>
		<path fill="#EDB886" d="M144.3,71.8c0.1-0.2,0.2-0.4,0.3-0.6C144.5,71.5,144.4,71.6,144.3,71.8z"/>
		<path fill="#EDB886" d="M144.8,70.9c0.1-0.2,0.3-0.4,0.4-0.6C145.1,70.5,144.9,70.7,144.8,70.9z"/>
		<path fill="#EDB886" d="M119,54.1c0.2-0.2,0.5-0.4,0.7-0.6C119.5,53.7,119.3,53.9,119,54.1z"/>
		<path fill="#EDB886" d="M143.2,75.1c0-0.2,0.1-0.5,0.1-0.7C143.3,74.6,143.3,74.8,143.2,75.1z"/>
		<path fill="#EDB886" d="M143.5,73.9c0.1-0.2,0.1-0.4,0.2-0.6C143.6,73.5,143.5,73.7,143.5,73.9z"/>
		<path fill="#EDB886" d="M147.7,67.8c2.1-1.5,4.7-2.4,7.2-2.3C152.4,65.5,149.8,66.3,147.7,67.8z"/>
		<path fill="#EDB886" d="M121,52.5c0.3-0.2,0.7-0.5,1.1-0.7C121.7,52,121.3,52.2,121,52.5z"/>
		<path fill="#EDB886" d="M122.3,51.6c0.3-0.2,0.6-0.3,0.9-0.5C122.9,51.3,122.6,51.5,122.3,51.6z"/>
		<path fill="#EDB886" d="M120,53.3c0.3-0.3,0.7-0.5,1-0.8C120.6,52.7,120.3,53,120,53.3z"/>
		<path fill="#EDB886" d="M127.4,49.9c0.3,0,0.7-0.1,1-0.1C128,49.9,127.7,49.9,127.4,49.9z"/>
		<path fill="#EDB886" d="M124.7,50.6c0.8-0.3,1.6-0.5,2.5-0.6C126.3,50.1,125.5,50.3,124.7,50.6z"/>
		<path fill="#EDB886" d="M123.5,51.1c0.3-0.1,0.7-0.3,1-0.4C124.2,50.8,123.8,50.9,123.5,51.1z"/>
		<path fill="#EDB886" d="M146.9,68.5c0.2-0.2,0.5-0.4,0.7-0.6C147.4,68.1,147.1,68.3,146.9,68.5z"/>
		<path fill="#EDB886" d="M171.3,138.7c0.1-0.3,0.2-0.5,0.3-0.8C171.5,138.1,171.4,138.4,171.3,138.7z"/>
		<path fill="#EDB886" d="M172.5,136.2c0.1-0.2,0.3-0.5,0.5-0.7C172.8,135.7,172.6,135.9,172.5,136.2z"/>
		<path fill="#EDB886" d="M60.2,83.1c0.1-0.1,0.2-0.2,0.4-0.4C60.5,82.9,60.4,83,60.2,83.1z"/>
		<path fill="#EDB886" d="M65.5,79.7c0.2-0.1,0.4-0.1,0.6-0.2C65.9,79.6,65.7,79.7,65.5,79.7z"/>
		<path fill="#EDB886" d="M64.5,80.1c0.2-0.1,0.3-0.2,0.5-0.2C64.9,80,64.7,80,64.5,80.1z"/>
		<path fill="#EDB886" d="M178.5,131.5c0.3-0.1,0.6-0.2,1-0.3C179.1,131.2,178.8,131.3,178.5,131.5z"/>
		<path fill="#EDB886" d="M66.5,79.5c0.2-0.1,0.4-0.1,0.6-0.2C66.9,79.3,66.7,79.4,66.5,79.5z"/>
		<path fill="#EDB886" d="M179.7,131.1c0.3-0.1,0.6-0.1,1-0.2C180.3,131,180,131,179.7,131.1z"/>
		<path fill="#EDB886" d="M59.5,83.9c0.1-0.1,0.2-0.3,0.3-0.4C59.7,83.7,59.6,83.8,59.5,83.9z"/>
		<path fill="#EDB886" d="M58.9,84.8c0.1-0.1,0.2-0.3,0.3-0.4C59.1,84.5,59,84.7,58.9,84.8z"/>
		<path fill="#EDB886" d="M61,82.4c0.1-0.1,0.3-0.2,0.4-0.3C61.3,82.1,61.1,82.2,61,82.4z"/>
		<path fill="#EDB886" d="M174.1,134.1c0.2-0.2,0.5-0.5,0.8-0.7C174.6,133.7,174.3,133.9,174.1,134.1z"/>
		<path fill="#EDB886" d="M61.8,81.7c0.1-0.1,0.3-0.2,0.4-0.3C62.1,81.5,62,81.6,61.8,81.7z"/>
		<path fill="#EDB886" d="M62.7,81.1c0.2-0.1,0.3-0.2,0.5-0.3C63,80.9,62.9,81,62.7,81.1z"/>
		<path fill="#EDB886" d="M177.2,131.9c0.3-0.2,0.7-0.3,1-0.4C177.9,131.6,177.6,131.8,177.2,131.9z"/>
		<path fill="#EDB886" d="M63.6,80.6c0.2-0.1,0.3-0.2,0.5-0.3C63.9,80.4,63.8,80.5,63.6,80.6z"/>
		<path fill="#EDB886" d="M173.2,135.1c0.2-0.2,0.4-0.4,0.6-0.6C173.6,134.7,173.4,134.9,173.2,135.1z"/>
		<path fill="#EDB886" d="M182.1,130.8c0.4,0,0.7,0,1.1,0C182.8,130.8,182.5,130.8,182.1,130.8z"/>
		<path fill="#EDB886" d="M88.2,71c0.1-0.1,0.1-0.3,0.2-0.4C88.3,70.7,88.2,70.8,88.2,71z"/>
		<path fill="#EDB886" d="M183.3,130.8c0.4,0,0.8,0.1,1.2,0.1C184.1,130.9,183.7,130.8,183.3,130.8z"/>
		<path fill="#EDB886" d="M87.8,71.9c0-0.1,0.1-0.3,0.2-0.4C87.9,71.6,87.9,71.7,87.8,71.9z"/>
		<path fill="#EDB886" d="M57.4,87.9c0-0.2,0.1-0.3,0.2-0.4C57.5,87.6,57.5,87.7,57.4,87.9z"/>
		<path fill="#EDB886" d="M57.8,86.8c0.1-0.2,0.1-0.3,0.2-0.4C57.9,86.5,57.9,86.6,57.8,86.8z"/>
		<path fill="#EDB886" d="M88.6,70.1c0.1-0.1,0.2-0.3,0.2-0.4C88.8,69.9,88.7,70,88.6,70.1z"/>
		<path fill="#EDB886" d="M184.5,131c-5,9.6-12,27.4-14.1,54h-5.1c0,0,1.7-87.1,0-106.7c-0.8-9-5.5-12.6-10.4-12.7
			c-4,10-9.7,32.4-11.8,81H138c0,0,0-66.6,0-85.4c0-7-3.1-10.3-6.9-11.2c-4.1,11.1-13.9,42.7-15.3,95.7h-7.7c0,0,0-56.3,0-70.9
			c0-7.8-5.9-10.6-11.5-9.8c-2.1,14.4-8.8,62.7-9.3,79.8h-7.4c0,0,0-38.4,0-54.6c0-8.6-6-11.9-11.9-11.1c0,0-11.9,86.2,0,120.4
			c11.9,34.1,36.7,53.8,65.7,53.8c12.8,0,2.1,6-8.3,10.2c-1.9,0.8-3.7,5.2-5.3,12.1h33.3v-18.1c28.3-10.7,41.2-37.1,41.8-46.1
			c0.9-12,0.9-52.1,0-68.3C194.8,136,189.9,131.8,184.5,131z M71.2,179.5c-3.4-6.6,23.5,3.3,40.2,0.8c16.7-2.5,29.4-9.8,33.2-4.7
			C148.4,180.7,77.1,191,71.2,179.5z M140.4,207.6c-12.1,5.2-35.6,42.6-32.3,23.8c3.3-18.8,45.5-52.8,46.1-47.6
			C155,191.7,152.5,202.4,140.4,207.6z"/>
		<path fill="#EDB886" d="M175,133.3c0.7-0.5,1.4-1,2.1-1.3C176.4,132.4,175.7,132.8,175,133.3z"/>
		<path fill="#EDB886" d="M180.9,130.9c0.3,0,0.7-0.1,1-0.1C181.6,130.8,181.2,130.9,180.9,130.9z"/>
		<path fill="#EDB886" d="M58.3,85.8c0.1-0.1,0.2-0.3,0.3-0.4C58.5,85.5,58.4,85.6,58.3,85.8z"/>
		<path fill="#EDB886" d="M87.4,73.8c0-0.1,0-0.2,0.1-0.3C87.4,73.6,87.4,73.7,87.4,73.8z"/>
		<path fill="#EDB886" d="M87.6,72.8c0-0.1,0.1-0.3,0.1-0.4C87.6,72.5,87.6,72.7,87.6,72.8z"/>
		<path fill="#E6A06B" d="M125.4,263.5c10.4-4.3,21.2-10.2,8.3-10.2c-29,0-53.8-19.6-65.7-53.8c-11.9-34.1,0-120.4,0-120.4v0
			c0,0,0,0,0,0c-0.2,0-0.4,0.1-0.7,0.1c-0.1,0-0.2,0-0.3,0.1c-0.2,0-0.4,0.1-0.6,0.2c-0.1,0-0.3,0.1-0.4,0.1
			c-0.2,0.1-0.4,0.1-0.6,0.2c-0.1,0-0.3,0.1-0.4,0.2c-0.2,0.1-0.4,0.1-0.5,0.2c-0.1,0.1-0.3,0.1-0.4,0.2c-0.2,0.1-0.3,0.2-0.5,0.3
			c-0.1,0.1-0.3,0.2-0.4,0.2c-0.2,0.1-0.3,0.2-0.5,0.3c-0.1,0.1-0.3,0.2-0.4,0.3c-0.1,0.1-0.3,0.2-0.4,0.3c-0.1,0.1-0.3,0.2-0.4,0.3
			c-0.1,0.1-0.3,0.2-0.4,0.3c-0.1,0.1-0.3,0.2-0.4,0.4c-0.1,0.1-0.2,0.2-0.4,0.4c-0.1,0.1-0.3,0.3-0.4,0.4c-0.1,0.1-0.2,0.3-0.3,0.4
			c-0.1,0.2-0.2,0.3-0.4,0.5c-0.1,0.1-0.2,0.3-0.3,0.4c-0.1,0.2-0.2,0.3-0.3,0.5c-0.1,0.1-0.2,0.3-0.3,0.4c-0.1,0.2-0.2,0.4-0.3,0.6
			c-0.1,0.1-0.1,0.3-0.2,0.4c-0.1,0.2-0.2,0.4-0.2,0.6c-0.1,0.1-0.1,0.3-0.2,0.4c-0.1,0.2-0.1,0.5-0.2,0.8c0,0.1-0.1,0.3-0.1,0.4
			c-0.1,0.4-0.2,0.8-0.2,1.2c-1.7,13.7-3.4,115.3,0,122.1c2.3,4.7,11.2,24.7,30.4,37.8v25.5h32.7
			C121.7,268.7,123.4,264.3,125.4,263.5z"/>
		<path fill="#E6A06B" d="M108.1,231.4c-3.3,18.8,20.2-18.6,32.3-23.8s14.6-15.9,13.8-23.8C153.6,178.6,111.4,212.6,108.1,231.4z"/>
		<path fill="#E6A06B" d="M96.6,65.1C96.6,65.1,96.6,65.1,96.6,65.1c-0.9,0.1-1.8,0.4-2.6,0.7c0,0,0,0,0,0c-0.2,0.1-0.4,0.2-0.6,0.3
			c-0.1,0-0.2,0.1-0.2,0.1c-0.2,0.1-0.4,0.2-0.5,0.3c-0.1,0.1-0.2,0.1-0.3,0.2c-0.2,0.1-0.3,0.2-0.5,0.3c-0.1,0.1-0.2,0.1-0.3,0.2
			c-0.1,0.1-0.3,0.2-0.4,0.3c-0.1,0.1-0.2,0.2-0.3,0.3c-0.1,0.1-0.2,0.2-0.4,0.3c-0.1,0.1-0.2,0.2-0.3,0.3c-0.1,0.1-0.2,0.2-0.3,0.3
			c-0.1,0.1-0.2,0.2-0.3,0.4c-0.1,0.1-0.2,0.2-0.3,0.4c-0.1,0.1-0.2,0.3-0.3,0.4c-0.1,0.1-0.2,0.2-0.2,0.4c-0.1,0.1-0.2,0.3-0.2,0.4
			c-0.1,0.1-0.1,0.3-0.2,0.4c-0.1,0.2-0.1,0.3-0.2,0.5c-0.1,0.1-0.1,0.3-0.2,0.4c-0.1,0.2-0.1,0.4-0.2,0.6c0,0.1-0.1,0.3-0.1,0.4
			c0,0.2-0.1,0.4-0.1,0.7c0,0.1,0,0.2-0.1,0.3c0,0.3-0.1,0.7-0.1,1.1c0,12,0,70,0,70C87.8,127.8,94.6,79.5,96.6,65.1L96.6,65.1z"/>
		<path fill="#E6A06B" d="M131.1,50C131.1,50,131.1,50,131.1,50c-0.4-0.1-0.8-0.1-1.2-0.2c0,0-0.1,0-0.1,0c-0.4,0-0.7,0-1.1,0
			c-0.1,0-0.2,0-0.3,0c-0.3,0-0.7,0-1,0.1c-0.1,0-0.2,0-0.2,0c-0.8,0.1-1.7,0.3-2.5,0.6c-0.1,0-0.1,0-0.2,0.1
			c-0.3,0.1-0.7,0.3-1,0.4c-0.1,0-0.2,0.1-0.3,0.1c-0.3,0.1-0.6,0.3-0.9,0.5c-0.1,0.1-0.2,0.1-0.3,0.2c-0.4,0.2-0.7,0.4-1.1,0.7
			c0,0,0,0,0,0c-0.4,0.2-0.7,0.5-1,0.8c-0.1,0.1-0.2,0.1-0.2,0.2c-0.2,0.2-0.5,0.4-0.7,0.6c-0.1,0.1-0.2,0.2-0.3,0.3
			c-0.2,0.2-0.4,0.4-0.6,0.7c-0.1,0.1-0.2,0.2-0.2,0.3c-0.2,0.3-0.5,0.6-0.7,0.9c0,0,0,0,0,0.1c-0.2,0.3-0.4,0.7-0.6,1
			c-0.1,0.1-0.1,0.2-0.1,0.3c-0.1,0.3-0.2,0.5-0.3,0.8c0,0.1-0.1,0.3-0.1,0.4c-0.1,0.3-0.1,0.5-0.2,0.8c0,0.1,0,0.2-0.1,0.4
			c-0.1,0.4-0.1,0.8-0.1,1.2c0,11.1,0,84.5,0,84.5C117.2,92.7,127,61.1,131.1,50L131.1,50z"/>
		<path fill="#E6A06B" d="M154.9,65.5C154.9,65.5,154.9,65.5,154.9,65.5c-2.5-0.1-5.1,0.8-7.2,2.3c0,0-0.1,0.1-0.1,0.1
			c-0.2,0.2-0.5,0.4-0.7,0.6c-0.1,0.1-0.1,0.1-0.2,0.2c-0.2,0.2-0.4,0.4-0.6,0.6c-0.1,0.1-0.2,0.2-0.2,0.3c-0.2,0.2-0.3,0.4-0.5,0.5
			c-0.1,0.1-0.2,0.2-0.2,0.3c-0.1,0.2-0.3,0.4-0.4,0.6c-0.1,0.1-0.2,0.2-0.2,0.4c-0.1,0.2-0.2,0.4-0.3,0.6c-0.1,0.1-0.1,0.3-0.2,0.4
			c-0.1,0.2-0.2,0.4-0.3,0.6c-0.1,0.1-0.1,0.3-0.2,0.4c-0.1,0.2-0.1,0.4-0.2,0.6c0,0.1-0.1,0.3-0.1,0.4c-0.1,0.2-0.1,0.5-0.1,0.7
			c0,0.1,0,0.2-0.1,0.4c0,0.4-0.1,0.8-0.1,1.2c0,12,0,70,0,70C145.2,97.9,151,75.5,154.9,65.5L154.9,65.5z"/>
		<path fill="#E6A06B" d="M184.5,131C184.5,131,184.5,131,184.5,131c-0.4-0.1-0.8-0.1-1.2-0.1c0,0-0.1,0-0.1,0c-0.4,0-0.7,0-1.1,0
			c-0.1,0-0.1,0-0.2,0c-0.3,0-0.7,0-1,0.1c-0.1,0-0.2,0-0.2,0c-0.3,0-0.7,0.1-1,0.2c-0.1,0-0.2,0-0.2,0.1c-0.3,0.1-0.6,0.2-1,0.3
			c-0.1,0-0.1,0-0.2,0.1c-0.3,0.1-0.7,0.3-1,0.4c0,0-0.1,0-0.1,0.1c-0.7,0.4-1.5,0.8-2.1,1.3c-0.1,0-0.1,0.1-0.1,0.1
			c-0.3,0.2-0.5,0.4-0.8,0.7c-0.1,0.1-0.2,0.2-0.3,0.3c-0.2,0.2-0.4,0.4-0.6,0.6c-0.1,0.1-0.2,0.3-0.3,0.4c-0.2,0.2-0.3,0.4-0.5,0.7
			c-0.1,0.2-0.2,0.3-0.3,0.5c-0.1,0.2-0.3,0.5-0.4,0.7c-0.1,0.2-0.2,0.3-0.2,0.5c-0.1,0.3-0.2,0.5-0.3,0.8c-0.1,0.2-0.1,0.4-0.2,0.6
			c-0.1,0.3-0.2,0.6-0.2,0.9c0,0.2-0.1,0.4-0.1,0.6c-0.1,0.3-0.1,0.7-0.2,1.1c0,0.2-0.1,0.4-0.1,0.5c-0.1,0.6-0.1,1.1-0.1,1.7
			c0,17.9,0,41,0,41C172.6,158.3,179.6,140.5,184.5,131L184.5,131z"/>
		<path fill="#E6A06B" d="M144.5,175.5c-3.8-5.1-16.4,2.2-33.2,4.7c-16.7,2.5-43.6-7.4-40.2-0.8C77.1,191,148.4,180.7,144.5,175.5z"
			/>
		<polygon fill="#A3D6F8" points="87.3,275.6 76.4,275.6 76.4,283 160.7,283 160.7,275.6 153.4,275.6 120.1,275.6 		"/>
		<polygon fill="#645E57" points="75.6,315.7 69.4,622.5 170.9,622.5 165.4,315.7 		"/>
		<path fill="#433F38" d="M76.4,283h-7v32.7h6.2h89.8h6.2V283h-11H76.4z M86.5,308.8c-5.3,0-9.6-4.3-9.6-9.6s4.3-9.6,9.6-9.6
			s9.6,4.3,9.6,9.6S91.8,308.8,86.5,308.8z"/>
		<circle fill="#2D2A21" cx="86.5" cy="299.2" r="9.6"/>
	</g>
</g>
<g id="Designed_by_Vecteezy">
</g>
</svg>
