<?xml version="1.0" encoding="utf-8"?>
<!-- Generator: Adobe Illustrator 18.0.0, SVG Export Plug-In . SVG Version: 6.00 Build 0)  -->
<!DOCTYPE svg PUBLIC "-//W3C//DTD SVG 1.1//EN" "http://www.w3.org/Graphics/SVG/1.1/DTD/svg11.dtd">
<svg version="1.1" xmlns="http://www.w3.org/2000/svg" xmlns:xlink="http://www.w3.org/1999/xlink" x="0px" y="0px"
	 viewBox="0 0 172.5 741.6" enable-background="new 0 0 172.5 741.6" xml:space="preserve">
<g id="_x31_">
	<g>
		<path fill="#F9DA8D" d="M148,98.1L148,98.1C147.9,98.1,147.9,98.1,148,98.1c-0.4-0.1-0.8-0.1-1.2-0.1c0,0-0.1,0-0.1,0
			c-0.4,0-0.7,0-1.1,0c-0.1,0-0.1,0-0.2,0c-0.3,0-0.7,0-1,0.1c-0.1,0-0.2,0-0.2,0c-0.3,0-0.7,0.1-1,0.2c-0.1,0-0.2,0-0.2,0.1
			c-0.3,0.1-0.6,0.2-1,0.3c-0.1,0-0.1,0-0.2,0.1c-0.3,0.1-0.7,0.3-1,0.4c0,0-0.1,0-0.1,0.1c-0.7,0.4-1.5,0.8-2.1,1.3
			c-0.1,0-0.1,0.1-0.1,0.1c-0.3,0.2-0.5,0.4-0.8,0.7c-0.1,0.1-0.2,0.2-0.3,0.3c-0.2,0.2-0.4,0.4-0.6,0.6c-0.1,0.1-0.2,0.3-0.3,0.4
			c-0.2,0.2-0.3,0.4-0.5,0.7c-0.1,0.2-0.2,0.3-0.3,0.5c-0.1,0.2-0.3,0.5-0.4,0.7c-0.1,0.2-0.2,0.3-0.2,0.5c-0.1,0.3-0.2,0.5-0.3,0.8
			c-0.1,0.2-0.1,0.4-0.2,0.6c-0.1,0.3-0.2,0.6-0.2,0.9c0,0.2-0.1,0.4-0.1,0.6c-0.1,0.3-0.1,0.7-0.2,1.1c0,0.2-0.1,0.4-0.1,0.5
			c-0.1,0.6-0.1,1.1-0.1,1.7c0,17.9,0,41,0,41h-5.1c0,0,1.7-87.1,0-106.7c-0.8-9-5.5-12.6-10.4-12.7l0,0h0c-2.5-0.1-5.1,0.8-7.2,2.3
			c0,0-0.1,0.1-0.1,0.1c-0.2,0.2-0.5,0.4-0.7,0.6c-0.1,0.1-0.1,0.1-0.2,0.2c-0.2,0.2-0.4,0.4-0.6,0.6c-0.1,0.1-0.2,0.2-0.2,0.3
			c-0.2,0.2-0.3,0.4-0.5,0.5c-0.1,0.1-0.2,0.2-0.2,0.3c-0.1,0.2-0.3,0.4-0.4,0.6c-0.1,0.1-0.2,0.2-0.2,0.4c-0.1,0.2-0.2,0.4-0.3,0.6
			c-0.1,0.1-0.1,0.3-0.2,0.4c-0.1,0.2-0.2,0.4-0.3,0.6c-0.1,0.1-0.1,0.3-0.2,0.4c-0.1,0.2-0.1,0.4-0.2,0.6c0,0.1-0.1,0.3-0.1,0.4
			c-0.1,0.2-0.1,0.5-0.1,0.7c0,0.1,0,0.2-0.1,0.4c0,0.4-0.1,0.8-0.1,1.2c0,12,0,70,0,70h-5.1c0,0,0-66.6,0-85.4
			c0-7-3.1-10.3-6.9-11.2v0l0,0c-0.4-0.1-0.8-0.1-1.2-0.2c0,0-0.1,0-0.1,0c-0.4,0-0.7,0-1.1,0c-0.1,0-0.2,0-0.3,0
			c-0.3,0-0.7,0-1,0.1c-0.1,0-0.2,0-0.2,0c-0.8,0.1-1.7,0.3-2.5,0.6c-0.1,0-0.1,0-0.2,0.1c-0.3,0.1-0.7,0.3-1,0.4
			c-0.1,0-0.2,0.1-0.3,0.1c-0.3,0.1-0.6,0.3-0.9,0.5c-0.1,0.1-0.2,0.1-0.3,0.2c-0.4,0.2-0.7,0.4-1.1,0.7c0,0,0,0,0,0
			c-0.4,0.2-0.7,0.5-1,0.8c-0.1,0.1-0.2,0.1-0.2,0.2c-0.2,0.2-0.5,0.4-0.7,0.6c-0.1,0.1-0.2,0.2-0.3,0.3c-0.2,0.2-0.4,0.4-0.6,0.7
			c-0.1,0.1-0.2,0.2-0.2,0.3c-0.2,0.3-0.5,0.6-0.7,0.9c0,0,0,0,0,0.1c-0.2,0.3-0.4,0.7-0.6,1C80,24.6,80,24.7,80,24.8
			c-0.1,0.3-0.2,0.5-0.3,0.8c0,0.1-0.1,0.3-0.1,0.4c-0.1,0.3-0.1,0.5-0.2,0.8c0,0.1,0,0.2-0.1,0.4c-0.1,0.4-0.1,0.8-0.1,1.2
			c0,11.1,0,84.5,0,84.5h-7.7c0,0,0-56.3,0-70.9c0-7.8-5.9-10.6-11.5-9.8v0c0,0,0,0,0,0c-0.9,0.1-1.8,0.4-2.6,0.7c0,0,0,0,0,0
			c-0.2,0.1-0.4,0.2-0.6,0.3c-0.1,0-0.2,0.1-0.2,0.1c-0.2,0.1-0.4,0.2-0.5,0.3c-0.1,0.1-0.2,0.1-0.3,0.2c-0.2,0.1-0.3,0.2-0.5,0.3
			c-0.1,0.1-0.2,0.1-0.3,0.2c-0.1,0.1-0.3,0.2-0.4,0.3c-0.1,0.1-0.2,0.2-0.3,0.3c-0.1,0.1-0.2,0.2-0.4,0.3c-0.1,0.1-0.2,0.2-0.3,0.3
			c-0.1,0.1-0.2,0.2-0.3,0.3c-0.1,0.1-0.2,0.2-0.3,0.4c-0.1,0.1-0.2,0.2-0.3,0.4c-0.1,0.1-0.2,0.3-0.3,0.4c-0.1,0.1-0.2,0.2-0.2,0.4
			c-0.1,0.1-0.2,0.3-0.2,0.4c-0.1,0.1-0.1,0.3-0.2,0.4c-0.1,0.2-0.1,0.3-0.2,0.5c-0.1,0.1-0.1,0.3-0.2,0.4c-0.1,0.2-0.1,0.4-0.2,0.6
			c0,0.1-0.1,0.3-0.1,0.4c0,0.2-0.1,0.4-0.1,0.7c0,0.1,0,0.2-0.1,0.3c0,0.3-0.1,0.7-0.1,1.1c0,12,0,70,0,70h-7.4c0,0,0-38.4,0-54.6
			c0-8.6-6-11.9-11.9-11.1v0c0,0,0,0,0,0c-0.2,0-0.4,0.1-0.7,0.1c-0.1,0-0.2,0-0.3,0.1c-0.2,0-0.4,0.1-0.6,0.2
			c-0.1,0-0.3,0.1-0.4,0.1c-0.2,0.1-0.4,0.1-0.6,0.2c-0.1,0-0.3,0.1-0.4,0.2c-0.2,0.1-0.4,0.1-0.5,0.2c-0.1,0.1-0.3,0.1-0.4,0.2
			c-0.2,0.1-0.3,0.2-0.5,0.3c-0.1,0.1-0.3,0.2-0.4,0.2c-0.2,0.1-0.3,0.2-0.5,0.3c-0.1,0.1-0.3,0.2-0.4,0.3c-0.1,0.1-0.3,0.2-0.4,0.3
			c-0.1,0.1-0.3,0.2-0.4,0.3c-0.1,0.1-0.3,0.2-0.4,0.3c-0.1,0.1-0.3,0.2-0.4,0.4c-0.1,0.1-0.2,0.2-0.4,0.4c-0.1,0.1-0.3,0.3-0.4,0.4
			c-0.1,0.1-0.2,0.3-0.3,0.4c-0.1,0.2-0.2,0.3-0.4,0.5c-0.1,0.1-0.2,0.3-0.3,0.4c-0.1,0.2-0.2,0.3-0.3,0.5c-0.1,0.1-0.2,0.3-0.3,0.4
			c-0.1,0.2-0.2,0.4-0.3,0.6c-0.1,0.1-0.1,0.3-0.2,0.4c-0.1,0.2-0.2,0.4-0.2,0.6c-0.1,0.1-0.1,0.3-0.2,0.4c-0.1,0.2-0.1,0.5-0.2,0.8
			c0,0.1-0.1,0.3-0.1,0.4c-0.1,0.4-0.2,0.8-0.2,1.2c-1.7,13.7-3.4,115.3,0,122.1c2.3,4.7,11.2,24.7,30.4,37.8v31.9
			c-5.2,0.5-9.2,4.8-9.2,10.1v2.2c0,5.3,4,9.6,9.2,10.1v181.1h-6.4c-6,0-10.8,4.8-10.8,10.8v0.8c0,4.1,2.2,7.6,5.6,9.4l-10.6,267
			h109l-9.6-267c3.3-1.8,5.6-5.4,5.6-9.5v-0.8c0-6-4.8-10.8-10.8-10.8h-6V271.7c5.4-0.2,9.8-4.7,9.8-10.2v-2.2
			c0-5.5-4.4-10-9.8-10.2v-24.5c28.3-10.7,41.2-37.1,41.8-46.1c0.9-12,0.9-52.1,0-68.3C158.2,103.1,153.3,99,148,98.1z"/>
	</g>
	<g>
		<path fill="#EDB886" d="M25.1,46.4c0.2,0,0.4-0.1,0.7-0.1C25.6,46.3,25.4,46.3,25.1,46.4z"/>
		<path fill="#EDB886" d="M45.1,41c0-0.1,0-0.2,0.1-0.3C45.2,40.7,45.1,40.8,45.1,41z"/>
		<path fill="#EDB886" d="M45.3,40c0-0.1,0.1-0.3,0.1-0.4C45.4,39.7,45.3,39.8,45.3,40z"/>
		<path fill="#EDB886" d="M22.3,47.3c0.2-0.1,0.3-0.2,0.5-0.2C22.6,47.1,22.5,47.2,22.3,47.3z"/>
		<path fill="#EDB886" d="M24.2,46.6c0.2-0.1,0.4-0.1,0.6-0.2C24.6,46.5,24.4,46.6,24.2,46.6z"/>
		<path fill="#EDB886" d="M23.2,46.9c0.2-0.1,0.4-0.1,0.6-0.2C23.6,46.8,23.4,46.8,23.2,46.9z"/>
		<path fill="#EDB886" d="M46.9,36.5c0.1-0.1,0.2-0.2,0.3-0.4C47.1,36.3,47,36.4,46.9,36.5z"/>
		<path fill="#EDB886" d="M47.5,35.8c0.1-0.1,0.2-0.2,0.3-0.3C47.7,35.6,47.6,35.7,47.5,35.8z"/>
		<path fill="#EDB886" d="M21.3,47.7c0.2-0.1,0.3-0.2,0.5-0.3C21.7,47.5,21.5,47.6,21.3,47.7z"/>
		<path fill="#EDB886" d="M46.4,37.3c0.1-0.1,0.2-0.3,0.2-0.4C46.5,37,46.4,37.1,46.4,37.3z"/>
		<path fill="#EDB886" d="M45.6,39c0-0.1,0.1-0.3,0.2-0.4C45.7,38.7,45.6,38.9,45.6,39z"/>
		<path fill="#EDB886" d="M45.9,38.1c0.1-0.1,0.1-0.3,0.2-0.4C46,37.9,46,38,45.9,38.1z"/>
		<path fill="#EDB886" d="M16,52.9c0.1-0.1,0.2-0.3,0.3-0.4C16.2,52.6,16.1,52.8,16,52.9z"/>
		<path fill="#EDB886" d="M15.1,55c0-0.2,0.1-0.3,0.2-0.4C15.2,54.7,15.2,54.9,15.1,55z"/>
		<path fill="#EDB886" d="M15.5,53.9c0.1-0.2,0.1-0.3,0.2-0.4C15.7,53.6,15.6,53.8,15.5,53.9z"/>
		<path fill="#EDB886" d="M14.8,56.2c0-0.1,0.1-0.3,0.1-0.4C14.9,55.9,14.9,56,14.8,56.2z"/>
		<path fill="#EDB886" d="M48.1,35.1c0.1-0.1,0.2-0.2,0.4-0.3C48.4,34.9,48.2,35,48.1,35.1z"/>
		<path fill="#EDB886" d="M17.3,51.1c0.1-0.1,0.2-0.3,0.3-0.4C17.5,50.8,17.4,50.9,17.3,51.1z"/>
		<path fill="#EDB886" d="M18.7,49.5c0.1-0.1,0.3-0.2,0.4-0.3C19,49.3,18.9,49.4,18.7,49.5z"/>
		<path fill="#EDB886" d="M16.6,52c0.1-0.1,0.2-0.3,0.3-0.4C16.8,51.7,16.7,51.8,16.6,52z"/>
		<path fill="#EDB886" d="M19.6,48.8c0.1-0.1,0.3-0.2,0.4-0.3C19.9,48.6,19.7,48.7,19.6,48.8z"/>
		<path fill="#EDB886" d="M20.4,48.2c0.2-0.1,0.3-0.2,0.5-0.3C20.7,48.1,20.6,48.1,20.4,48.2z"/>
		<path fill="#EDB886" d="M18,50.3c0.1-0.1,0.2-0.2,0.4-0.4C18.2,50,18.1,50.1,18,50.3z"/>
		<path fill="#EDB886" d="M128.3,108.9c0-0.4,0.1-0.7,0.2-1.1C128.4,108.2,128.4,108.6,128.3,108.9z"/>
		<path fill="#EDB886" d="M128.2,111.2c0-0.6,0-1.2,0.1-1.7C128.2,110,128.2,110.6,128.2,111.2z"/>
		<path fill="#EDB886" d="M105.5,35c2.1-1.5,4.7-2.4,7.2-2.3C110.1,32.6,107.6,33.5,105.5,35z"/>
		<path fill="#EDB886" d="M128.6,107.3c0.1-0.3,0.1-0.6,0.2-0.9C128.8,106.7,128.7,107,128.6,107.3z"/>
		<path fill="#EDB886" d="M129,105.8c0.1-0.3,0.2-0.5,0.3-0.8C129.2,105.3,129.1,105.5,129,105.8z"/>
		<path fill="#EDB886" d="M129.6,104.5c0.1-0.2,0.2-0.5,0.4-0.7C129.8,104,129.7,104.2,129.6,104.5z"/>
		<path fill="#EDB886" d="M104.7,35.7c0.2-0.2,0.5-0.4,0.7-0.6C105.1,35.3,104.9,35.5,104.7,35.7z"/>
		<path fill="#EDB886" d="M103.2,37.2c0.2-0.2,0.3-0.4,0.5-0.5C103.5,36.8,103.3,37,103.2,37.2z"/>
		<path fill="#EDB886" d="M102,39c0.1-0.2,0.2-0.4,0.3-0.6C102.2,38.6,102.1,38.8,102,39z"/>
		<path fill="#EDB886" d="M103.9,36.4c0.2-0.2,0.4-0.4,0.6-0.6C104.3,36,104.1,36.2,103.9,36.4z"/>
		<path fill="#EDB886" d="M101.6,40c0.1-0.2,0.2-0.4,0.3-0.6C101.7,39.6,101.6,39.8,101.6,40z"/>
		<path fill="#EDB886" d="M130.2,103.3c0.1-0.2,0.3-0.5,0.5-0.7C130.5,102.8,130.4,103.1,130.2,103.3z"/>
		<path fill="#EDB886" d="M102.6,38.1c0.1-0.2,0.3-0.4,0.4-0.6C102.8,37.7,102.7,37.9,102.6,38.1z"/>
		<path fill="#EDB886" d="M132.7,100.5c0.7-0.5,1.4-1,2.1-1.3C134.1,99.5,133.4,99.9,132.7,100.5z"/>
		<path fill="#EDB886" d="M139.8,98c0.4,0,0.7,0,1.1,0C140.6,97.9,140.2,97.9,139.8,98z"/>
		<path fill="#EDB886" d="M131,102.2c0.2-0.2,0.4-0.4,0.6-0.6C131.3,101.8,131.2,102,131,102.2z"/>
		<path fill="#EDB886" d="M73.3,271.7c-4.1,36.5-6.2,87.7-5.7,110.9c0.4,15.5,0.7,43,1,70.2h42.5V271.7c-0.1,0-0.2,0-0.4,0H73.3z"/>
		<path fill="#EDB886" d="M142.3,98.1c-5,9.6-12,27.4-14.1,54H123c0,0,1.7-87.1,0-106.7c-0.8-9-5.5-12.6-10.4-12.7
			c-4,10-9.7,32.4-11.8,81h-5.1c0,0,0-66.6,0-85.4c0-7-3.1-10.3-6.9-11.2c-4.1,11.1-13.9,42.7-15.3,95.7h-7.7c0,0,0-56.3,0-70.9
			c0-7.8-5.9-10.6-11.5-9.8c-2.1,14.4-8.8,62.7-9.3,79.8h-7.4c0,0,0-38.4,0-54.6c0-8.6-6-11.9-11.9-11.1c0,0-11.9,86.2,0,120.4
			c11.9,34.1,36.7,53.8,65.7,53.8c12.8,0,2.1,6-8.3,10.2c-2.5,1-4.7,8-6.6,18.5h34.2c0.1,0,0.3,0,0.4,0v-24.5
			c28.3-10.7,41.2-37.1,41.8-46.1c0.9-12,0.9-52.1,0-68.3C152.5,103.1,147.6,99,142.3,98.1z M28.9,146.6c-3.4-6.6,23.5,3.3,40.2,0.8
			c16.7-2.5,29.4-9.8,33.2-4.7C106.1,147.9,34.9,158.1,28.9,146.6z M98.1,174.7c-12.1,5.2-35.6,42.6-32.3,23.8
			c3.3-18.8,45.5-52.8,46.1-47.6C112.8,158.9,110.2,169.5,98.1,174.7z"/>
		<path fill="#EDB886" d="M138.6,98c0.3,0,0.7-0.1,1-0.1C139.3,98,139,98,138.6,98z"/>
		<path fill="#EDB886" d="M141.1,98c0.4,0,0.8,0.1,1.2,0.1C141.9,98,141.5,98,141.1,98z"/>
		<path fill="#EDB886" d="M101.2,41c0.1-0.2,0.1-0.4,0.2-0.6C101.3,40.6,101.3,40.8,101.2,41z"/>
		<path fill="#EDB886" d="M131.8,101.3c0.2-0.2,0.5-0.5,0.8-0.7C132.3,100.8,132.1,101.1,131.8,101.3z"/>
		<path fill="#EDB886" d="M135,99.1c0.3-0.2,0.7-0.3,1-0.4C135.6,98.8,135.3,98.9,135,99.1z"/>
		<path fill="#EDB886" d="M136.2,98.6c0.3-0.1,0.6-0.2,1-0.3C136.8,98.4,136.5,98.5,136.2,98.6z"/>
		<path fill="#EDB886" d="M137.4,98.3c0.3-0.1,0.6-0.1,1-0.2C138,98.1,137.7,98.2,137.4,98.3z"/>
		<path fill="#EDB886" d="M101,42.2c0-0.2,0.1-0.5,0.1-0.7C101,41.7,101,42,101,42.2z"/>
		<path fill="#EDB886" d="M74.4,24.5c0.2-0.4,0.4-0.7,0.6-1C74.8,23.8,74.6,24.2,74.4,24.5z"/>
		<path fill="#EDB886" d="M73.7,26.8c0.1-0.3,0.1-0.5,0.2-0.8C73.8,26.3,73.7,26.5,73.7,26.8z"/>
		<path fill="#EDB886" d="M75,23.4c0.2-0.3,0.4-0.6,0.7-0.9C75.5,22.8,75.2,23.1,75,23.4z"/>
		<path fill="#EDB886" d="M74,25.6c0.1-0.3,0.2-0.5,0.3-0.8C74.2,25.1,74.1,25.4,74,25.6z"/>
		<path fill="#EDB886" d="M75.9,22.2c0.2-0.2,0.4-0.4,0.6-0.7C76.3,21.8,76.1,22,75.9,22.2z"/>
		<path fill="#EDB886" d="M76.8,21.3c0.2-0.2,0.5-0.4,0.7-0.6C77.2,20.8,77,21,76.8,21.3z"/>
		<path fill="#EDB886" d="M48.8,34.5c0.1-0.1,0.3-0.2,0.4-0.3C49.1,34.3,48.9,34.4,48.8,34.5z"/>
		<path fill="#EDB886" d="M50.3,33.6c0.2-0.1,0.3-0.2,0.5-0.3C50.7,33.4,50.5,33.5,50.3,33.6z"/>
		<path fill="#EDB886" d="M49.6,34c0.2-0.1,0.3-0.2,0.5-0.3C49.9,33.8,49.7,33.9,49.6,34z"/>
		<path fill="#EDB886" d="M77.7,20.4c0.3-0.3,0.7-0.5,1-0.8C78.4,19.9,78,20.1,77.7,20.4z"/>
		<path fill="#EDB886" d="M51.8,32.9c0.8-0.3,1.7-0.6,2.6-0.7C53.5,32.3,52.6,32.6,51.8,32.9z"/>
		<path fill="#EDB886" d="M51.1,33.2c0.2-0.1,0.4-0.2,0.6-0.3C51.5,33,51.3,33.1,51.1,33.2z"/>
		<path fill="#EDB886" d="M73.5,28.4c0-0.4,0-0.8,0.1-1.2C73.6,27.6,73.5,28,73.5,28.4z"/>
		<path fill="#EDB886" d="M78.7,19.6c0.3-0.2,0.7-0.5,1.1-0.7C79.4,19.2,79.1,19.4,78.7,19.6z"/>
		<path fill="#EDB886" d="M86.4,17c0.4,0,0.7,0,1.1,0C87.1,17,86.7,17,86.4,17z"/>
		<path fill="#EDB886" d="M87.6,17c0.4,0,0.8,0.1,1.2,0.2C88.4,17.1,88,17.1,87.6,17z"/>
		<path fill="#EDB886" d="M100.8,43.7c0-0.4,0-0.8,0.1-1.2C100.9,42.9,100.8,43.3,100.8,43.7z"/>
		<path fill="#EDB886" d="M82.4,17.7c0.8-0.3,1.6-0.5,2.5-0.6C84,17.2,83.2,17.5,82.4,17.7z"/>
		<path fill="#EDB886" d="M85.1,17.1c0.3,0,0.7-0.1,1-0.1C85.8,17,85.4,17,85.1,17.1z"/>
		<path fill="#EDB886" d="M80.1,18.8c0.3-0.2,0.6-0.3,0.9-0.5C80.6,18.5,80.3,18.6,80.1,18.8z"/>
		<path fill="#EDB886" d="M81.2,18.2c0.3-0.1,0.7-0.3,1-0.4C81.9,17.9,81.6,18.1,81.2,18.2z"/>
		<path fill="#E6A06B" d="M76.5,249.2c1.9-10.5,4.2-17.5,6.6-18.5c10.4-4.3,21.2-10.2,8.3-10.2c-29,0-53.8-19.6-65.7-53.8
			c-11.9-34.1,0-120.4,0-120.4v0c0,0,0,0,0,0c-0.2,0-0.4,0.1-0.7,0.1c-0.1,0-0.2,0-0.3,0.1c-0.2,0-0.4,0.1-0.6,0.2
			c-0.1,0-0.3,0.1-0.4,0.1c-0.2,0.1-0.4,0.1-0.6,0.2c-0.1,0-0.3,0.1-0.4,0.2c-0.2,0.1-0.4,0.1-0.5,0.2c-0.1,0.1-0.3,0.1-0.4,0.2
			c-0.2,0.1-0.3,0.2-0.5,0.3c-0.1,0.1-0.3,0.2-0.4,0.2c-0.2,0.1-0.3,0.2-0.5,0.3c-0.1,0.1-0.3,0.2-0.4,0.3c-0.1,0.1-0.3,0.2-0.4,0.3
			c-0.1,0.1-0.3,0.2-0.4,0.3c-0.1,0.1-0.3,0.2-0.4,0.3c-0.1,0.1-0.3,0.2-0.4,0.4c-0.1,0.1-0.2,0.2-0.4,0.4c-0.1,0.1-0.3,0.3-0.4,0.4
			c-0.1,0.1-0.2,0.3-0.3,0.4c-0.1,0.2-0.2,0.3-0.4,0.5c-0.1,0.1-0.2,0.3-0.3,0.4c-0.1,0.2-0.2,0.3-0.3,0.5c-0.1,0.1-0.2,0.3-0.3,0.4
			c-0.1,0.2-0.2,0.4-0.3,0.6c-0.1,0.1-0.1,0.3-0.2,0.4c-0.1,0.2-0.2,0.4-0.2,0.6c-0.1,0.1-0.1,0.3-0.2,0.4c-0.1,0.2-0.1,0.5-0.2,0.8
			c0,0.1-0.1,0.3-0.1,0.4c-0.1,0.4-0.2,0.8-0.2,1.2c-1.7,13.7-3.4,115.3,0,122.1c2.3,4.7,11.2,24.7,30.4,37.8v31.9
			c0.3,0,0.7-0.1,1-0.1H76.5z"/>
		<path fill="#E6A06B" d="M67.6,382.6c-0.5-23.3,1.6-74.4,5.7-110.9H46.1c-0.3,0-0.7,0-1-0.1v181.1h23.5
			C68.3,425.7,67.9,398.1,67.6,382.6z"/>
		<path fill="#E6A06B" d="M65.8,198.5c-3.3,18.8,20.2-18.6,32.3-23.8c12.1-5.2,14.6-15.9,13.8-23.8
			C111.4,145.7,69.1,179.7,65.8,198.5z"/>
		<path fill="#E6A06B" d="M54.4,32.2C54.4,32.2,54.4,32.2,54.4,32.2c-0.9,0.1-1.8,0.4-2.6,0.7c0,0,0,0,0,0c-0.2,0.1-0.4,0.2-0.6,0.3
			c-0.1,0-0.2,0.1-0.2,0.1c-0.2,0.1-0.4,0.2-0.5,0.3c-0.1,0.1-0.2,0.1-0.3,0.2c-0.2,0.1-0.3,0.2-0.5,0.3c-0.1,0.1-0.2,0.1-0.3,0.2
			c-0.1,0.1-0.3,0.2-0.4,0.3c-0.1,0.1-0.2,0.2-0.3,0.3c-0.1,0.1-0.2,0.2-0.4,0.3c-0.1,0.1-0.2,0.2-0.3,0.3c-0.1,0.1-0.2,0.2-0.3,0.3
			c-0.1,0.1-0.2,0.2-0.3,0.4c-0.1,0.1-0.2,0.2-0.3,0.4c-0.1,0.1-0.2,0.3-0.3,0.4c-0.1,0.1-0.2,0.2-0.2,0.4c-0.1,0.1-0.2,0.3-0.2,0.4
			C46,37.9,46,38,45.9,38.1c-0.1,0.2-0.1,0.3-0.2,0.5c-0.1,0.1-0.1,0.3-0.2,0.4c-0.1,0.2-0.1,0.4-0.2,0.6c0,0.1-0.1,0.3-0.1,0.4
			c0,0.2-0.1,0.4-0.1,0.7c0,0.1,0,0.2-0.1,0.3c0,0.3-0.1,0.7-0.1,1.1c0,12,0,70,0,70C45.6,94.9,52.3,46.6,54.4,32.2L54.4,32.2z"/>
		<path fill="#E6A06B" d="M88.8,17.2L88.8,17.2c-0.4-0.1-0.8-0.1-1.2-0.2c0,0-0.1,0-0.1,0c-0.4,0-0.7,0-1.1,0c-0.1,0-0.2,0-0.3,0
			c-0.3,0-0.7,0-1,0.1c-0.1,0-0.2,0-0.2,0c-0.8,0.1-1.7,0.3-2.5,0.6c-0.1,0-0.1,0-0.2,0.1c-0.3,0.1-0.7,0.3-1,0.4
			c-0.1,0-0.2,0.1-0.3,0.1c-0.3,0.1-0.6,0.3-0.9,0.5c-0.1,0.1-0.2,0.1-0.3,0.2c-0.4,0.2-0.7,0.4-1.1,0.7c0,0,0,0,0,0
			c-0.4,0.2-0.7,0.5-1,0.8c-0.1,0.1-0.2,0.1-0.2,0.2c-0.2,0.2-0.5,0.4-0.7,0.6c-0.1,0.1-0.2,0.2-0.3,0.3c-0.2,0.2-0.4,0.4-0.6,0.7
			c-0.1,0.1-0.2,0.2-0.2,0.3c-0.2,0.3-0.5,0.6-0.7,0.9c0,0,0,0,0,0.1c-0.2,0.3-0.4,0.7-0.6,1c-0.1,0.1-0.1,0.2-0.1,0.3
			c-0.1,0.3-0.2,0.5-0.3,0.8c0,0.1-0.1,0.3-0.1,0.4c-0.1,0.3-0.1,0.5-0.2,0.8c0,0.1,0,0.2-0.1,0.4c-0.1,0.4-0.1,0.8-0.1,1.2
			c0,11.1,0,84.5,0,84.5C74.9,59.9,84.7,28.3,88.8,17.2L88.8,17.2z"/>
		<path fill="#E6A06B" d="M112.7,32.7L112.7,32.7c-2.5-0.1-5.1,0.8-7.2,2.3c0,0-0.1,0.1-0.1,0.1c-0.2,0.2-0.5,0.4-0.7,0.6
			c-0.1,0.1-0.1,0.1-0.2,0.2c-0.2,0.2-0.4,0.4-0.6,0.6c-0.1,0.1-0.2,0.2-0.2,0.3c-0.2,0.2-0.3,0.4-0.5,0.5c-0.1,0.1-0.2,0.2-0.2,0.3
			c-0.1,0.2-0.3,0.4-0.4,0.6c-0.1,0.1-0.2,0.2-0.2,0.4c-0.1,0.2-0.2,0.4-0.3,0.6c-0.1,0.1-0.1,0.3-0.2,0.4c-0.1,0.2-0.2,0.4-0.3,0.6
			c-0.1,0.1-0.1,0.3-0.2,0.4c-0.1,0.2-0.1,0.4-0.2,0.6c0,0.1-0.1,0.3-0.1,0.4c-0.1,0.2-0.1,0.5-0.1,0.7c0,0.1,0,0.2-0.1,0.4
			c0,0.4-0.1,0.8-0.1,1.2c0,12,0,70,0,70C103,65.1,108.7,42.7,112.7,32.7L112.7,32.7z"/>
		<path fill="#E6A06B" d="M142.3,98.1C142.3,98.1,142.3,98.1,142.3,98.1c-0.4-0.1-0.8-0.1-1.2-0.1c0,0-0.1,0-0.1,0
			c-0.4,0-0.7,0-1.1,0c-0.1,0-0.1,0-0.2,0c-0.3,0-0.7,0-1,0.1c-0.1,0-0.2,0-0.2,0c-0.3,0-0.7,0.1-1,0.2c-0.1,0-0.2,0-0.2,0.1
			c-0.3,0.1-0.6,0.2-1,0.3c-0.1,0-0.1,0-0.2,0.1c-0.3,0.1-0.7,0.3-1,0.4c0,0-0.1,0-0.1,0.1c-0.7,0.4-1.5,0.8-2.1,1.3
			c-0.1,0-0.1,0.1-0.1,0.1c-0.3,0.2-0.5,0.4-0.8,0.7c-0.1,0.1-0.2,0.2-0.3,0.3c-0.2,0.2-0.4,0.4-0.6,0.6c-0.1,0.1-0.2,0.3-0.3,0.4
			c-0.2,0.2-0.3,0.4-0.5,0.7c-0.1,0.2-0.2,0.3-0.3,0.5c-0.1,0.2-0.3,0.5-0.4,0.7c-0.1,0.2-0.2,0.3-0.2,0.5c-0.1,0.3-0.2,0.5-0.3,0.8
			c-0.1,0.2-0.1,0.4-0.2,0.6c-0.1,0.3-0.2,0.6-0.2,0.9c0,0.2-0.1,0.4-0.1,0.6c-0.1,0.3-0.1,0.7-0.2,1.1c0,0.2-0.1,0.4-0.1,0.5
			c-0.1,0.6-0.1,1.1-0.1,1.7c0,17.9,0,41,0,41C130.3,125.5,137.3,107.7,142.3,98.1L142.3,98.1z"/>
		<path fill="#E6A06B" d="M102.3,142.7c-3.8-5.1-16.4,2.2-33.2,4.7c-16.7,2.5-43.6-7.4-40.2-0.8C34.9,158.1,106.1,147.9,102.3,142.7
			z"/>
		<path fill="#D96A66" d="M38.7,475.3c-1.9,0-3.7-0.5-5.3-1.4l-10.6,267h109l-9.6-267c-1.5,0.9-3.3,1.3-5.2,1.3H38.7z"/>
		<path fill="#D34C55" d="M45.1,452.8h-6.4c-6,0-10.8,4.8-10.8,10.8v0.8c0,4.1,2.2,7.6,5.6,9.4c1.6,0.9,3.3,1.4,5.3,1.4h78.4
			c1.9,0,3.7-0.5,5.2-1.3c3.3-1.8,5.6-5.4,5.6-9.5v-0.8c0-6-4.8-10.8-10.8-10.8h-6H68.5H45.1z"/>
		<path fill="#95D0F7" d="M76.5,249.2H46.1c-0.3,0-0.7,0-1,0.1c-5.2,0.5-9.2,4.8-9.2,10.1v2.2c0,5.3,4,9.6,9.2,10.1
			c0.3,0,0.7,0.1,1,0.1h27.2h37.4c0.1,0,0.3,0,0.4,0c5.4-0.2,9.8-4.7,9.8-10.2v-2.2c0-5.5-4.4-10-9.8-10.2c-0.1,0-0.2,0-0.4,0H76.5z
			"/>
	</g>
</g>
<g id="Designed_by_Vecteezy">
</g>
</svg>
