<?xml version="1.0" encoding="utf-8"?>
<!-- Generator: Adobe Illustrator 18.0.0, SVG Export Plug-In . SVG Version: 6.00 Build 0)  -->
<!DOCTYPE svg PUBLIC "-//W3C//DTD SVG 1.1//EN" "http://www.w3.org/Graphics/SVG/1.1/DTD/svg11.dtd">
<svg version="1.1" xmlns="http://www.w3.org/2000/svg" xmlns:xlink="http://www.w3.org/1999/xlink" x="0px" y="0px"
	 viewBox="0 0 178.5 646.4" enable-background="new 0 0 178.5 646.4" xml:space="preserve">
<g id="_x31_">
	<g>
		<path fill="#F9DA8D" d="M148.3,93.6L148.3,93.6C148.3,93.6,148.3,93.6,148.3,93.6c-0.4-0.1-0.8-0.1-1.2-0.1c0,0-0.1,0-0.1,0
			c-0.4,0-0.7,0-1.1,0c-0.1,0-0.1,0-0.2,0c-0.3,0-0.7,0-1,0.1c-0.1,0-0.2,0-0.2,0c-0.3,0-0.6,0.1-1,0.2c-0.1,0-0.2,0-0.2,0.1
			c-0.3,0.1-0.6,0.2-1,0.3c-0.1,0-0.1,0-0.2,0.1c-0.3,0.1-0.7,0.3-1,0.4c0,0-0.1,0-0.1,0.1c-0.7,0.4-1.5,0.8-2.1,1.3
			c-0.1,0-0.1,0.1-0.1,0.1c-0.3,0.2-0.5,0.4-0.8,0.7c-0.1,0.1-0.2,0.2-0.3,0.3c-0.2,0.2-0.4,0.4-0.6,0.6c-0.1,0.1-0.2,0.3-0.3,0.4
			c-0.2,0.2-0.3,0.4-0.5,0.7c-0.1,0.2-0.2,0.3-0.3,0.5c-0.1,0.2-0.3,0.5-0.4,0.7c-0.1,0.2-0.2,0.3-0.2,0.5c-0.1,0.3-0.2,0.5-0.3,0.8
			c-0.1,0.2-0.1,0.4-0.2,0.6c-0.1,0.3-0.2,0.6-0.2,0.9c0,0.2-0.1,0.4-0.1,0.6c-0.1,0.3-0.1,0.7-0.2,1.1c0,0.2-0.1,0.4-0.1,0.5
			c-0.1,0.6-0.1,1.1-0.1,1.7c0,17.9,0,41,0,41h-5.1c0,0,1.7-87.1,0-106.7c-0.8-9-5.5-12.6-10.4-12.7v0h0c-2.5-0.1-5.1,0.8-7.2,2.3
			c0,0-0.1,0.1-0.1,0.1c-0.2,0.2-0.5,0.4-0.7,0.6c-0.1,0.1-0.1,0.1-0.2,0.2c-0.2,0.2-0.4,0.4-0.6,0.6c-0.1,0.1-0.2,0.2-0.2,0.3
			c-0.2,0.2-0.3,0.4-0.5,0.5c-0.1,0.1-0.2,0.2-0.2,0.3c-0.1,0.2-0.3,0.4-0.4,0.6c-0.1,0.1-0.2,0.2-0.2,0.4c-0.1,0.2-0.2,0.4-0.3,0.6
			c-0.1,0.1-0.1,0.3-0.2,0.4c-0.1,0.2-0.2,0.4-0.3,0.6c-0.1,0.1-0.1,0.3-0.2,0.4c-0.1,0.2-0.1,0.4-0.2,0.6c0,0.1-0.1,0.3-0.1,0.4
			c-0.1,0.2-0.1,0.5-0.1,0.7c0,0.1,0,0.2-0.1,0.4c0,0.4-0.1,0.8-0.1,1.2c0,12,0,70,0,70h-5.1c0,0,0-66.6,0-85.4
			c0-7-3.1-10.3-6.9-11.2l0,0l0,0c-0.4-0.1-0.8-0.1-1.2-0.2c0,0-0.1,0-0.1,0c-0.4,0-0.7,0-1.1,0c-0.1,0-0.2,0-0.3,0
			c-0.3,0-0.7,0-1,0.1c-0.1,0-0.2,0-0.2,0c-0.8,0.1-1.7,0.3-2.5,0.6c-0.1,0-0.1,0-0.2,0.1c-0.3,0.1-0.7,0.3-1,0.4
			c-0.1,0-0.2,0.1-0.3,0.1c-0.3,0.1-0.6,0.3-0.9,0.5c-0.1,0.1-0.2,0.1-0.3,0.2c-0.4,0.2-0.7,0.4-1.1,0.7c0,0,0,0,0,0
			c-0.4,0.2-0.7,0.5-1,0.8c-0.1,0.1-0.2,0.1-0.2,0.2c-0.2,0.2-0.5,0.4-0.7,0.6c-0.1,0.1-0.2,0.2-0.3,0.3c-0.2,0.2-0.4,0.4-0.6,0.7
			c-0.1,0.1-0.2,0.2-0.2,0.3c-0.2,0.3-0.5,0.6-0.7,0.9c0,0,0,0,0,0.1c-0.2,0.3-0.4,0.7-0.6,1c-0.1,0.1-0.1,0.2-0.1,0.3
			c-0.1,0.3-0.2,0.5-0.3,0.8c0,0.1-0.1,0.3-0.1,0.4c-0.1,0.3-0.1,0.5-0.2,0.8c0,0.1,0,0.2-0.1,0.4c-0.1,0.4-0.1,0.8-0.1,1.2
			c0,11.1,0,84.5,0,84.5h-7.7c0,0,0-56.3,0-70.9c0-7.8-5.9-10.6-11.5-9.8v0c0,0,0,0,0,0c-0.9,0.1-1.8,0.4-2.6,0.7c0,0,0,0,0,0
			c-0.2,0.1-0.4,0.2-0.6,0.3c-0.1,0-0.2,0.1-0.2,0.1c-0.2,0.1-0.4,0.2-0.5,0.3c-0.1,0.1-0.2,0.1-0.3,0.2c-0.2,0.1-0.3,0.2-0.5,0.3
			c-0.1,0.1-0.2,0.1-0.3,0.2c-0.1,0.1-0.3,0.2-0.4,0.3c-0.1,0.1-0.2,0.2-0.3,0.3c-0.1,0.1-0.2,0.2-0.4,0.3c-0.1,0.1-0.2,0.2-0.3,0.3
			c-0.1,0.1-0.2,0.2-0.3,0.3c-0.1,0.1-0.2,0.2-0.3,0.4c-0.1,0.1-0.2,0.2-0.3,0.4c-0.1,0.1-0.2,0.3-0.3,0.4c-0.1,0.1-0.2,0.2-0.2,0.4
			c-0.1,0.1-0.2,0.3-0.2,0.4c-0.1,0.1-0.1,0.3-0.2,0.4c-0.1,0.2-0.1,0.3-0.2,0.5c-0.1,0.1-0.1,0.3-0.2,0.4c-0.1,0.2-0.1,0.4-0.2,0.6
			c0,0.1-0.1,0.3-0.1,0.4c0,0.2-0.1,0.4-0.1,0.7c0,0.1,0,0.2-0.1,0.3c0,0.3-0.1,0.7-0.1,1.1c0,12,0,70,0,70h-7.4c0,0,0-38.4,0-54.6
			c0-8.6-6-11.9-11.9-11.1v0c0,0,0,0,0,0c-0.2,0-0.4,0.1-0.7,0.1c-0.1,0-0.2,0-0.4,0.1c-0.2,0-0.4,0.1-0.6,0.2
			c-0.1,0-0.3,0.1-0.4,0.1c-0.2,0.1-0.4,0.1-0.6,0.2c-0.1,0.1-0.3,0.1-0.4,0.2c-0.2,0.1-0.3,0.1-0.5,0.2c-0.1,0.1-0.3,0.1-0.4,0.2
			c-0.2,0.1-0.3,0.2-0.5,0.3c-0.1,0.1-0.3,0.2-0.4,0.2c-0.2,0.1-0.3,0.2-0.5,0.3c-0.1,0.1-0.3,0.2-0.4,0.3c-0.1,0.1-0.3,0.2-0.4,0.3
			c-0.1,0.1-0.3,0.2-0.4,0.3c-0.1,0.1-0.3,0.2-0.4,0.3c-0.1,0.1-0.3,0.2-0.4,0.4c-0.1,0.1-0.2,0.2-0.4,0.4c-0.1,0.1-0.3,0.3-0.4,0.4
			c-0.1,0.1-0.2,0.3-0.3,0.4c-0.1,0.2-0.2,0.3-0.4,0.5c-0.1,0.1-0.2,0.3-0.3,0.4c-0.1,0.2-0.2,0.3-0.3,0.5c-0.1,0.1-0.2,0.3-0.3,0.4
			c-0.1,0.2-0.2,0.4-0.3,0.6c-0.1,0.1-0.1,0.3-0.2,0.4c-0.1,0.2-0.2,0.4-0.2,0.6c-0.1,0.1-0.1,0.3-0.2,0.4c-0.1,0.2-0.1,0.5-0.2,0.8
			c0,0.1-0.1,0.3-0.1,0.4c-0.1,0.4-0.2,0.8-0.2,1.2c-1.7,13.7-3.4,115.3,0,122.1c2.3,4.7,11.2,24.7,30.4,37.8v17.5
			c-14.2,2.8-17.4,6.8-16.5,14.2c1.2,9.7,1.4,19.1,10,18c2.4,10.1,3.8,20.2-2.8,27.3c-8.8,9.5-12.7,22.3-7.2,31.9
			c5.5,9.6,14.5,18.6,7.5,30.6s-15.9,18.9-7.5,28.5c8.5,9.5,14.5,3.2,7.5,18.4c-7,15.2-11.9,21.2-7.5,32.2c4.5,11,10.5,29,8.5,38
			s-17.9,15-8.5,26c9.5,11,14.5,33,7.5,49s-16.9,26-7.5,37c9.5,11-10.5,45.2,7.5,65.1h89.5c0,0-6.5-16.5,0-31.3
			c6.5-14.8,7.5-28.8,0-39.8c-7.5-11-8.5-20,0-36c8.5-16,2.5-17,0-32c-2.5-15-16.4-45-5.5-57c11-12,8.9-19.6,5.5-31.8
			c-3.5-12.2-11.4-26.8-5.5-34c6-7.2,10.9-14.2,5.5-26.2c-5.5-12-7.4-11.3-5.5-25.6c2-14.4,1-24.9,0-33.1c-1-8.2-1-21,0-29.6
			c0.3-2.6,0.7-6.1,1-9.8c3.2-0.8,5.5-3.5,7.1-9.9c2.4-9.7-5-17.2-17.1-21.2v-8.9c28.3-10.7,41.2-37.1,41.8-46.1
			c0.9-12,0.9-52.1,0-68.3C158.6,98.6,153.7,94.5,148.3,93.6z"/>
	</g>
	<g>
		<path fill="#EDB886" d="M46.7,32.8c0.1-0.1,0.2-0.3,0.2-0.4C46.9,32.6,46.8,32.7,46.7,32.8z"/>
		<path fill="#EDB886" d="M45.9,34.5c0-0.1,0.1-0.3,0.2-0.4C46,34.3,46,34.4,45.9,34.5z"/>
		<path fill="#EDB886" d="M46.3,33.6c0.1-0.1,0.1-0.3,0.2-0.4C46.4,33.4,46.3,33.5,46.3,33.6z"/>
		<path fill="#EDB886" d="M50.7,29.1c0.2-0.1,0.3-0.2,0.5-0.3C51,28.9,50.9,29,50.7,29.1z"/>
		<path fill="#EDB886" d="M47.2,32c0.1-0.1,0.2-0.2,0.3-0.4C47.4,31.8,47.3,31.9,47.2,32z"/>
		<path fill="#EDB886" d="M47.8,31.3c0.1-0.1,0.2-0.2,0.3-0.3C48,31.1,47.9,31.2,47.8,31.3z"/>
		<path fill="#EDB886" d="M48.5,30.7c0.1-0.1,0.2-0.2,0.4-0.3C48.7,30.4,48.6,30.5,48.5,30.7z"/>
		<path fill="#EDB886" d="M49.2,30.1c0.1-0.1,0.3-0.2,0.4-0.3C49.4,29.9,49.3,30,49.2,30.1z"/>
		<path fill="#EDB886" d="M49.9,29.5c0.2-0.1,0.3-0.2,0.5-0.3C50.2,29.3,50.1,29.4,49.9,29.5z"/>
		<path fill="#EDB886" d="M24.6,42.1c0.2-0.1,0.4-0.1,0.6-0.2C24.9,42,24.7,42.1,24.6,42.1z"/>
		<path fill="#EDB886" d="M17.6,46.6c0.1-0.1,0.2-0.3,0.3-0.4C17.8,46.3,17.7,46.5,17.6,46.6z"/>
		<path fill="#EDB886" d="M18.3,45.8c0.1-0.1,0.2-0.2,0.4-0.4C18.6,45.5,18.5,45.7,18.3,45.8z"/>
		<path fill="#EDB886" d="M17,47.5c0.1-0.1,0.2-0.3,0.3-0.4C17.2,47.2,17.1,47.3,17,47.5z"/>
		<path fill="#EDB886" d="M19.9,44.4c0.1-0.1,0.3-0.2,0.4-0.3C20.2,44.2,20.1,44.3,19.9,44.4z"/>
		<path fill="#EDB886" d="M19.1,45c0.1-0.1,0.3-0.2,0.4-0.3C19.4,44.8,19.2,44.9,19.1,45z"/>
		<path fill="#EDB886" d="M16.4,48.4c0.1-0.1,0.2-0.3,0.3-0.4C16.6,48.2,16.5,48.3,16.4,48.4z"/>
		<path fill="#EDB886" d="M15.5,50.5c0-0.2,0.1-0.3,0.2-0.4C15.6,50.3,15.5,50.4,15.5,50.5z"/>
		<path fill="#EDB886" d="M15.2,51.7c0-0.1,0.1-0.3,0.1-0.4C15.3,51.4,15.2,51.6,15.2,51.7z"/>
		<path fill="#EDB886" d="M15.9,49.5c0.1-0.2,0.1-0.3,0.2-0.4C16,49.2,16,49.3,15.9,49.5z"/>
		<path fill="#EDB886" d="M21.7,43.2c0.2-0.1,0.3-0.2,0.5-0.3C22,43.1,21.9,43.2,21.7,43.2z"/>
		<path fill="#EDB886" d="M45.5,36.5c0-0.1,0-0.2,0.1-0.3C45.5,36.3,45.5,36.4,45.5,36.5z"/>
		<path fill="#EDB886" d="M25.5,41.9c0.2,0,0.4-0.1,0.7-0.1C25.9,41.8,25.7,41.9,25.5,41.9z"/>
		<path fill="#EDB886" d="M45.6,35.5c0-0.1,0.1-0.3,0.1-0.4C45.7,35.2,45.7,35.3,45.6,35.5z"/>
		<path fill="#EDB886" d="M20.8,43.8c0.2-0.1,0.3-0.2,0.5-0.3C21.1,43.6,20.9,43.7,20.8,43.8z"/>
		<path fill="#EDB886" d="M51.5,28.7c0.2-0.1,0.4-0.2,0.6-0.3C51.9,28.5,51.7,28.6,51.5,28.7z"/>
		<path fill="#EDB886" d="M102.4,34.5c0.1-0.2,0.2-0.4,0.3-0.6C102.6,34.1,102.5,34.3,102.4,34.5z"/>
		<path fill="#EDB886" d="M23.6,42.4c0.2-0.1,0.4-0.1,0.6-0.2C24,42.3,23.8,42.4,23.6,42.4z"/>
		<path fill="#EDB886" d="M22.6,42.8c0.2-0.1,0.3-0.2,0.5-0.2C23,42.6,22.8,42.7,22.6,42.8z"/>
		<path fill="#EDB886" d="M74.3,21.2c0.1-0.3,0.2-0.5,0.3-0.8C74.5,20.6,74.4,20.9,74.3,21.2z"/>
		<path fill="#EDB886" d="M104.2,31.9c0.2-0.2,0.4-0.4,0.6-0.6C104.6,31.5,104.4,31.7,104.2,31.9z"/>
		<path fill="#EDB886" d="M135.3,94.6c0.3-0.2,0.7-0.3,1-0.4C136,94.3,135.7,94.5,135.3,94.6z"/>
		<path fill="#EDB886" d="M136.5,94.1c0.3-0.1,0.6-0.2,1-0.3C137.2,93.9,136.9,94,136.5,94.1z"/>
		<path fill="#EDB886" d="M133.1,96c0.7-0.5,1.4-1,2.1-1.3C134.5,95,133.7,95.5,133.1,96z"/>
		<path fill="#EDB886" d="M105,31.2c0.2-0.2,0.5-0.4,0.7-0.6C105.5,30.8,105.2,31,105,31.2z"/>
		<path fill="#EDB886" d="M132.2,96.8c0.2-0.2,0.5-0.5,0.8-0.7C132.7,96.4,132.4,96.6,132.2,96.8z"/>
		<path fill="#EDB886" d="M140.2,93.5c0.4,0,0.7,0,1.1,0C140.9,93.5,140.6,93.5,140.2,93.5z"/>
		<path fill="#EDB886" d="M101.6,36.6c0.1-0.2,0.1-0.4,0.2-0.6C101.7,36.1,101.6,36.4,101.6,36.6z"/>
		<path fill="#EDB886" d="M137.8,93.8c0.3-0.1,0.6-0.1,1-0.2C138.4,93.7,138.1,93.7,137.8,93.8z"/>
		<path fill="#EDB886" d="M139,93.6c0.3,0,0.7-0.1,1-0.1C139.6,93.5,139.3,93.5,139,93.6z"/>
		<path fill="#EDB886" d="M129.9,100c0.1-0.2,0.2-0.5,0.4-0.7C130.2,99.5,130,99.8,129.9,100z"/>
		<path fill="#EDB886" d="M101.2,39.3c0-0.4,0-0.8,0.1-1.2C101.2,38.5,101.2,38.9,101.2,39.3z"/>
		<path fill="#EDB886" d="M128.5,106.7c0-0.6,0-1.2,0.1-1.7C128.5,105.5,128.5,106.1,128.5,106.7z"/>
		<path fill="#EDB886" d="M129.4,101.3c0.1-0.3,0.2-0.5,0.3-0.8C129.6,100.8,129.5,101.1,129.4,101.3z"/>
		<path fill="#EDB886" d="M128.7,104.4c0-0.4,0.1-0.7,0.2-1.1C128.8,103.7,128.7,104.1,128.7,104.4z"/>
		<path fill="#EDB886" d="M101.3,37.7c0-0.2,0.1-0.5,0.1-0.7C101.4,37.2,101.4,37.5,101.3,37.7z"/>
		<path fill="#EDB886" d="M131.3,97.8c0.2-0.2,0.4-0.4,0.6-0.6C131.7,97.3,131.5,97.5,131.3,97.8z"/>
		<path fill="#EDB886" d="M87.9,12.5c0.4,0,0.8,0.1,1.2,0.2C88.7,12.6,88.3,12.6,87.9,12.5z"/>
		<path fill="#EDB886" d="M130.6,98.8c0.1-0.2,0.3-0.5,0.5-0.7C130.9,98.4,130.7,98.6,130.6,98.8z"/>
		<path fill="#EDB886" d="M105.8,30.5c2.1-1.5,4.7-2.4,7.2-2.3C110.5,28.1,107.9,29,105.8,30.5z"/>
		<path fill="#EDB886" d="M82.8,13.3c0.8-0.3,1.6-0.5,2.5-0.6C84.4,12.8,83.6,13,82.8,13.3z"/>
		<path fill="#EDB886" d="M76.3,17.7c0.2-0.2,0.4-0.4,0.6-0.7C76.7,17.3,76.5,17.5,76.3,17.7z"/>
		<path fill="#EDB886" d="M75.4,18.9c0.2-0.3,0.4-0.6,0.7-0.9C75.8,18.3,75.6,18.6,75.4,18.9z"/>
		<path fill="#EDB886" d="M77.1,16.8c0.2-0.2,0.5-0.4,0.7-0.6C77.6,16.3,77.4,16.6,77.1,16.8z"/>
		<path fill="#EDB886" d="M78.1,15.9c0.3-0.3,0.7-0.5,1-0.8C78.7,15.4,78.4,15.7,78.1,15.9z"/>
		<path fill="#EDB886" d="M129,102.8c0.1-0.3,0.1-0.6,0.2-0.9C129.1,102.2,129,102.5,129,102.8z"/>
		<path fill="#EDB886" d="M73.9,23.9c0-0.4,0-0.8,0.1-1.2C73.9,23.1,73.9,23.5,73.9,23.9z"/>
		<path fill="#EDB886" d="M74,22.3c0.1-0.3,0.1-0.5,0.2-0.8C74.1,21.8,74.1,22.1,74,22.3z"/>
		<path fill="#EDB886" d="M79.1,15.1c0.3-0.2,0.7-0.5,1.1-0.7C79.8,14.7,79.4,14.9,79.1,15.1z"/>
		<path fill="#EDB886" d="M74.8,20.1c0.2-0.4,0.4-0.7,0.6-1C75.1,19.3,74.9,19.7,74.8,20.1z"/>
		<path fill="#EDB886" d="M101.9,35.5c0.1-0.2,0.2-0.4,0.3-0.6C102.1,35.1,102,35.3,101.9,35.5z"/>
		<path fill="#EDB886" d="M85.5,12.6c0.3,0,0.7-0.1,1-0.1C86.1,12.5,85.8,12.6,85.5,12.6z"/>
		<path fill="#EDB886" d="M141.4,93.5c0.4,0,0.8,0.1,1.2,0.1C142.2,93.6,141.8,93.5,141.4,93.5z"/>
		<path fill="#EDB886" d="M86.7,12.5c0.4,0,0.7,0,1.1,0C87.5,12.5,87.1,12.5,86.7,12.5z"/>
		<path fill="#EDB886" d="M103.5,32.7c0.2-0.2,0.3-0.4,0.5-0.5C103.8,32.4,103.7,32.5,103.5,32.7z"/>
		<path fill="#EDB886" d="M80.4,14.3c0.3-0.2,0.6-0.3,0.9-0.5C81,14,80.7,14.2,80.4,14.3z"/>
		<path fill="#EDB886" d="M52.1,28.4c0.8-0.3,1.7-0.6,2.6-0.7C53.8,27.9,52.9,28.1,52.1,28.4z"/>
		<path fill="#EDB886" d="M102.9,33.6c0.1-0.2,0.3-0.4,0.4-0.6C103.2,33.2,103,33.4,102.9,33.6z"/>
		<path fill="#EDB886" d="M142.6,93.6c-5,9.6-12,27.4-14.1,54h-5.1c0,0,1.7-87.1,0-106.7c-0.8-9-5.5-12.6-10.4-12.7
			c-4,10-9.7,32.4-11.8,81h-5.1c0,0,0-66.6,0-85.4c0-7-3.1-10.3-6.9-11.2C85,23.8,75.3,55.4,73.9,108.4h-7.7c0,0,0-56.3,0-70.9
			c0-7.8-5.9-10.6-11.5-9.8c-2.1,14.4-8.8,62.7-9.3,79.8H38c0,0,0-38.4,0-54.6c0-8.6-6-11.9-11.9-11.1c0,0-11.9,86.2,0,120.4
			C38,196.3,62.8,216,91.8,216c12.8,0,2.1,6-8.3,10.2c10.5-0.7,20.2,0.3,28,2.9v-8.9c28.3-10.7,41.2-37.1,41.8-46.1
			c0.9-12,0.9-52.1,0-68.3C152.9,98.6,148,94.5,142.6,93.6z M29.3,142.1c-3.4-6.6,23.5,3.3,40.2,0.8c16.7-2.5,29.4-9.8,33.2-4.7
			C106.5,143.4,35.2,153.7,29.3,142.1z M98.5,170.3c-12.1,5.2-35.6,42.6-32.3,23.8c3.3-18.8,45.5-52.8,46.1-47.6
			C113.1,154.4,110.6,165,98.5,170.3z"/>
		<path fill="#EDB886" d="M81.6,13.7c0.3-0.1,0.7-0.3,1-0.4C82.3,13.5,81.9,13.6,81.6,13.7z"/>
		<path fill="#E6A06B" d="M91.8,216c-29,0-53.8-19.6-65.7-53.8c-11.9-34.1,0-120.4,0-120.4v0c0,0,0,0,0,0c-0.2,0-0.4,0.1-0.7,0.1
			c-0.1,0-0.2,0-0.4,0.1c-0.2,0-0.4,0.1-0.6,0.2c-0.1,0-0.3,0.1-0.4,0.1c-0.2,0.1-0.4,0.1-0.6,0.2c-0.1,0.1-0.3,0.1-0.4,0.2
			c-0.2,0.1-0.3,0.1-0.5,0.2c-0.1,0.1-0.3,0.1-0.4,0.2c-0.2,0.1-0.3,0.2-0.5,0.3c-0.1,0.1-0.3,0.2-0.4,0.2c-0.2,0.1-0.3,0.2-0.5,0.3
			c-0.1,0.1-0.3,0.2-0.4,0.3c-0.1,0.1-0.3,0.2-0.4,0.3c-0.1,0.1-0.3,0.2-0.4,0.3c-0.1,0.1-0.3,0.2-0.4,0.3c-0.1,0.1-0.3,0.2-0.4,0.4
			c-0.1,0.1-0.2,0.2-0.4,0.4c-0.1,0.1-0.3,0.3-0.4,0.4c-0.1,0.1-0.2,0.3-0.3,0.4c-0.1,0.2-0.2,0.3-0.4,0.5c-0.1,0.1-0.2,0.3-0.3,0.4
			c-0.1,0.2-0.2,0.3-0.3,0.5c-0.1,0.1-0.2,0.3-0.3,0.4c-0.1,0.2-0.2,0.4-0.3,0.6c-0.1,0.1-0.1,0.3-0.2,0.4c-0.1,0.2-0.2,0.4-0.2,0.6
			c-0.1,0.1-0.1,0.3-0.2,0.4c-0.1,0.2-0.1,0.5-0.2,0.8c0,0.1-0.1,0.3-0.1,0.4c-0.1,0.4-0.2,0.8-0.2,1.2c-1.7,13.7-3.4,115.3,0,122.1
			c2.3,4.7,11.2,24.7,30.4,37.8v17.5c8.4-1.7,20.6-2.9,38-4.1C93.9,221.9,104.6,216,91.8,216z"/>
		<path fill="#E6A06B" d="M66.2,194.1c-3.3,18.8,20.2-18.6,32.3-23.8c12.1-5.2,14.6-15.9,13.8-23.8
			C111.7,141.3,69.5,175.3,66.2,194.1z"/>
		<path fill="#E6A06B" d="M54.7,27.7C54.7,27.7,54.7,27.7,54.7,27.7c-0.9,0.1-1.8,0.4-2.6,0.7c0,0,0,0,0,0c-0.2,0.1-0.4,0.2-0.6,0.3
			c-0.1,0-0.2,0.1-0.2,0.1c-0.2,0.1-0.4,0.2-0.5,0.3c-0.1,0.1-0.2,0.1-0.3,0.2c-0.2,0.1-0.3,0.2-0.5,0.3c-0.1,0.1-0.2,0.1-0.3,0.2
			c-0.1,0.1-0.3,0.2-0.4,0.3c-0.1,0.1-0.2,0.2-0.3,0.3c-0.1,0.1-0.2,0.2-0.4,0.3c-0.1,0.1-0.2,0.2-0.3,0.3c-0.1,0.1-0.2,0.2-0.3,0.3
			c-0.1,0.1-0.2,0.2-0.3,0.4c-0.1,0.1-0.2,0.2-0.3,0.4c-0.1,0.1-0.2,0.3-0.3,0.4c-0.1,0.1-0.2,0.2-0.2,0.4c-0.1,0.1-0.2,0.3-0.2,0.4
			c-0.1,0.1-0.1,0.3-0.2,0.4c-0.1,0.2-0.1,0.3-0.2,0.5c-0.1,0.1-0.1,0.3-0.2,0.4c-0.1,0.2-0.1,0.4-0.2,0.6c0,0.1-0.1,0.3-0.1,0.4
			c0,0.2-0.1,0.4-0.1,0.7c0,0.1,0,0.2-0.1,0.3c0,0.3-0.1,0.7-0.1,1.1c0,12,0,70,0,70C45.9,90.4,52.7,42.2,54.7,27.7L54.7,27.7z"/>
		<path fill="#E6A06B" d="M89.1,12.7L89.1,12.7c-0.4-0.1-0.8-0.1-1.2-0.2c0,0-0.1,0-0.1,0c-0.4,0-0.7,0-1.1,0c-0.1,0-0.2,0-0.3,0
			c-0.3,0-0.7,0-1,0.1c-0.1,0-0.2,0-0.2,0c-0.8,0.1-1.7,0.3-2.5,0.6c-0.1,0-0.1,0-0.2,0.1c-0.3,0.1-0.7,0.3-1,0.4
			c-0.1,0-0.2,0.1-0.3,0.1c-0.3,0.1-0.6,0.3-0.9,0.5c-0.1,0.1-0.2,0.1-0.3,0.2c-0.4,0.2-0.7,0.4-1.1,0.7c0,0,0,0,0,0
			c-0.4,0.2-0.7,0.5-1,0.8c-0.1,0.1-0.2,0.1-0.2,0.2c-0.2,0.2-0.5,0.4-0.7,0.6c-0.1,0.1-0.2,0.2-0.3,0.3c-0.2,0.2-0.4,0.4-0.6,0.7
			c-0.1,0.1-0.2,0.2-0.2,0.3c-0.2,0.3-0.5,0.6-0.7,0.9c0,0,0,0,0,0.1c-0.2,0.3-0.4,0.7-0.6,1c-0.1,0.1-0.1,0.2-0.1,0.3
			c-0.1,0.3-0.2,0.5-0.3,0.8c0,0.1-0.1,0.3-0.1,0.4c-0.1,0.3-0.1,0.5-0.2,0.8c0,0.1,0,0.2-0.1,0.4c-0.1,0.4-0.1,0.8-0.1,1.2
			c0,11.1,0,84.5,0,84.5C75.3,55.4,85,23.8,89.1,12.7L89.1,12.7z"/>
		<path fill="#E6A06B" d="M113,28.2L113,28.2c-2.5-0.1-5.1,0.8-7.2,2.3c0,0-0.1,0.1-0.1,0.1c-0.2,0.2-0.5,0.4-0.7,0.6
			c-0.1,0.1-0.1,0.1-0.2,0.2c-0.2,0.2-0.4,0.4-0.6,0.6c-0.1,0.1-0.2,0.2-0.2,0.3c-0.2,0.2-0.3,0.4-0.5,0.5c-0.1,0.1-0.2,0.2-0.2,0.3
			c-0.1,0.2-0.3,0.4-0.4,0.6c-0.1,0.1-0.2,0.2-0.2,0.4c-0.1,0.2-0.2,0.4-0.3,0.6c-0.1,0.1-0.1,0.3-0.2,0.4c-0.1,0.2-0.2,0.4-0.3,0.6
			c-0.1,0.1-0.1,0.3-0.2,0.4c-0.1,0.2-0.1,0.4-0.2,0.6c0,0.1-0.1,0.3-0.1,0.4c-0.1,0.2-0.1,0.5-0.1,0.7c0,0.1,0,0.2-0.1,0.4
			c0,0.4-0.1,0.8-0.1,1.2c0,12,0,70,0,70C103.3,60.6,109,38.2,113,28.2L113,28.2z"/>
		<path fill="#E6A06B" d="M142.6,93.6C142.6,93.6,142.6,93.6,142.6,93.6c-0.4-0.1-0.8-0.1-1.2-0.1c0,0-0.1,0-0.1,0
			c-0.4,0-0.7,0-1.1,0c-0.1,0-0.1,0-0.2,0c-0.3,0-0.7,0-1,0.1c-0.1,0-0.2,0-0.2,0c-0.3,0-0.6,0.1-1,0.2c-0.1,0-0.2,0-0.2,0.1
			c-0.3,0.1-0.6,0.2-1,0.3c-0.1,0-0.1,0-0.2,0.1c-0.3,0.1-0.7,0.3-1,0.4c0,0-0.1,0-0.1,0.1c-0.7,0.4-1.5,0.8-2.1,1.3
			c-0.1,0-0.1,0.1-0.1,0.1c-0.3,0.2-0.5,0.4-0.8,0.7c-0.1,0.1-0.2,0.2-0.3,0.3c-0.2,0.2-0.4,0.4-0.6,0.6c-0.1,0.1-0.2,0.3-0.3,0.4
			c-0.2,0.2-0.3,0.4-0.5,0.7c-0.1,0.2-0.2,0.3-0.3,0.5c-0.1,0.2-0.3,0.5-0.4,0.7c-0.1,0.2-0.2,0.3-0.2,0.5c-0.1,0.3-0.2,0.5-0.3,0.8
			c-0.1,0.2-0.1,0.4-0.2,0.6c-0.1,0.3-0.2,0.6-0.2,0.9c0,0.2-0.1,0.4-0.1,0.6c-0.1,0.3-0.1,0.7-0.2,1.1c0,0.2-0.1,0.4-0.1,0.5
			c-0.1,0.6-0.1,1.1-0.1,1.7c0,17.9,0,41,0,41C130.7,121,137.7,103.2,142.6,93.6L142.6,93.6z"/>
		<path fill="#E6A06B" d="M102.6,138.2c-3.8-5.1-16.4,2.2-33.2,4.7c-16.7,2.5-43.6-7.4-40.2-0.8C35.2,153.7,106.5,143.4,102.6,138.2
			z"/>
		<path fill="#95D0F7" d="M101.2,256.4c-14.2-2.9-40.8-3.1-55.8,4c-2.6,1.2-4.7,1.9-6.5,2.1c2.4,10.1,3.8,20.2-2.8,27.3
			c-8.8,9.5-12.7,22.3-7.2,31.9c5.5,9.6,14.5,18.6,7.5,30.6s-15.9,18.9-7.5,28.5c8.5,9.5,14.5,3.2,7.5,18.4
			c-7,15.2-11.9,21.2-7.5,32.2c4.5,11,10.5,29,8.5,38s-17.9,15-8.5,26c9.5,11,14.5,33,7.5,49s-16.9,26-7.5,37
			c9.5,11-10.5,45.2,7.5,65.1h89.5c0,0-6.5-16.5,0-31.3c6.5-14.8,7.5-28.8,0-39.8c-7.5-11-8.5-20,0-36c8.5-16,2.5-17,0-32
			c-2.5-15-16.4-45-5.5-57c11-12,8.9-19.6,5.5-31.8c-3.5-12.2-11.4-26.8-5.5-34c6-7.2,10.9-14.2,5.5-26.2c-5.5-12-7.4-11.3-5.5-25.6
			c2-14.4,1-24.9,0-33.1c-1-8.2-1-21,0-29.6c0.3-2.6,0.7-6.1,1-9.8C116.6,261.4,109.8,258.1,101.2,256.4z"/>
		<path fill="#68A1DA" d="M83.5,226.2c-17.5,1.2-29.7,2.4-38,4.1c-14.2,2.8-17.4,6.8-16.5,14.2c1.2,9.7,1.4,19.1,10,18
			c1.8-0.2,3.9-0.9,6.5-2.1c15-7.1,41.6-7,55.8-4c8.6,1.8,15.4,5,20.2,3.8c3.2-0.8,5.5-3.5,7.1-9.9c2.4-9.7-5-17.2-17.1-21.2
			C103.7,226.6,93.9,225.5,83.5,226.2z"/>
	</g>
</g>
<g id="Designed_by_Vecteezy">
</g>
</svg>
