<?xml version="1.0" encoding="utf-8"?>
<!-- Generator: Adobe Illustrator 18.0.0, SVG Export Plug-In . SVG Version: 6.00 Build 0)  -->
<!DOCTYPE svg PUBLIC "-//W3C//DTD SVG 1.1//EN" "http://www.w3.org/Graphics/SVG/1.1/DTD/svg11.dtd">
<svg version="1.1" xmlns="http://www.w3.org/2000/svg" xmlns:xlink="http://www.w3.org/1999/xlink" x="0px" y="0px"
	 viewBox="0 0 238.5 661" enable-background="new 0 0 238.5 661" xml:space="preserve">
<g id="_x31_">
	<g>
		<path fill="#F9DA8D" d="M186.7,115.6L186.7,115.6C186.7,115.6,186.7,115.6,186.7,115.6c-0.4-0.1-0.8-0.1-1.2-0.1c0,0-0.1,0-0.1,0
			c-0.4,0-0.7,0-1.1,0c-0.1,0-0.1,0-0.2,0c-0.3,0-0.7,0-1,0.1c-0.1,0-0.2,0-0.2,0c-0.3,0-0.7,0.1-1,0.2c-0.1,0-0.2,0-0.2,0.1
			c-0.3,0.1-0.6,0.2-1,0.3c-0.1,0-0.1,0-0.2,0.1c-0.3,0.1-0.7,0.3-1,0.4c0,0-0.1,0-0.1,0.1c-0.7,0.4-1.5,0.8-2.1,1.3
			c-0.1,0-0.1,0.1-0.1,0.1c-0.3,0.2-0.5,0.4-0.8,0.7c-0.1,0.1-0.2,0.2-0.3,0.3c-0.2,0.2-0.4,0.4-0.6,0.6c-0.1,0.1-0.2,0.3-0.3,0.4
			c-0.2,0.2-0.3,0.4-0.5,0.7c-0.1,0.2-0.2,0.3-0.3,0.5c-0.1,0.2-0.3,0.5-0.4,0.7c-0.1,0.2-0.2,0.3-0.2,0.5c-0.1,0.3-0.2,0.5-0.3,0.8
			c-0.1,0.2-0.1,0.4-0.2,0.6c-0.1,0.3-0.2,0.6-0.2,0.9c0,0.2-0.1,0.4-0.1,0.6c-0.1,0.3-0.1,0.7-0.2,1.1c0,0.2-0.1,0.4-0.1,0.5
			c-0.1,0.6-0.1,1.1-0.1,1.7c0,17.9,0,41,0,41h-5.1c0,0,1.7-87.1,0-106.7c-1.2-13.6-11.4-14.9-17.6-10.4c0,0-0.1,0.1-0.1,0.1
			c-0.2,0.2-0.5,0.4-0.7,0.6c-0.1,0.1-0.1,0.1-0.2,0.2c-0.2,0.2-0.4,0.4-0.6,0.5c-0.1,0.1-0.2,0.2-0.2,0.3c-0.2,0.2-0.3,0.4-0.5,0.5
			c-0.1,0.1-0.2,0.2-0.2,0.3c-0.1,0.2-0.3,0.4-0.4,0.6c-0.1,0.1-0.2,0.2-0.2,0.4c-0.1,0.2-0.2,0.4-0.3,0.6c-0.1,0.1-0.1,0.3-0.2,0.4
			c-0.1,0.2-0.2,0.4-0.3,0.6c-0.1,0.1-0.1,0.3-0.2,0.4c-0.1,0.2-0.1,0.4-0.2,0.6c0,0.1-0.1,0.3-0.1,0.4c-0.1,0.2-0.1,0.5-0.1,0.7
			c0,0.1,0,0.2-0.1,0.4c0,0.4-0.1,0.8-0.1,1.2c0,12,0,70,0,70h-5.1c0,0,0-66.6,0-85.4c0-7-3.1-10.3-6.9-11.2v0h0
			c-0.4-0.1-0.8-0.1-1.2-0.2c0,0-0.1,0-0.1,0c-0.4,0-0.7,0-1.1,0c-0.1,0-0.2,0-0.3,0c-0.3,0-0.7,0-1,0.1c-0.1,0-0.2,0-0.2,0
			c-0.8,0.1-1.7,0.3-2.5,0.6c-0.1,0-0.1,0-0.2,0.1c-0.3,0.1-0.7,0.3-1,0.4c-0.1,0-0.2,0.1-0.3,0.1c-0.3,0.1-0.6,0.3-0.9,0.5
			c-0.1,0.1-0.2,0.1-0.3,0.2c-0.4,0.2-0.7,0.4-1.1,0.7c0,0,0,0,0,0c-0.4,0.2-0.7,0.5-1,0.8c-0.1,0.1-0.2,0.1-0.2,0.2
			c-0.2,0.2-0.5,0.4-0.7,0.6c-0.1,0.1-0.2,0.2-0.3,0.3c-0.2,0.2-0.4,0.4-0.6,0.7c-0.1,0.1-0.2,0.2-0.2,0.3c-0.2,0.3-0.5,0.6-0.7,0.9
			c0,0,0,0,0,0.1c-0.2,0.3-0.4,0.7-0.6,1c-0.1,0.1-0.1,0.2-0.1,0.3c-0.1,0.3-0.2,0.5-0.3,0.8c0,0.1-0.1,0.3-0.1,0.4
			c-0.1,0.3-0.1,0.5-0.2,0.8c0,0.1,0,0.2-0.1,0.4c-0.1,0.4-0.1,0.8-0.1,1.2c0,11.1,0,84.5,0,84.5h-7.7c0,0,0-56.3,0-70.9
			c0-7.8-5.9-10.6-11.5-9.8v0c0,0,0,0,0,0c-0.9,0.1-1.8,0.4-2.6,0.7c0,0,0,0,0,0c-0.2,0.1-0.4,0.2-0.6,0.3c-0.1,0-0.2,0.1-0.2,0.1
			c-0.2,0.1-0.4,0.2-0.5,0.3c-0.1,0.1-0.2,0.1-0.3,0.2c-0.2,0.1-0.3,0.2-0.5,0.3c-0.1,0.1-0.2,0.1-0.3,0.2c-0.1,0.1-0.3,0.2-0.4,0.3
			c-0.1,0.1-0.2,0.2-0.3,0.3c-0.1,0.1-0.2,0.2-0.4,0.3c-0.1,0.1-0.2,0.2-0.3,0.3c-0.1,0.1-0.2,0.2-0.3,0.3c-0.1,0.1-0.2,0.2-0.3,0.4
			c-0.1,0.1-0.2,0.2-0.3,0.4c-0.1,0.1-0.2,0.3-0.3,0.4c-0.1,0.1-0.2,0.2-0.2,0.4c-0.1,0.1-0.2,0.3-0.2,0.4c-0.1,0.1-0.1,0.3-0.2,0.4
			c-0.1,0.2-0.1,0.3-0.2,0.5c-0.1,0.1-0.1,0.3-0.2,0.4c-0.1,0.2-0.1,0.4-0.2,0.6c0,0.1-0.1,0.3-0.1,0.4c0,0.2-0.1,0.4-0.1,0.7
			c0,0.1,0,0.2-0.1,0.3c0,0.3-0.1,0.7-0.1,1.1c0,12,0,70,0,70h-7.4c0,0,0-38.4,0-54.6c0-8.6-6-11.9-11.9-11.1l0,0c0,0,0,0,0,0
			c-0.2,0-0.4,0.1-0.6,0.1c-0.1,0-0.2,0-0.4,0.1c-0.2,0-0.4,0.1-0.6,0.2c-0.1,0-0.3,0.1-0.4,0.1c-0.2,0.1-0.4,0.1-0.6,0.2
			c-0.1,0.1-0.3,0.1-0.4,0.2c-0.2,0.1-0.3,0.1-0.5,0.2c-0.1,0.1-0.3,0.1-0.4,0.2c-0.2,0.1-0.3,0.2-0.5,0.3c-0.1,0.1-0.3,0.2-0.4,0.2
			c-0.2,0.1-0.3,0.2-0.5,0.3c-0.1,0.1-0.3,0.2-0.4,0.3c-0.1,0.1-0.3,0.2-0.4,0.3c-0.1,0.1-0.3,0.2-0.4,0.3c-0.1,0.1-0.3,0.2-0.4,0.3
			c-0.1,0.1-0.3,0.2-0.4,0.4c-0.1,0.1-0.2,0.2-0.4,0.4c-0.1,0.1-0.3,0.3-0.4,0.4c-0.1,0.1-0.2,0.3-0.3,0.4c-0.1,0.2-0.2,0.3-0.4,0.5
			c-0.1,0.1-0.2,0.3-0.3,0.4c-0.1,0.2-0.2,0.3-0.3,0.5c-0.1,0.1-0.2,0.3-0.3,0.4c-0.1,0.2-0.2,0.4-0.3,0.6c-0.1,0.1-0.1,0.3-0.2,0.4
			c-0.1,0.2-0.2,0.4-0.2,0.6c-0.1,0.1-0.1,0.3-0.2,0.4c-0.1,0.2-0.1,0.5-0.2,0.8c0,0.1-0.1,0.3-0.1,0.4c-0.1,0.4-0.2,0.8-0.2,1.2
			c-1.7,13.7-3.4,115.3,0,122.1c2.3,4.7,11.2,24.7,30.4,37.8v42.4h-6.4v17.1v20v21v20v21v20v21v20v21v20v21v20v21v20v21v20v21v20
			v11.4h78v-11.4v-20v-21v-20v-21v-20v-21v-20v-21v-20v-21v-20v-21v-20v-21v-20v-21v-20v-17.1h-5.6v-35
			c28.3-10.7,41.2-37.1,41.8-46.1c0.9-12,0.9-52.1,0-68.3C197,120.6,192.1,116.4,186.7,115.6z"/>
	</g>
	<g>
		<path fill="#EDB886" d="M85.7,54c0.1-0.1,0.2-0.2,0.3-0.4C85.8,53.7,85.8,53.8,85.7,54z"/>
		<path fill="#EDB886" d="M54.8,70.4c0.1-0.1,0.2-0.3,0.3-0.4C55,70.1,54.9,70.2,54.8,70.4z"/>
		<path fill="#EDB886" d="M86.3,53.2c0.1-0.1,0.2-0.2,0.3-0.3C86.5,53,86.4,53.1,86.3,53.2z"/>
		<path fill="#EDB886" d="M89.1,51c0.2-0.1,0.3-0.2,0.5-0.3C89.5,50.8,89.3,50.9,89.1,51z"/>
		<path fill="#EDB886" d="M54.3,71.4c0.1-0.2,0.1-0.3,0.2-0.4C54.5,71.1,54.4,71.2,54.3,71.4z"/>
		<path fill="#EDB886" d="M56.1,68.5c0.1-0.1,0.2-0.3,0.3-0.4C56.3,68.3,56.2,68.4,56.1,68.5z"/>
		<path fill="#EDB886" d="M56.8,67.7c0.1-0.1,0.2-0.2,0.4-0.4C57,67.5,56.9,67.6,56.8,67.7z"/>
		<path fill="#EDB886" d="M85.1,54.7c0.1-0.1,0.2-0.3,0.2-0.4C85.3,54.5,85.2,54.6,85.1,54.7z"/>
		<path fill="#EDB886" d="M55.4,69.4c0.1-0.1,0.2-0.3,0.3-0.4C55.6,69.1,55.5,69.3,55.4,69.4z"/>
		<path fill="#EDB886" d="M139.8,59.7c0-0.2,0.1-0.5,0.1-0.7C139.8,59.2,139.8,59.4,139.8,59.7z"/>
		<path fill="#EDB886" d="M139.6,61.2c0-0.4,0-0.8,0.1-1.2C139.7,60.4,139.6,60.8,139.6,61.2z"/>
		<path fill="#EDB886" d="M140,58.5c0.1-0.2,0.1-0.4,0.2-0.6C140.1,58.1,140.1,58.3,140,58.5z"/>
		<path fill="#EDB886" d="M181.1,115.6c-5,9.6-12,27.4-14.1,54h-5.1c0,0,1.7-87.1,0-106.7c-1.2-13.6-11.4-14.9-17.6-10.4
			c2.1-1.5,4.7-2.4,7.2-2.3c-4,10-9.7,32.4-11.8,81h-5.1c0,0,0-66.6,0-85.4c0-7-3.1-10.3-6.9-11.2c-4.1,11.1-13.9,42.7-15.3,95.7
			h-7.7c0,0,0-56.3,0-70.9c0-7.8-5.9-10.6-11.5-9.8c-2.1,14.4-8.8,62.7-9.3,79.8h-7.4c0,0,0-38.4,0-54.6c0-8.6-6-11.9-11.9-11.1
			c0,0-11.9,86.2,0,120.4c11.9,34.1,36.7,53.8,65.7,53.8c12.8,0,2.1,6-8.3,10.2c-3.2,1.3-6,12.8-8.3,29h36.3v-35
			c28.3-10.7,41.2-37.1,41.8-46.1c0.9-12,0.9-52.1,0-68.3C191.3,120.6,186.4,116.4,181.1,115.6z M67.7,164.1
			c-3.4-6.6,23.5,3.3,40.2,0.8c16.7-2.5,29.4-9.8,33.2-4.7C144.9,165.3,73.7,175.6,67.7,164.1z M136.9,192.2
			c-12.1,5.2-35.6,42.6-32.3,23.8c3.3-18.8,45.5-52.8,46.1-47.6C151.6,176.3,149,187,136.9,192.2z"/>
		<path fill="#EDB886" d="M53.9,72.5c0-0.2,0.1-0.3,0.2-0.4C54,72.2,54,72.3,53.9,72.5z"/>
		<path fill="#EDB886" d="M87.6,52c0.1-0.1,0.3-0.2,0.4-0.3C87.9,51.8,87.7,51.9,87.6,52z"/>
		<path fill="#EDB886" d="M88.3,51.5c0.2-0.1,0.3-0.2,0.5-0.3C88.7,51.3,88.5,51.4,88.3,51.5z"/>
		<path fill="#EDB886" d="M53.6,73.6c0-0.1,0.1-0.3,0.1-0.4C53.7,73.4,53.7,73.5,53.6,73.6z"/>
		<path fill="#EDB886" d="M86.9,52.6c0.1-0.1,0.2-0.2,0.4-0.3C87.1,52.4,87,52.5,86.9,52.6z"/>
		<path fill="#EDB886" d="M141.4,55.5c0.1-0.2,0.3-0.4,0.4-0.6C141.6,55.1,141.5,55.3,141.4,55.5z"/>
		<path fill="#EDB886" d="M61.1,64.7c0.2-0.1,0.3-0.2,0.5-0.2C61.4,64.6,61.2,64.6,61.1,64.7z"/>
		<path fill="#EDB886" d="M60.1,65.2c0.2-0.1,0.3-0.2,0.5-0.3C60.5,65,60.3,65.1,60.1,65.2z"/>
		<path fill="#EDB886" d="M140.8,56.4c0.1-0.2,0.2-0.4,0.3-0.6C141,56.1,140.9,56.2,140.8,56.4z"/>
		<path fill="#EDB886" d="M62,64.4c0.2-0.1,0.4-0.1,0.6-0.2C62.4,64.2,62.2,64.3,62,64.4z"/>
		<path fill="#EDB886" d="M63.9,63.8c0.2,0,0.4-0.1,0.6-0.1C64.4,63.8,64.2,63.8,63.9,63.8z"/>
		<path fill="#EDB886" d="M84.1,57.4c0-0.1,0.1-0.3,0.1-0.4C84.2,57.1,84.1,57.3,84.1,57.4z"/>
		<path fill="#EDB886" d="M63,64.1c0.2-0.1,0.4-0.1,0.6-0.2C63.4,64,63.2,64,63,64.1z"/>
		<path fill="#EDB886" d="M140.4,57.4c0.1-0.2,0.2-0.4,0.3-0.6C140.5,57,140.4,57.2,140.4,57.4z"/>
		<path fill="#EDB886" d="M84.7,55.6c0.1-0.1,0.1-0.3,0.2-0.4C84.8,55.3,84.8,55.4,84.7,55.6z"/>
		<path fill="#EDB886" d="M59.2,65.7c0.2-0.1,0.3-0.2,0.5-0.3C59.5,65.5,59.4,65.6,59.2,65.7z"/>
		<path fill="#EDB886" d="M57.5,67c0.1-0.1,0.3-0.2,0.4-0.3C57.8,66.7,57.7,66.9,57.5,67z"/>
		<path fill="#EDB886" d="M126.4,34.5c0.4,0,0.8,0.1,1.2,0.2C127.2,34.6,126.8,34.5,126.4,34.5z"/>
		<path fill="#EDB886" d="M142,54.6c0.1-0.2,0.3-0.4,0.5-0.5C142.3,54.3,142.1,54.5,142,54.6z"/>
		<path fill="#EDB886" d="M58.4,66.3c0.1-0.1,0.3-0.2,0.4-0.3C58.7,66.1,58.5,66.2,58.4,66.3z"/>
		<path fill="#EDB886" d="M84.3,56.5c0-0.1,0.1-0.3,0.2-0.4C84.4,56.2,84.4,56.3,84.3,56.5z"/>
		<path fill="#EDB886" d="M170.6,118.8c0.2-0.2,0.5-0.5,0.8-0.7C171.1,118.3,170.8,118.5,170.6,118.8z"/>
		<path fill="#EDB886" d="M175,116.1c0.3-0.1,0.6-0.2,1-0.3C175.6,115.9,175.3,115.9,175,116.1z"/>
		<path fill="#EDB886" d="M125.2,34.4c0.4,0,0.7,0,1.1,0C125.9,34.4,125.5,34.4,125.2,34.4z"/>
		<path fill="#EDB886" d="M171.5,117.9c0.7-0.5,1.4-1,2.1-1.3C172.9,117,172.2,117.4,171.5,117.9z"/>
		<path fill="#EDB886" d="M176.2,115.7c0.3-0.1,0.6-0.1,1-0.2C176.8,115.6,176.5,115.6,176.2,115.7z"/>
		<path fill="#EDB886" d="M173.8,116.5c0.3-0.2,0.7-0.3,1-0.4C174.4,116.3,174.1,116.4,173.8,116.5z"/>
		<path fill="#EDB886" d="M179.9,115.4c0.4,0,0.8,0.1,1.2,0.1C180.7,115.5,180.3,115.4,179.9,115.4z"/>
		<path fill="#EDB886" d="M178.6,115.4c0.4,0,0.7,0,1.1,0C179.4,115.4,179,115.4,178.6,115.4z"/>
		<path fill="#EDB886" d="M177.4,115.5c0.3,0,0.7-0.1,1-0.1C178.1,115.4,177.7,115.5,177.4,115.5z"/>
		<path fill="#EDB886" d="M83.9,58.4c0-0.1,0-0.2,0.1-0.3C84,58.2,83.9,58.3,83.9,58.4z"/>
		<path fill="#EDB886" d="M167,128.6c0-0.6,0-1.2,0.1-1.7C167,127.5,167,128,167,128.6z"/>
		<path fill="#EDB886" d="M167.4,124.7c0.1-0.3,0.1-0.6,0.2-0.9C167.5,124.1,167.5,124.4,167.4,124.7z"/>
		<path fill="#EDB886" d="M167.1,126.4c0-0.4,0.1-0.7,0.2-1.1C167.2,125.6,167.2,126,167.1,126.4z"/>
		<path fill="#EDB886" d="M143.4,53.1c0.2-0.2,0.5-0.4,0.7-0.6C143.9,52.7,143.7,52.9,143.4,53.1z"/>
		<path fill="#EDB886" d="M167.8,123.3c0.1-0.3,0.2-0.5,0.3-0.8C168,122.7,167.9,123,167.8,123.3z"/>
		<path fill="#EDB886" d="M169,120.8c0.1-0.2,0.3-0.5,0.5-0.7C169.3,120.3,169.2,120.5,169,120.8z"/>
		<path fill="#EDB886" d="M169.8,119.7c0.2-0.2,0.4-0.4,0.6-0.6C170.1,119.3,169.9,119.5,169.8,119.7z"/>
		<path fill="#EDB886" d="M168.4,121.9c0.1-0.2,0.2-0.5,0.4-0.7C168.6,121.5,168.5,121.7,168.4,121.9z"/>
		<path fill="#EDB886" d="M117.5,37.1c0.3-0.2,0.7-0.5,1.1-0.7C118.2,36.6,117.9,36.8,117.5,37.1z"/>
		<path fill="#EDB886" d="M142.7,53.8c0.2-0.2,0.4-0.4,0.6-0.5C143,53.5,142.9,53.7,142.7,53.8z"/>
		<path fill="#EDB886" d="M113.2,42c0.2-0.4,0.4-0.7,0.6-1C113.6,41.3,113.4,41.6,113.2,42z"/>
		<path fill="#EDB886" d="M113.8,40.9c0.2-0.3,0.4-0.6,0.7-0.9C114.2,40.2,114,40.6,113.8,40.9z"/>
		<path fill="#EDB886" d="M90.5,50.3c0.8-0.3,1.7-0.6,2.6-0.7C92.3,49.8,91.4,50,90.5,50.3z"/>
		<path fill="#EDB886" d="M114.7,39.7c0.2-0.2,0.4-0.4,0.6-0.7C115.1,39.2,114.9,39.4,114.7,39.7z"/>
		<path fill="#EDB886" d="M112.5,44.3c0.1-0.3,0.1-0.5,0.2-0.8C112.6,43.7,112.5,44,112.5,44.3z"/>
		<path fill="#EDB886" d="M112.8,43.1c0.1-0.3,0.2-0.5,0.3-0.8C113,42.6,112.9,42.8,112.8,43.1z"/>
		<path fill="#EDB886" d="M112.3,45.8c0-0.4,0-0.8,0.1-1.2C112.4,45,112.3,45.4,112.3,45.8z"/>
		<path fill="#EDB886" d="M120,35.7c0.3-0.1,0.7-0.3,1-0.4C120.7,35.4,120.4,35.5,120,35.7z"/>
		<path fill="#EDB886" d="M118.9,36.3c0.3-0.2,0.6-0.3,0.9-0.5C119.4,35.9,119.1,36.1,118.9,36.3z"/>
		<path fill="#EDB886" d="M121.2,35.2c0.8-0.3,1.6-0.5,2.5-0.6C122.8,34.7,122,34.9,121.2,35.2z"/>
		<path fill="#EDB886" d="M123.9,34.5c0.3,0,0.7-0.1,1-0.1C124.6,34.5,124.2,34.5,123.9,34.5z"/>
		<path fill="#EDB886" d="M115.6,38.7c0.2-0.2,0.5-0.4,0.7-0.6C116,38.3,115.8,38.5,115.6,38.7z"/>
		<path fill="#EDB886" d="M89.9,50.6c0.2-0.1,0.4-0.2,0.6-0.3C90.3,50.4,90.1,50.5,89.9,50.6z"/>
		<path fill="#EDB886" d="M116.5,37.9c0.3-0.3,0.7-0.5,1-0.8C117.2,37.3,116.8,37.6,116.5,37.9z"/>
		<path fill="#E6A06B" d="M121.9,248.1c10.4-4.3,21.2-10.2,8.3-10.2c-29,0-53.8-19.6-65.7-53.8c-11.9-34.1,0-120.4,0-120.4v0
			c0,0,0,0,0,0c-0.2,0-0.4,0.1-0.6,0.1c-0.1,0-0.2,0-0.4,0.1c-0.2,0-0.4,0.1-0.6,0.2c-0.1,0-0.3,0.1-0.4,0.1
			c-0.2,0.1-0.4,0.1-0.6,0.2c-0.1,0.1-0.3,0.1-0.4,0.2c-0.2,0.1-0.3,0.1-0.5,0.2c-0.1,0.1-0.3,0.1-0.4,0.2c-0.2,0.1-0.3,0.2-0.5,0.3
			c-0.1,0.1-0.3,0.2-0.4,0.2c-0.2,0.1-0.3,0.2-0.5,0.3c-0.1,0.1-0.3,0.2-0.4,0.3c-0.1,0.1-0.3,0.2-0.4,0.3c-0.1,0.1-0.3,0.2-0.4,0.3
			c-0.1,0.1-0.3,0.2-0.4,0.3c-0.1,0.1-0.3,0.2-0.4,0.4c-0.1,0.1-0.2,0.2-0.4,0.4c-0.1,0.1-0.3,0.3-0.4,0.4c-0.1,0.1-0.2,0.3-0.3,0.4
			c-0.1,0.2-0.2,0.3-0.4,0.5c-0.1,0.1-0.2,0.3-0.3,0.4c-0.1,0.2-0.2,0.3-0.3,0.5c-0.1,0.1-0.2,0.3-0.3,0.4c-0.1,0.2-0.2,0.4-0.3,0.6
			c-0.1,0.1-0.1,0.3-0.2,0.4c-0.1,0.2-0.2,0.4-0.2,0.6c-0.1,0.1-0.1,0.3-0.2,0.4c-0.1,0.2-0.1,0.5-0.2,0.8c0,0.1-0.1,0.3-0.1,0.4
			c-0.1,0.4-0.2,0.8-0.2,1.2c-1.7,13.7-3.4,115.3,0,122.1c2.3,4.7,11.2,24.7,30.4,37.8v42.4h29.7
			C115.9,260.9,118.7,249.5,121.9,248.1z"/>
		<path fill="#E6A06B" d="M104.6,216c-3.3,18.8,20.2-18.6,32.3-23.8c12.1-5.2,14.6-15.9,13.8-23.8
			C150.2,163.2,107.9,197.2,104.6,216z"/>
		<path fill="#E6A06B" d="M93.2,49.7C93.2,49.7,93.2,49.7,93.2,49.7c-0.9,0.1-1.8,0.4-2.6,0.7c0,0,0,0,0,0c-0.2,0.1-0.4,0.2-0.6,0.3
			c-0.1,0-0.2,0.1-0.2,0.1c-0.2,0.1-0.4,0.2-0.5,0.3c-0.1,0.1-0.2,0.1-0.3,0.2c-0.2,0.1-0.3,0.2-0.5,0.3c-0.1,0.1-0.2,0.1-0.3,0.2
			c-0.1,0.1-0.3,0.2-0.4,0.3c-0.1,0.1-0.2,0.2-0.3,0.3c-0.1,0.1-0.2,0.2-0.4,0.3c-0.1,0.1-0.2,0.2-0.3,0.3c-0.1,0.1-0.2,0.2-0.3,0.3
			c-0.1,0.1-0.2,0.2-0.3,0.4c-0.1,0.1-0.2,0.2-0.3,0.4c-0.1,0.1-0.2,0.3-0.3,0.4c-0.1,0.1-0.2,0.2-0.2,0.4c-0.1,0.1-0.2,0.3-0.2,0.4
			c-0.1,0.1-0.1,0.3-0.2,0.4c-0.1,0.2-0.1,0.3-0.2,0.5c-0.1,0.1-0.1,0.3-0.2,0.4c-0.1,0.2-0.1,0.4-0.2,0.6c0,0.1-0.1,0.3-0.1,0.4
			c0,0.2-0.1,0.4-0.1,0.7c0,0.1,0,0.2-0.1,0.3c0,0.3-0.1,0.7-0.1,1.1c0,12,0,70,0,70C84.3,112.4,91.1,64.1,93.2,49.7L93.2,49.7z"/>
		<path fill="#E6A06B" d="M127.6,34.7C127.6,34.7,127.6,34.7,127.6,34.7c-0.4-0.1-0.8-0.1-1.2-0.2c0,0-0.1,0-0.1,0
			c-0.4,0-0.7,0-1.1,0c-0.1,0-0.2,0-0.3,0c-0.3,0-0.7,0-1,0.1c-0.1,0-0.2,0-0.2,0c-0.8,0.1-1.7,0.3-2.5,0.6c-0.1,0-0.1,0-0.2,0.1
			c-0.3,0.1-0.7,0.3-1,0.4c-0.1,0-0.2,0.1-0.3,0.1c-0.3,0.1-0.6,0.3-0.9,0.5c-0.1,0.1-0.2,0.1-0.3,0.2c-0.4,0.2-0.7,0.4-1.1,0.7
			c0,0,0,0,0,0c-0.4,0.2-0.7,0.5-1,0.8c-0.1,0.1-0.2,0.1-0.2,0.2c-0.2,0.2-0.5,0.4-0.7,0.6c-0.1,0.1-0.2,0.2-0.3,0.3
			c-0.2,0.2-0.4,0.4-0.6,0.7c-0.1,0.1-0.2,0.2-0.2,0.3c-0.2,0.3-0.5,0.6-0.7,0.9c0,0,0,0,0,0.1c-0.2,0.3-0.4,0.7-0.6,1
			c-0.1,0.1-0.1,0.2-0.1,0.3c-0.1,0.3-0.2,0.5-0.3,0.8c0,0.1-0.1,0.3-0.1,0.4c-0.1,0.3-0.1,0.5-0.2,0.8c0,0.1,0,0.2-0.1,0.4
			c-0.1,0.4-0.1,0.8-0.1,1.2c0,11.1,0,84.5,0,84.5C113.7,77.3,123.5,45.7,127.6,34.7L127.6,34.7z"/>
		<path fill="#E6A06B" d="M144.3,52.4c0,0-0.1,0.1-0.1,0.1c-0.2,0.2-0.5,0.4-0.7,0.6c-0.1,0.1-0.1,0.1-0.2,0.2
			c-0.2,0.2-0.4,0.4-0.6,0.5c-0.1,0.1-0.2,0.2-0.2,0.3c-0.2,0.2-0.3,0.4-0.5,0.5c-0.1,0.1-0.2,0.2-0.2,0.3c-0.1,0.2-0.3,0.4-0.4,0.6
			c-0.1,0.1-0.2,0.2-0.2,0.4c-0.1,0.2-0.2,0.4-0.3,0.6c-0.1,0.1-0.1,0.3-0.2,0.4c-0.1,0.2-0.2,0.4-0.3,0.6c-0.1,0.1-0.1,0.3-0.2,0.4
			c-0.1,0.2-0.1,0.4-0.2,0.6c0,0.1-0.1,0.3-0.1,0.4c-0.1,0.2-0.1,0.5-0.1,0.7c0,0.1,0,0.2-0.1,0.4c0,0.4-0.1,0.8-0.1,1.2
			c0,12,0,70,0,70c2.1-48.6,7.8-71.1,11.8-81C148.9,50.1,146.4,50.9,144.3,52.4z"/>
		<path fill="#E6A06B" d="M181.1,115.6C181.1,115.6,181.1,115.6,181.1,115.6c-0.4-0.1-0.8-0.1-1.2-0.1c0,0-0.1,0-0.1,0
			c-0.4,0-0.7,0-1.1,0c-0.1,0-0.1,0-0.2,0c-0.3,0-0.7,0-1,0.1c-0.1,0-0.2,0-0.2,0c-0.3,0-0.7,0.1-1,0.2c-0.1,0-0.2,0-0.2,0.1
			c-0.3,0.1-0.6,0.2-1,0.3c-0.1,0-0.1,0-0.2,0.1c-0.3,0.1-0.7,0.3-1,0.4c0,0-0.1,0-0.1,0.1c-0.7,0.4-1.5,0.8-2.1,1.3
			c-0.1,0-0.1,0.1-0.1,0.1c-0.3,0.2-0.5,0.4-0.8,0.7c-0.1,0.1-0.2,0.2-0.3,0.3c-0.2,0.2-0.4,0.4-0.6,0.6c-0.1,0.1-0.2,0.3-0.3,0.4
			c-0.2,0.2-0.3,0.4-0.5,0.7c-0.1,0.2-0.2,0.3-0.3,0.5c-0.1,0.2-0.3,0.5-0.4,0.7c-0.1,0.2-0.2,0.3-0.2,0.5c-0.1,0.3-0.2,0.5-0.3,0.8
			c-0.1,0.2-0.1,0.4-0.2,0.6c-0.1,0.3-0.2,0.6-0.2,0.9c0,0.2-0.1,0.4-0.1,0.6c-0.1,0.3-0.1,0.7-0.2,1.1c0,0.2-0.1,0.4-0.1,0.5
			c-0.1,0.6-0.1,1.1-0.1,1.7c0,17.9,0,41,0,41C169.1,142.9,176.1,125.1,181.1,115.6L181.1,115.6z"/>
		<path fill="#E6A06B" d="M141.1,160.1c-3.8-5.1-16.4,2.2-33.2,4.7c-16.7,2.5-43.6-7.4-40.2-0.8C73.7,175.6,144.9,165.3,141.1,160.1
			z"/>
		<rect x="77.5" y="601.2" fill="#94765A" width="78" height="21"/>
		<rect x="77.5" y="642.2" fill="#94765A" width="78" height="11.4"/>
		<rect x="77.5" y="560.2" fill="#94765A" width="78" height="21"/>
		<rect x="77.5" y="355.2" fill="#94765A" width="78" height="21"/>
		<rect x="77.5" y="314.2" fill="#94765A" width="78" height="21"/>
		<rect x="77.5" y="396.2" fill="#94765A" width="78" height="21"/>
		<rect x="77.5" y="478.2" fill="#94765A" width="78" height="21"/>
		<rect x="77.5" y="437.2" fill="#94765A" width="78" height="21"/>
		<rect x="77.5" y="519.2" fill="#94765A" width="78" height="21"/>
		<polygon fill="#94765A" points="83.9,277.2 77.5,277.2 77.5,294.2 155.5,294.2 155.5,277.2 149.9,277.2 113.6,277.2 		"/>
		<rect x="77.5" y="294.2" fill="#624E39" width="78" height="20"/>
		<rect x="77.5" y="335.2" fill="#624E39" width="78" height="20"/>
		<rect x="77.5" y="376.2" fill="#624E39" width="78" height="20"/>
		<rect x="77.5" y="417.2" fill="#624E39" width="78" height="20"/>
		<rect x="77.5" y="458.2" fill="#624E39" width="78" height="20"/>
		<rect x="77.5" y="499.2" fill="#624E39" width="78" height="20"/>
		<rect x="77.5" y="540.2" fill="#624E39" width="78" height="20"/>
		<rect x="77.5" y="581.2" fill="#624E39" width="78" height="20"/>
		<rect x="77.5" y="622.2" fill="#624E39" width="78" height="20"/>
	</g>
</g>
<g id="Designed_by_Vecteezy">
</g>
</svg>
